LisuBosaMaster-ExtraLightItalic.ufo
<glyph name="exclam" format="2">
  <advance width="313"/>
  <unicode hex="0021"/>
  <outline>
    <contour>
      <point x="108" y="-11" type="curve" smooth="yes"/>
      <point x="139" y="-11"/>
      <point x="169" y="15"/>
      <point x="169" y="50" type="curve" smooth="yes"/>
      <point x="169" y="79"/>
      <point x="149" y="103"/>
      <point x="116" y="103" type="curve" smooth="yes"/>
      <point x="84" y="103"/>
      <point x="54" y="75"/>
      <point x="54" y="40" type="curve" smooth="yes"/>
      <point x="54" y="10"/>
      <point x="76" y="-11"/>
    </contour>
    <contour>
      <point x="214" y="506" type="curve" smooth="yes"/>
      <point x="223" y="539"/>
      <point x="230" y="556"/>
      <point x="235" y="561" type="curve" smooth="yes"/>
      <point x="240" y="567"/>
      <point x="245" y="569"/>
      <point x="255" y="569" type="curve" smooth="yes"/>
      <point x="276" y="569"/>
      <point x="298" y="559"/>
      <point x="298" y="544" type="curve" smooth="yes"/>
      <point x="298" y="533"/>
      <point x="286" y="493"/>
      <point x="279" y="474" type="curve" smooth="yes"/>
      <point x="242" y="369"/>
      <point x="218" y="293"/>
      <point x="184" y="185" type="curve" smooth="yes"/>
      <point x="180" y="173"/>
      <point x="172" y="168"/>
      <point x="158" y="168" type="curve" smooth="yes"/>
      <point x="142" y="168"/>
      <point x="122" y="173"/>
      <point x="122" y="188" type="curve" smooth="yes"/>
      <point x="122" y="195"/>
      <point x="123" y="200"/>
      <point x="128" y="218" type="curve" smooth="yes"/>
      <point x="164" y="335"/>
      <point x="185" y="405"/>
    </contour>
  </outline>
</glyph>
<glyph name="quotedbl" format="2">
  <advance width="297"/>
  <unicode hex="0022"/>
  <outline>
    <contour>
      <point x="129" y="582" type="line"/>
      <point x="100" y="379" type="line"/>
      <point x="152" y="379" type="line"/>
      <point x="204" y="582" type="line"/>
    </contour>
    <contour>
      <point x="273" y="582" type="line"/>
      <point x="244" y="379" type="line"/>
      <point x="296" y="379" type="line"/>
      <point x="348" y="582" type="line"/>
    </contour>
  </outline>
</glyph>
<glyph name="numbersign" format="2">
  <advance width="476"/>
  <unicode hex="0023"/>
  <outline>
    <contour>
      <point x="297" y="215" type="line"/>
      <point x="184" y="215" type="line"/>
      <point x="211" y="328" type="line"/>
      <point x="324" y="328" type="line"/>
    </contour>
    <contour>
      <point x="427" y="542" type="line"/>
      <point x="375" y="542" type="line"/>
      <point x="336" y="379" type="line"/>
      <point x="222" y="379" type="line"/>
      <point x="261" y="542" type="line"/>
      <point x="209" y="542" type="line"/>
      <point x="171" y="379" type="line"/>
      <point x="75" y="379" type="line"/>
      <point x="68" y="328" type="line"/>
      <point x="159" y="328" type="line"/>
      <point x="132" y="215" type="line"/>
      <point x="46" y="215" type="line"/>
      <point x="39" y="164" type="line"/>
      <point x="119" y="164" type="line"/>
      <point x="79" y="-4" type="line"/>
      <point x="132" y="-4" type="line"/>
      <point x="171" y="164" type="line"/>
      <point x="285" y="164" type="line"/>
      <point x="245" y="-4" type="line"/>
      <point x="297" y="-4" type="line"/>
      <point x="336" y="164" type="line"/>
      <point x="429" y="164" type="line"/>
      <point x="436" y="215" type="line"/>
      <point x="350" y="215" type="line"/>
      <point x="376" y="328" type="line"/>
      <point x="458" y="328" type="line"/>
      <point x="465" y="379" type="line"/>
      <point x="389" y="379" type="line"/>
    </contour>
  </outline>
</glyph>
<glyph name="dollar" format="2">
  <advance width="464"/>
  <unicode hex="0024"/>
  <outline>
    <contour>
      <point x="440" y="452" type="curve" smooth="yes"/>
      <point x="440" y="464"/>
      <point x="427" y="480"/>
      <point x="410" y="495" type="curve" smooth="yes"/>
      <point x="387" y="516"/>
      <point x="347" y="538"/>
      <point x="293" y="538" type="curve" smooth="yes"/>
      <point x="175" y="538"/>
      <point x="124" y="463"/>
      <point x="124" y="400" type="curve" smooth="yes"/>
      <point x="124" y="285"/>
      <point x="326" y="216"/>
      <point x="326" y="122" type="curve" smooth="yes"/>
      <point x="326" y="82"/>
      <point x="280" y="52"/>
      <point x="234" y="52" type="curve" smooth="yes"/>
      <point x="155" y="52"/>
      <point x="135" y="80"/>
      <point x="110" y="121" type="curve" smooth="yes"/>
      <point x="102" y="134"/>
      <point x="98" y="136"/>
      <point x="88" y="136" type="curve" smooth="yes"/>
      <point x="74" y="136"/>
      <point x="51" y="122"/>
      <point x="51" y="107" type="curve" smooth="yes"/>
      <point x="51" y="93"/>
      <point x="59" y="79"/>
      <point x="68" y="66" type="curve" smooth="yes"/>
      <point x="85" y="41"/>
      <point x="137" y="-8"/>
      <point x="215" y="-8" type="curve" smooth="yes"/>
      <point x="323" y="-8"/>
      <point x="386" y="60"/>
      <point x="386" y="132" type="curve" smooth="yes"/>
      <point x="386" y="246"/>
      <point x="184" y="326"/>
      <point x="184" y="406" type="curve" smooth="yes"/>
      <point x="184" y="447"/>
      <point x="223" y="478"/>
      <point x="274" y="478" type="curve" smooth="yes"/>
      <point x="333" y="478"/>
      <point x="360" y="460"/>
      <point x="377" y="439" type="curve" smooth="yes"/>
      <point x="387" y="427"/>
      <point x="392" y="422"/>
      <point x="399" y="422" type="curve" smooth="yes"/>
      <point x="414" y="422"/>
      <point x="440" y="436"/>
    </contour>
    <contour>
      <point x="323" y="573" type="curve" smooth="yes"/>
      <point x="311" y="573"/>
      <point x="307" y="569"/>
      <point x="303" y="563" type="curve" smooth="yes"/>
      <point x="299" y="557"/>
      <point x="294" y="542"/>
      <point x="292" y="535" type="curve" smooth="yes"/>
      <point x="284" y="504"/>
      <point x="276" y="471"/>
      <point x="268" y="438" type="curve" smooth="yes"/>
      <point x="246" y="348"/>
      <point x="187" y="130"/>
      <point x="156" y="26" type="curve" smooth="yes"/>
      <point x="147" y="-3"/>
      <point x="145" y="-13"/>
      <point x="145" y="-23" type="curve" smooth="yes"/>
      <point x="145" y="-33"/>
      <point x="154" y="-41"/>
      <point x="178" y="-41" type="curve" smooth="yes"/>
      <point x="200" y="-41"/>
      <point x="208" y="-32"/>
      <point x="211" y="-15" type="curve" smooth="yes"/>
      <point x="214" y="1"/>
      <point x="221" y="36"/>
      <point x="229" y="72" type="curve" smooth="yes"/>
      <point x="246" y="145"/>
      <point x="287" y="307"/>
      <point x="313" y="401" type="curve" smooth="yes"/>
      <point x="325" y="444"/>
      <point x="339" y="487"/>
      <point x="350" y="528" type="curve" smooth="yes"/>
      <point x="352" y="536"/>
      <point x="355" y="548"/>
      <point x="355" y="551" type="curve" smooth="yes"/>
      <point x="355" y="562"/>
      <point x="343" y="573"/>
    </contour>
  </outline>
</glyph>
<glyph name="ampersand" format="2">
  <advance width="467"/>
  <unicode hex="0026"/>
  <outline>
    <contour>
      <point x="13" y="141" type="curve" smooth="yes"/>
      <point x="13" y="65"/>
      <point x="72" y="-10"/>
      <point x="169" y="-10" type="curve" smooth="yes"/>
      <point x="262" y="-10"/>
      <point x="331" y="53"/>
      <point x="356" y="122" type="curve" smooth="yes"/>
      <point x="360" y="133"/>
      <point x="362" y="140"/>
      <point x="362" y="146" type="curve" smooth="yes"/>
      <point x="362" y="169"/>
      <point x="351" y="176"/>
      <point x="328" y="176" type="curve" smooth="yes"/>
      <point x="316" y="176"/>
      <point x="306" y="168"/>
      <point x="304" y="161" type="curve" smooth="yes"/>
      <point x="302" y="154"/>
      <point x="292" y="126"/>
      <point x="283" y="113" type="curve" smooth="yes"/>
      <point x="266" y="88"/>
      <point x="232" y="50"/>
      <point x="177" y="50" type="curve" smooth="yes"/>
      <point x="110" y="50"/>
      <point x="74" y="96"/>
      <point x="74" y="152" type="curve" smooth="yes"/>
      <point x="74" y="205"/>
      <point x="118" y="254"/>
      <point x="191" y="254" type="curve" smooth="yes"/>
      <point x="213" y="254"/>
      <point x="223" y="261"/>
      <point x="229" y="274" type="curve" smooth="yes"/>
      <point x="233" y="283"/>
      <point x="234" y="289"/>
      <point x="234" y="295" type="curve" smooth="yes"/>
      <point x="234" y="304"/>
      <point x="231" y="309"/>
      <point x="224" y="314" type="curve" smooth="yes"/>
      <point x="191" y="339"/>
      <point x="168" y="374"/>
      <point x="168" y="394" type="curve" smooth="yes"/>
      <point x="168" y="441"/>
      <point x="199" y="478"/>
      <point x="259" y="478" type="curve" smooth="yes"/>
      <point x="299" y="478"/>
      <point x="328" y="456"/>
      <point x="346" y="425" type="curve" smooth="yes"/>
      <point x="350" y="417"/>
      <point x="355" y="413"/>
      <point x="363" y="413" type="curve" smooth="yes"/>
      <point x="382" y="413"/>
      <point x="406" y="431"/>
      <point x="406" y="444" type="curve" smooth="yes"/>
      <point x="406" y="460"/>
      <point x="387" y="484"/>
      <point x="361" y="505" type="curve" smooth="yes"/>
      <point x="340" y="522"/>
      <point x="307" y="538"/>
      <point x="261" y="538" type="curve" smooth="yes"/>
      <point x="159" y="538"/>
      <point x="107" y="471"/>
      <point x="107" y="399" type="curve" smooth="yes"/>
      <point x="107" y="372"/>
      <point x="124" y="330"/>
      <point x="150" y="306" type="curve"/>
      <point x="65" y="288"/>
      <point x="13" y="221"/>
    </contour>
    <contour>
      <point x="434" y="160" type="curve" smooth="yes"/>
      <point x="437" y="168"/>
      <point x="439" y="174"/>
      <point x="439" y="180" type="curve" smooth="yes"/>
      <point x="439" y="194"/>
      <point x="430" y="202"/>
      <point x="409" y="202" type="curve" smooth="yes"/>
      <point x="383" y="202"/>
      <point x="369" y="201"/>
      <point x="346" y="201" type="curve" smooth="yes"/>
      <point x="321" y="201"/>
      <point x="311" y="200"/>
      <point x="294" y="200" type="curve" smooth="yes"/>
      <point x="280" y="200"/>
      <point x="272" y="200"/>
      <point x="265" y="197" type="curve" smooth="yes"/>
      <point x="258" y="194"/>
      <point x="255" y="189"/>
      <point x="250" y="178" type="curve" smooth="yes"/>
      <point x="247" y="171"/>
      <point x="246" y="166"/>
      <point x="246" y="161" type="curve" smooth="yes"/>
      <point x="246" y="149"/>
      <point x="258" y="143"/>
      <point x="274" y="143" type="curve" smooth="yes"/>
      <point x="300" y="143"/>
      <point x="312" y="145"/>
      <point x="344" y="145" type="curve" smooth="yes"/>
      <point x="361" y="145"/>
      <point x="368" y="143"/>
      <point x="398" y="143" type="curve" smooth="yes"/>
      <point x="416" y="143"/>
      <point x="429" y="145"/>
    </contour>
  </outline>
</glyph>
<glyph name="quotesingle" format="2">
  <advance width="155"/>
  <unicode hex="0027"/>
  <outline>
    <contour>
      <point x="128" y="577" type="line"/>
      <point x="97" y="364" type="line"/>
      <point x="150" y="364" type="line"/>
      <point x="203" y="577" type="line"/>
    </contour>
  </outline>
</glyph>
<glyph name="parenleft" format="2">
  <advance width="288"/>
  <unicode hex="0028"/>
  <guideline x="17" y="173" angle="259.0037"/>
  <guideline x="99" y="173" angle="259.0037"/>
  <outline>
    <contour>
      <point x="188" y="-87" type="line"/>
      <point x="78" y="-17"/>
      <point x="94" y="150"/>
      <point x="125" y="308" type="curve" smooth="yes"/>
      <point x="156" y="465"/>
      <point x="192" y="572"/>
      <point x="330" y="642" type="curve"/>
      <point x="341" y="697" type="line"/>
      <point x="152" y="609"/>
      <point x="84" y="517"/>
      <point x="43" y="308" type="curve" smooth="yes"/>
      <point x="2" y="97"/>
      <point x="24" y="-51"/>
      <point x="177" y="-142" type="curve"/>
    </contour>
  </outline>
</glyph>
<glyph name="parenright" format="2">
  <advance width="288"/>
  <unicode hex="0029"/>
  <outline>
    <contour>
      <point x="290" y="248" type="curve" smooth="yes"/>
      <point x="331" y="459"/>
      <point x="309" y="606"/>
      <point x="156" y="697" type="curve"/>
      <point x="145" y="642" type="line"/>
      <point x="255" y="572"/>
      <point x="239" y="405"/>
      <point x="208" y="248" type="curve" smooth="yes"/>
      <point x="177" y="90"/>
      <point x="141" y="-17"/>
      <point x="3" y="-87" type="curve"/>
      <point x="-8" y="-142" type="line"/>
      <point x="181" y="-51"/>
      <point x="249" y="37"/>
    </contour>
  </outline>
</glyph>
<glyph name="comma" format="2">
  <advance width="276"/>
  <unicode hex="002C"/>
  <outline>
    <contour>
      <point x="18" y="-147" type="line"/>
      <point x="106" y="-110"/>
      <point x="179" y="-28"/>
      <point x="179" y="58" type="curve" smooth="yes"/>
      <point x="179" y="74"/>
      <point x="175" y="85"/>
      <point x="169" y="95" type="curve"/>
      <point x="156" y="102"/>
      <point x="140" y="106"/>
      <point x="127" y="106" type="curve" smooth="yes"/>
      <point x="87" y="106"/>
      <point x="71" y="80"/>
      <point x="71" y="54" type="curve" smooth="yes"/>
      <point x="71" y="35"/>
      <point x="78" y="18"/>
      <point x="87" y="7" type="curve" smooth="yes"/>
      <point x="123" y="-35" type="line"/>
      <point x="121" y="-9" type="line"/>
      <point x="90" y="-62"/>
      <point x="52" y="-97"/>
      <point x="4" y="-121" type="curve"/>
    </contour>
  </outline>
</glyph>
<glyph name="hyphen" format="2">
  <advance width="353"/>
  <unicode hex="002D"/>
  <outline>
    <contour>
      <point x="40" y="268" type="curve" smooth="yes"/>
      <point x="38" y="260"/>
      <point x="37" y="253"/>
      <point x="37" y="249" type="curve" smooth="yes"/>
      <point x="37" y="235"/>
      <point x="48" y="231"/>
      <point x="62" y="231" type="curve" smooth="yes"/>
      <point x="95" y="231"/>
      <point x="136" y="233"/>
      <point x="204" y="233" type="curve" smooth="yes"/>
      <point x="232" y="233"/>
      <point x="277" y="232"/>
      <point x="308" y="232" type="curve" smooth="yes"/>
      <point x="314" y="232"/>
      <point x="328" y="233"/>
      <point x="332" y="235" type="curve" smooth="yes"/>
      <point x="336" y="237"/>
      <point x="342" y="241"/>
      <point x="347" y="256" type="curve" smooth="yes"/>
      <point x="349" y="262"/>
      <point x="350" y="269"/>
      <point x="350" y="274" type="curve" smooth="yes"/>
      <point x="350" y="287"/>
      <point x="344" y="293"/>
      <point x="326" y="293" type="curve" smooth="yes"/>
      <point x="300" y="293"/>
      <point x="242" y="291"/>
      <point x="191" y="291" type="curve" smooth="yes"/>
      <point x="142" y="291"/>
      <point x="93" y="292"/>
      <point x="72" y="292" type="curve" smooth="yes"/>
      <point x="57" y="292"/>
      <point x="47" y="287"/>
    </contour>
  </outline>
</glyph>
<glyph name="slash" format="2">
  <advance width="318"/>
  <unicode hex="002F"/>
  <outline>
    <contour>
      <point x="301" y="667" type="line"/>
      <point x="7" y="-120" type="line"/>
      <point x="59" y="-120" type="line"/>
      <point x="353" y="667" type="line"/>
    </contour>
  </outline>
</glyph>
<glyph name="zero" format="2">
  <advance width="454"/>
  <unicode hex="0030"/>
  <outline>
    <contour>
      <point x="416" y="233"/>
      <point x="344" y="-8"/>
      <point x="179" y="-8" type="curve" smooth="yes"/>
      <point x="97" y="-8"/>
      <point x="64" y="70"/>
      <point x="64" y="160" type="curve" smooth="yes"/>
      <point x="64" y="297"/>
      <point x="135" y="538"/>
      <point x="300" y="538" type="curve" smooth="yes"/>
      <point x="378" y="538"/>
      <point x="416" y="460"/>
      <point x="416" y="370" type="curve" smooth="yes"/>
    </contour>
    <contour>
      <point x="300" y="53"/>
      <point x="355" y="281"/>
      <point x="355" y="367" type="curve" smooth="yes"/>
      <point x="355" y="429"/>
      <point x="334" y="478"/>
      <point x="287" y="478" type="curve" smooth="yes"/>
      <point x="179" y="478"/>
      <point x="125" y="245"/>
      <point x="125" y="162" type="curve" smooth="yes"/>
      <point x="125" y="95"/>
      <point x="145" y="53"/>
      <point x="193" y="53" type="curve" smooth="yes"/>
    </contour>
  </outline>
</glyph>
<glyph name="one" format="2">
  <advance width="454"/>
  <unicode hex="0031"/>
  <outline>
    <contour>
      <point x="229" y="26" type="curve" smooth="yes"/>
      <point x="222" y="-2"/>
      <point x="211" y="-9"/>
      <point x="188" y="-9" type="curve" smooth="yes"/>
      <point x="166" y="-9"/>
      <point x="154" y="-1"/>
      <point x="154" y="12" type="curve" smooth="yes"/>
      <point x="154" y="24"/>
      <point x="169" y="62"/>
      <point x="179" y="96" type="curve" smooth="yes"/>
      <point x="205" y="183"/>
      <point x="239" y="297"/>
      <point x="271" y="416" type="curve"/>
      <point x="234" y="387"/>
      <point x="202" y="366"/>
      <point x="176" y="352" type="curve" smooth="yes"/>
      <point x="165" y="346"/>
      <point x="153" y="341"/>
      <point x="146" y="341" type="curve" smooth="yes"/>
      <point x="136" y="341"/>
      <point x="129" y="349"/>
      <point x="124" y="355" type="curve" smooth="yes"/>
      <point x="119" y="362"/>
      <point x="116" y="368"/>
      <point x="116" y="375" type="curve" smooth="yes"/>
      <point x="116" y="383"/>
      <point x="122" y="388"/>
      <point x="141" y="399" type="curve" smooth="yes"/>
      <point x="197" y="432"/>
      <point x="251" y="472"/>
      <point x="280" y="501" type="curve" smooth="yes"/>
      <point x="294" y="515"/>
      <point x="302" y="523"/>
      <point x="305" y="525" type="curve" smooth="yes"/>
      <point x="309" y="528"/>
      <point x="319" y="532"/>
      <point x="334" y="532" type="curve" smooth="yes"/>
      <point x="353" y="532"/>
      <point x="359" y="525"/>
      <point x="359" y="516" type="curve" smooth="yes"/>
      <point x="359" y="506"/>
      <point x="355" y="490"/>
      <point x="351" y="475" type="curve" smooth="yes"/>
      <point x="317" y="352"/>
      <point x="280" y="230"/>
      <point x="250" y="113" type="curve" smooth="yes"/>
      <point x="242" y="80"/>
      <point x="235" y="49"/>
    </contour>
  </outline>
</glyph>
<glyph name="two" format="2">
  <advance width="454"/>
  <unicode hex="0032"/>
  <outline>
    <contour>
      <point x="361" y="18" type="curve" smooth="yes"/>
      <point x="361" y="5"/>
      <point x="350" y="-4"/>
      <point x="306" y="-4" type="curve" smooth="yes"/>
      <point x="250" y="-4"/>
      <point x="188" y="-3"/>
      <point x="132" y="-3" type="curve" smooth="yes"/>
      <point x="99" y="-3"/>
      <point x="72" y="-4"/>
      <point x="49" y="-4" type="curve" smooth="yes"/>
      <point x="25" y="-4"/>
      <point x="15" y="3"/>
      <point x="8" y="13" type="curve" smooth="yes"/>
      <point x="4" y="18"/>
      <point x="1" y="26"/>
      <point x="1" y="34" type="curve" smooth="yes"/>
      <point x="1" y="46"/>
      <point x="6" y="57"/>
      <point x="32" y="83" type="curve" smooth="yes"/>
      <point x="54" y="105"/>
      <point x="142" y="175"/>
      <point x="234" y="246" type="curve" smooth="yes"/>
      <point x="307" y="303"/>
      <point x="349" y="355"/>
      <point x="349" y="398" type="curve" smooth="yes"/>
      <point x="349" y="450"/>
      <point x="311" y="478"/>
      <point x="260" y="478" type="curve" smooth="yes"/>
      <point x="226" y="478"/>
      <point x="196" y="458"/>
      <point x="174" y="435" type="curve" smooth="yes"/>
      <point x="156" y="417"/>
      <point x="145" y="392"/>
      <point x="132" y="392" type="curve" smooth="yes"/>
      <point x="114" y="392"/>
      <point x="91" y="407"/>
      <point x="91" y="426" type="curve" smooth="yes"/>
      <point x="91" y="442"/>
      <point x="113" y="467"/>
      <point x="140" y="490" type="curve" smooth="yes"/>
      <point x="167" y="513"/>
      <point x="204" y="538"/>
      <point x="269" y="538" type="curve" smooth="yes"/>
      <point x="359" y="538"/>
      <point x="410" y="475"/>
      <point x="410" y="411" type="curve" smooth="yes"/>
      <point x="410" y="344"/>
      <point x="372" y="281"/>
      <point x="282" y="208" type="curve" smooth="yes"/>
      <point x="227" y="164"/>
      <point x="113" y="80"/>
      <point x="81" y="49" type="curve"/>
      <point x="70" y="49" type="line"/>
      <point x="93" y="54"/>
      <point x="129" y="56"/>
      <point x="153" y="56" type="curve" smooth="yes"/>
      <point x="220" y="56"/>
      <point x="262" y="54"/>
      <point x="309" y="54" type="curve" smooth="yes"/>
      <point x="335" y="54"/>
      <point x="346" y="46"/>
      <point x="352" y="39" type="curve" smooth="yes"/>
      <point x="357" y="33"/>
      <point x="361" y="26"/>
    </contour>
  </outline>
</glyph>
<glyph name="three" format="2">
  <advance width="454"/>
  <unicode hex="0033"/>
  <outline>
    <contour>
      <point x="373" y="169" type="curve" smooth="yes"/>
      <point x="373" y="72"/>
      <point x="306" y="-8"/>
      <point x="192" y="-8" type="curve" smooth="yes"/>
      <point x="131" y="-8"/>
      <point x="90" y="21"/>
      <point x="70" y="44" type="curve" smooth="yes"/>
      <point x="50" y="67"/>
      <point x="33" y="99"/>
      <point x="33" y="120" type="curve" smooth="yes"/>
      <point x="33" y="138"/>
      <point x="50" y="154"/>
      <point x="74" y="154" type="curve" smooth="yes"/>
      <point x="87" y="154"/>
      <point x="92" y="142"/>
      <point x="99" y="125" type="curve" smooth="yes"/>
      <point x="118" y="77"/>
      <point x="152" y="53"/>
      <point x="199" y="53" type="curve" smooth="yes"/>
      <point x="254" y="53"/>
      <point x="313" y="101"/>
      <point x="313" y="160" type="curve" smooth="yes"/>
      <point x="313" y="214"/>
      <point x="276" y="246"/>
      <point x="231" y="246" type="curve" smooth="yes"/>
      <point x="215" y="246"/>
      <point x="202" y="247"/>
      <point x="194" y="252" type="curve" smooth="yes"/>
      <point x="184" y="259"/>
      <point x="182" y="266"/>
      <point x="182" y="276" type="curve" smooth="yes"/>
      <point x="182" y="285"/>
      <point x="185" y="293"/>
      <point x="195" y="298" type="curve" smooth="yes"/>
      <point x="201" y="301"/>
      <point x="209" y="303"/>
      <point x="228" y="303" type="curve" smooth="yes"/>
      <point x="297" y="303"/>
      <point x="348" y="353"/>
      <point x="348" y="403" type="curve" smooth="yes"/>
      <point x="348" y="448"/>
      <point x="312" y="478"/>
      <point x="263" y="478" type="curve" smooth="yes"/>
      <point x="238" y="478"/>
      <point x="214" y="466"/>
      <point x="199" y="453" type="curve" smooth="yes"/>
      <point x="176" y="433"/>
      <point x="167" y="411"/>
      <point x="154" y="411" type="curve" smooth="yes"/>
      <point x="142" y="411"/>
      <point x="112" y="426"/>
      <point x="112" y="445" type="curve" smooth="yes"/>
      <point x="112" y="459"/>
      <point x="134" y="487"/>
      <point x="170" y="510" type="curve" smooth="yes"/>
      <point x="201" y="530"/>
      <point x="233" y="538"/>
      <point x="271" y="538" type="curve" smooth="yes"/>
      <point x="357" y="538"/>
      <point x="408" y="479"/>
      <point x="408" y="414" type="curve" smooth="yes"/>
      <point x="408" y="358"/>
      <point x="370" y="302"/>
      <point x="317" y="276" type="curve"/>
      <point x="350" y="255"/>
      <point x="373" y="217"/>
    </contour>
  </outline>
</glyph>
<glyph name="four" format="2">
  <advance width="464"/>
  <unicode hex="0034"/>
  <outline>
    <contour>
      <point x="390" y="532" type="curve" smooth="yes"/>
      <point x="363" y="532"/>
      <point x="355" y="523"/>
      <point x="342" y="508" type="curve" smooth="yes"/>
      <point x="277" y="433"/>
      <point x="93" y="238"/>
      <point x="23" y="177" type="curve" smooth="yes"/>
      <point x="16" y="170"/>
      <point x="15" y="166"/>
      <point x="15" y="161" type="curve" smooth="yes"/>
      <point x="15" y="156"/>
      <point x="17" y="150"/>
      <point x="19" y="146" type="curve" smooth="yes"/>
      <point x="28" y="125"/>
      <point x="43" y="123"/>
      <point x="61" y="123" type="curve" smooth="yes"/>
      <point x="69" y="123"/>
      <point x="102" y="124"/>
      <point x="142" y="124" type="curve" smooth="yes"/>
      <point x="171" y="124"/>
      <point x="219" y="125"/>
      <point x="252" y="125" type="curve"/>
      <point x="240" y="89"/>
      <point x="219" y="23"/>
      <point x="219" y="14" type="curve" smooth="yes"/>
      <point x="219" y="6"/>
      <point x="227" y="-9"/>
      <point x="255" y="-9" type="curve" smooth="yes"/>
      <point x="278" y="-9"/>
      <point x="285" y="0"/>
      <point x="289" y="17" type="curve" smooth="yes"/>
      <point x="297" y="49"/>
      <point x="305" y="80"/>
      <point x="314" y="113" type="curve" smooth="yes"/>
      <point x="315" y="117"/>
      <point x="316" y="120"/>
      <point x="317" y="124" type="curve"/>
      <point x="342" y="124"/>
      <point x="367" y="123"/>
      <point x="391" y="123" type="curve" smooth="yes"/>
      <point x="407" y="123"/>
      <point x="414" y="126"/>
      <point x="417" y="128" type="curve" smooth="yes"/>
      <point x="421" y="130"/>
      <point x="424" y="137"/>
      <point x="424" y="144" type="curve" smooth="yes"/>
      <point x="424" y="152"/>
      <point x="419" y="159"/>
      <point x="411" y="167" type="curve" smooth="yes"/>
      <point x="397" y="181"/>
      <point x="377" y="182"/>
      <point x="359" y="182" type="curve" smooth="yes"/>
      <point x="333" y="182" type="line"/>
      <point x="361" y="278"/>
      <point x="388" y="376"/>
      <point x="415" y="475" type="curve" smooth="yes"/>
      <point x="419" y="490"/>
      <point x="423" y="506"/>
      <point x="423" y="516" type="curve" smooth="yes"/>
      <point x="423" y="525"/>
      <point x="411" y="532"/>
    </contour>
    <contour>
      <point x="89" y="161" type="line"/>
      <point x="176" y="239"/>
      <point x="327" y="407"/>
      <point x="341" y="424" type="curve"/>
      <point x="343" y="448" type="line"/>
      <point x="319" y="354"/>
      <point x="296" y="267"/>
      <point x="271" y="182" type="curve"/>
      <point x="222" y="182"/>
      <point x="191" y="181"/>
      <point x="155" y="181" type="curve" smooth="yes"/>
      <point x="65" y="181" type="line"/>
    </contour>
  </outline>
</glyph>
<glyph name="five" format="2">
  <advance width="464"/>
  <unicode hex="0035"/>
  <outline>
    <contour>
      <point x="383" y="209" type="curve" smooth="yes"/>
      <point x="383" y="285"/>
      <point x="340" y="342"/>
      <point x="256" y="342" type="curve" smooth="yes"/>
      <point x="233" y="342"/>
      <point x="194" y="333"/>
      <point x="177" y="322" type="curve"/>
      <point x="188" y="347"/>
      <point x="204" y="393"/>
      <point x="218" y="425" type="curve" smooth="yes"/>
      <point x="231" y="455"/>
      <point x="246" y="490"/>
      <point x="246" y="500" type="curve" smooth="yes"/>
      <point x="246" y="516"/>
      <point x="234" y="522"/>
      <point x="221" y="522" type="curve" smooth="yes"/>
      <point x="206" y="522"/>
      <point x="193" y="509"/>
      <point x="181" y="488" type="curve" smooth="yes"/>
      <point x="154" y="439"/>
      <point x="100" y="292"/>
      <point x="100" y="276" type="curve" smooth="yes"/>
      <point x="100" y="259"/>
      <point x="113" y="248"/>
      <point x="135" y="248" type="curve" smooth="yes"/>
      <point x="167" y="248"/>
      <point x="179" y="287"/>
      <point x="246" y="287" type="curve" smooth="yes"/>
      <point x="301" y="287"/>
      <point x="322" y="256"/>
      <point x="322" y="195" type="curve" smooth="yes"/>
      <point x="322" y="141"/>
      <point x="279" y="52"/>
      <point x="195" y="52" type="curve" smooth="yes"/>
      <point x="147" y="52"/>
      <point x="123" y="85"/>
      <point x="110" y="106" type="curve" smooth="yes"/>
      <point x="101" y="121"/>
      <point x="97" y="124"/>
      <point x="87" y="124" type="curve" smooth="yes"/>
      <point x="69" y="124"/>
      <point x="48" y="103"/>
      <point x="48" y="89" type="curve" smooth="yes"/>
      <point x="48" y="74"/>
      <point x="62" y="53"/>
      <point x="90" y="29" type="curve" smooth="yes"/>
      <point x="114" y="9"/>
      <point x="148" y="-8"/>
      <point x="195" y="-8" type="curve" smooth="yes"/>
      <point x="324" y="-8"/>
      <point x="383" y="115"/>
    </contour>
    <contour>
      <point x="223" y="531" type="curve" smooth="yes"/>
      <point x="186" y="531"/>
      <point x="168" y="532"/>
      <point x="146" y="532" type="curve" smooth="yes"/>
      <point x="130" y="532"/>
      <point x="120" y="523"/>
      <point x="120" y="509" type="curve" smooth="yes"/>
      <point x="120" y="499"/>
      <point x="124" y="492"/>
      <point x="135" y="485" type="curve" smooth="yes"/>
      <point x="146" y="478"/>
      <point x="194" y="473"/>
      <point x="234" y="473" type="curve" smooth="yes"/>
      <point x="277" y="473"/>
      <point x="326" y="474"/>
      <point x="353" y="474" type="curve" smooth="yes"/>
      <point x="369" y="474"/>
      <point x="391" y="473"/>
      <point x="406" y="473" type="curve" smooth="yes"/>
      <point x="418" y="473"/>
      <point x="435" y="474"/>
      <point x="442" y="477" type="curve" smooth="yes"/>
      <point x="449" y="480"/>
      <point x="454" y="486"/>
      <point x="454" y="499" type="curve" smooth="yes"/>
      <point x="454" y="520"/>
      <point x="432" y="532"/>
      <point x="385" y="532" type="curve" smooth="yes"/>
      <point x="323" y="532"/>
      <point x="287" y="531"/>
    </contour>
  </outline>
</glyph>
<glyph name="six" format="2">
  <advance width="454"/>
  <unicode hex="0036"/>
  <outline>
    <contour>
      <point x="369" y="192" type="curve" smooth="yes"/>
      <point x="369" y="86"/>
      <point x="296" y="-8"/>
      <point x="183" y="-8" type="curve" smooth="yes"/>
      <point x="91" y="-8"/>
      <point x="43" y="55"/>
      <point x="43" y="153" type="curve" smooth="yes"/>
      <point x="43" y="241"/>
      <point x="79" y="372"/>
      <point x="135" y="446" type="curve" smooth="yes"/>
      <point x="181" y="507"/>
      <point x="226" y="538"/>
      <point x="301" y="538" type="curve" smooth="yes"/>
      <point x="335" y="538"/>
      <point x="369" y="523"/>
      <point x="390" y="506" type="curve" smooth="yes"/>
      <point x="417" y="484"/>
      <point x="429" y="462"/>
      <point x="429" y="443" type="curve" smooth="yes"/>
      <point x="429" y="425"/>
      <point x="401" y="417"/>
      <point x="384" y="417" type="curve" smooth="yes"/>
      <point x="376" y="417"/>
      <point x="370" y="421"/>
      <point x="367" y="428" type="curve" smooth="yes"/>
      <point x="357" y="451"/>
      <point x="338" y="478"/>
      <point x="293" y="478" type="curve" smooth="yes"/>
      <point x="210" y="478"/>
      <point x="150" y="387"/>
      <point x="125" y="290" type="curve"/>
      <point x="163" y="320"/>
      <point x="203" y="332"/>
      <point x="240" y="332" type="curve" smooth="yes"/>
      <point x="314" y="332"/>
      <point x="369" y="268"/>
    </contour>
    <contour>
      <point x="190" y="52" type="curve" smooth="yes"/>
      <point x="254" y="52"/>
      <point x="308" y="120"/>
      <point x="308" y="183" type="curve" smooth="yes"/>
      <point x="308" y="237"/>
      <point x="280" y="275"/>
      <point x="222" y="275" type="curve" smooth="yes"/>
      <point x="152" y="275"/>
      <point x="104" y="209"/>
      <point x="104" y="144" type="curve" smooth="yes"/>
      <point x="104" y="88"/>
      <point x="139" y="52"/>
    </contour>
  </outline>
</glyph>
<glyph name="eight" format="2">
  <advance width="474"/>
  <unicode hex="0038"/>
  <outline>
    <contour>
      <point x="384" y="77"/>
      <point x="295" y="-10"/>
      <point x="179" y="-10" type="curve" smooth="yes"/>
      <point x="104" y="-10"/>
      <point x="35" y="51"/>
      <point x="35" y="124" type="curve" smooth="yes"/>
      <point x="35" y="205"/>
      <point x="88" y="273"/>
      <point x="159" y="292" type="curve"/>
      <point x="136" y="312"/>
      <point x="120" y="346"/>
      <point x="120" y="378" type="curve" smooth="yes"/>
      <point x="120" y="458"/>
      <point x="188" y="538"/>
      <point x="298" y="538" type="curve" smooth="yes"/>
      <point x="370" y="538"/>
      <point x="430" y="487"/>
      <point x="430" y="420" type="curve" smooth="yes"/>
      <point x="430" y="356"/>
      <point x="391" y="306"/>
      <point x="333" y="279" type="curve"/>
      <point x="365" y="255"/>
      <point x="384" y="221"/>
      <point x="384" y="181" type="curve" smooth="yes"/>
    </contour>
    <contour>
      <point x="314" y="316"/>
      <point x="353" y="354"/>
      <point x="353" y="404" type="curve" smooth="yes"/>
      <point x="353" y="440"/>
      <point x="321" y="465"/>
      <point x="287" y="465" type="curve" smooth="yes"/>
      <point x="230" y="465"/>
      <point x="195" y="421"/>
      <point x="195" y="381" type="curve" smooth="yes"/>
      <point x="195" y="347"/>
      <point x="224" y="316"/>
      <point x="261" y="316" type="curve" smooth="yes"/>
    </contour>
    <contour>
      <point x="260" y="62"/>
      <point x="309" y="125"/>
      <point x="309" y="172" type="curve" smooth="yes"/>
      <point x="309" y="215"/>
      <point x="275" y="251"/>
      <point x="229" y="251" type="curve" smooth="yes"/>
      <point x="160" y="251"/>
      <point x="109" y="194"/>
      <point x="109" y="138" type="curve" smooth="yes"/>
      <point x="109" y="93"/>
      <point x="142" y="62"/>
      <point x="190" y="62" type="curve" smooth="yes"/>
    </contour>
  </outline>
</glyph>
<glyph name="nine" format="2">
  <advance width="454"/>
  <unicode hex="0039"/>
  <outline>
    <contour>
      <point x="412" y="293"/>
      <point x="386" y="168"/>
      <point x="321" y="84" type="curve" smooth="yes"/>
      <point x="278" y="29"/>
      <point x="226" y="-8"/>
      <point x="159" y="-8" type="curve" smooth="yes"/>
      <point x="80" y="-8"/>
      <point x="35" y="46"/>
      <point x="35" y="73" type="curve" smooth="yes"/>
      <point x="35" y="88"/>
      <point x="56" y="107"/>
      <point x="70" y="107" type="curve" smooth="yes"/>
      <point x="81" y="107"/>
      <point x="87" y="103"/>
      <point x="100" y="86" type="curve" smooth="yes"/>
      <point x="112" y="70"/>
      <point x="136" y="52"/>
      <point x="163" y="52" type="curve" smooth="yes"/>
      <point x="238" y="52"/>
      <point x="300" y="134"/>
      <point x="328" y="241" type="curve"/>
      <point x="292" y="205"/>
      <point x="253" y="198"/>
      <point x="214" y="198" type="curve" smooth="yes"/>
      <point x="135" y="198"/>
      <point x="88" y="258"/>
      <point x="88" y="331" type="curve" smooth="yes"/>
      <point x="88" y="431"/>
      <point x="163" y="538"/>
      <point x="272" y="538" type="curve" smooth="yes"/>
      <point x="362" y="538"/>
      <point x="412" y="472"/>
      <point x="412" y="372" type="curve" smooth="yes"/>
    </contour>
    <contour>
      <point x="295" y="254"/>
      <point x="350" y="319"/>
      <point x="350" y="387" type="curve" smooth="yes"/>
      <point x="350" y="442"/>
      <point x="316" y="478"/>
      <point x="268" y="478" type="curve" smooth="yes"/>
      <point x="202" y="478"/>
      <point x="149" y="406"/>
      <point x="149" y="337" type="curve" smooth="yes"/>
      <point x="149" y="289"/>
      <point x="177" y="254"/>
      <point x="227" y="254" type="curve" smooth="yes"/>
    </contour>
  </outline>
</glyph>
<glyph name="greater" format="2">
  <advance width="487"/>
  <unicode hex="003E"/>
  <outline>
    <contour>
      <point x="437" y="323" type="line"/>
      <point x="104" y="517" type="line"/>
      <point x="79" y="472" type="line"/>
      <point x="387" y="299" type="line"/>
      <point x="387" y="308" type="line"/>
      <point x="79" y="134" type="line"/>
      <point x="104" y="89" type="line"/>
      <point x="437" y="283" type="line"/>
    </contour>
  </outline>
</glyph>
<glyph name="question" format="2">
  <advance width="423"/>
  <unicode hex="003F"/>
  <outline>
    <contour>
      <point x="58" y="42" type="curve" smooth="yes"/>
      <point x="58" y="11"/>
      <point x="81" y="-11"/>
      <point x="114" y="-11" type="curve" smooth="yes"/>
      <point x="146" y="-11"/>
      <point x="177" y="16"/>
      <point x="177" y="52" type="curve" smooth="yes"/>
      <point x="177" y="82"/>
      <point x="156" y="107"/>
      <point x="122" y="107" type="curve" smooth="yes"/>
      <point x="89" y="107"/>
      <point x="58" y="78"/>
    </contour>
    <contour>
      <point x="388" y="459" type="curve" smooth="yes"/>
      <point x="388" y="529"/>
      <point x="328" y="570"/>
      <point x="261" y="570" type="curve" smooth="yes"/>
      <point x="230" y="570"/>
      <point x="189" y="555"/>
      <point x="165" y="537" type="curve" smooth="yes"/>
      <point x="136" y="515"/>
      <point x="123" y="497"/>
      <point x="123" y="484" type="curve" smooth="yes"/>
      <point x="123" y="467"/>
      <point x="150" y="449"/>
      <point x="162" y="449" type="curve" smooth="yes"/>
      <point x="172" y="449"/>
      <point x="180" y="464"/>
      <point x="195" y="476" type="curve" smooth="yes"/>
      <point x="211" y="489"/>
      <point x="231" y="498"/>
      <point x="253" y="498" type="curve" smooth="yes"/>
      <point x="281" y="498"/>
      <point x="313" y="485"/>
      <point x="313" y="448" type="curve" smooth="yes"/>
      <point x="313" y="407"/>
      <point x="284" y="379"/>
      <point x="242" y="352" type="curve" smooth="yes"/>
      <point x="199" y="324"/>
      <point x="169" y="303"/>
      <point x="149" y="278" type="curve" smooth="yes"/>
      <point x="133" y="258"/>
      <point x="125" y="241"/>
      <point x="125" y="223" type="curve" smooth="yes"/>
      <point x="125" y="204"/>
      <point x="153" y="194"/>
      <point x="173" y="194" type="curve" smooth="yes"/>
      <point x="184" y="194"/>
      <point x="194" y="201"/>
      <point x="198" y="212" type="curve" smooth="yes"/>
      <point x="202" y="223"/>
      <point x="210" y="239"/>
      <point x="221" y="249" type="curve" smooth="yes"/>
      <point x="234" y="261"/>
      <point x="249" y="274"/>
      <point x="298" y="306" type="curve" smooth="yes"/>
      <point x="349" y="340"/>
      <point x="388" y="387"/>
    </contour>
  </outline>
</glyph>
<glyph name="D" format="2">
  <advance width="644"/>
  <unicode hex="0044"/>
  <anchor x="372" y="635" name="aboveUC"/>
  <anchor x="273" y="-20" name="belowLC"/>
  <outline>
    <contour>
      <point x="14" y="0" type="line"/>
      <point x="130" y="0" type="line"/>
      <point x="139" y="50" type="line"/>
      <point x="134" y="50" type="line"/>
      <point x="22" y="36" type="line"/>
    </contour>
    <contour>
      <point x="92" y="0" type="line"/>
      <point x="173" y="0" type="line"/>
      <point x="188" y="94"/>
      <point x="205" y="190"/>
      <point x="222" y="285" type="curve" smooth="yes"/>
      <point x="285" y="616" type="line"/>
      <point x="204" y="616" type="line"/>
      <point x="189" y="521"/>
      <point x="172" y="425"/>
      <point x="155" y="331" type="curve" smooth="yes"/>
    </contour>
    <contour>
      <point x="112" y="579" type="line"/>
      <point x="223" y="565" type="line"/>
      <point x="237" y="565" type="line"/>
      <point x="247" y="616" type="line"/>
      <point x="119" y="616" type="line"/>
    </contour>
    <contour>
      <point x="130" y="0" type="line"/>
      <point x="266" y="0" type="line" smooth="yes"/>
      <point x="453" y="0"/>
      <point x="629" y="118"/>
      <point x="630" y="362" type="curve" smooth="yes"/>
      <point x="630" y="520"/>
      <point x="529" y="616"/>
      <point x="371" y="616" type="curve" smooth="yes"/>
      <point x="247" y="616" type="line"/>
      <point x="239" y="574" type="line"/>
      <point x="334" y="574" type="line" smooth="yes"/>
      <point x="465" y="574"/>
      <point x="545" y="500"/>
      <point x="544" y="362" type="curve" smooth="yes"/>
      <point x="543" y="210"/>
      <point x="457" y="42"/>
      <point x="280" y="42" type="curve" smooth="yes"/>
      <point x="138" y="42" type="line"/>
    </contour>
  </outline>
</glyph>
<glyph name="H" format="2">
  <advance width="702"/>
  <unicode hex="0048"/>
  <note>
skew 10 scale 120
</note>
  <anchor x="426" y="635" name="aboveUC"/>
  <anchor x="322" y="-20" name="belowLC"/>
  <outline>
    <contour>
      <point x="15" y="0" type="line"/>
      <point x="258" y="0" type="line"/>
      <point x="265" y="36" type="line"/>
      <point x="156" y="50" type="line"/>
      <point x="139" y="50" type="line"/>
      <point x="23" y="36" type="line"/>
    </contour>
    <contour>
      <point x="92" y="0" type="line"/>
      <point x="173" y="0" type="line"/>
      <point x="188" y="94"/>
      <point x="205" y="190"/>
      <point x="222" y="285" type="curve" smooth="yes"/>
      <point x="285" y="616" type="line"/>
      <point x="205" y="616" type="line"/>
      <point x="190" y="521"/>
      <point x="172" y="425"/>
      <point x="155" y="331" type="curve" smooth="yes"/>
    </contour>
    <contour>
      <point x="112" y="579" type="line"/>
      <point x="223" y="565" type="line"/>
      <point x="241" y="565" type="line"/>
      <point x="355" y="579" type="line"/>
      <point x="362" y="616" type="line"/>
      <point x="119" y="616" type="line"/>
    </contour>
    <contour>
      <point x="178" y="294" type="line"/>
      <point x="559" y="294" type="line"/>
      <point x="566" y="336" type="line"/>
      <point x="187" y="336" type="line"/>
    </contour>
    <contour>
      <point x="389" y="0" type="line"/>
      <point x="632" y="0" type="line"/>
      <point x="639" y="36" type="line"/>
      <point x="529" y="50" type="line"/>
      <point x="513" y="50" type="line"/>
      <point x="396" y="36" type="line"/>
    </contour>
    <contour>
      <point x="466" y="0" type="line"/>
      <point x="547" y="0" type="line"/>
      <point x="562" y="94"/>
      <point x="578" y="190"/>
      <point x="596" y="285" type="curve" smooth="yes"/>
      <point x="658" y="616" type="line"/>
      <point x="577" y="616" type="line"/>
      <point x="563" y="521"/>
      <point x="546" y="425"/>
      <point x="529" y="331" type="curve" smooth="yes"/>
    </contour>
    <contour>
      <point x="485" y="579" type="line"/>
      <point x="597" y="565" type="line"/>
      <point x="614" y="565" type="line"/>
      <point x="728" y="579" type="line"/>
      <point x="736" y="616" type="line"/>
      <point x="493" y="616" type="line"/>
    </contour>
  </outline>
</glyph>
<glyph name="M" format="2">
  <advance width="853"/>
  <unicode hex="004D"/>
  <anchor x="496" y="608" name="aboveUC"/>
  <anchor x="372" y="-20" name="belowLC"/>
  <outline>
    <contour>
      <point x="-6" y="0" type="line"/>
      <point x="205" y="0" type="line"/>
      <point x="212" y="36" type="line"/>
      <point x="113" y="50" type="line"/>
      <point x="94" y="50" type="line"/>
      <point x="0" y="36" type="line"/>
    </contour>
    <contour>
      <point x="73" y="0" type="line"/>
      <point x="116" y="0" type="line"/>
      <point x="256" y="592" type="line"/>
      <point x="213" y="592" type="line"/>
    </contour>
    <contour>
      <point x="360" y="0" type="line"/>
      <point x="387" y="0" type="line"/>
      <point x="747" y="616" type="line"/>
      <point x="706" y="616" type="line"/>
      <point x="391" y="81" type="line"/>
      <point x="416" y="94" type="line"/>
      <point x="305" y="616" type="line"/>
      <point x="136" y="616" type="line"/>
      <point x="128" y="579" type="line"/>
      <point x="253" y="564" type="line"/>
      <point x="221" y="604" type="line"/>
    </contour>
    <contour>
      <point x="545" y="0" type="line"/>
      <point x="782" y="0" type="line"/>
      <point x="787" y="38" type="line"/>
      <point x="678" y="52" type="line"/>
      <point x="662" y="52" type="line"/>
      <point x="550" y="38" type="line"/>
    </contour>
    <contour>
      <point x="618" y="0" type="line"/>
      <point x="699" y="0" type="line"/>
      <point x="710" y="94"/>
      <point x="723" y="192"/>
      <point x="736" y="287" type="curve" smooth="yes"/>
      <point x="783" y="616" type="line"/>
      <point x="723" y="616" type="line"/>
      <point x="704" y="587" type="line"/>
    </contour>
    <contour>
      <point x="736" y="565" type="line"/>
      <point x="753" y="565" type="line"/>
      <point x="863" y="579" type="line"/>
      <point x="867" y="616" type="line"/>
      <point x="736" y="616" type="line"/>
    </contour>
  </outline>
</glyph>
<glyph name="Q" format="2">
  <advance width="607"/>
  <unicode hex="0051"/>
  <anchor x="379" y="635" name="aboveUC"/>
  <anchor x="279" y="-19" name="belowLC"/>
  <anchor x="522" y="621" name="hornLC"/>
  <anchor x="360" y="0" name="ogonek"/>
  <outline>
    <contour>
      <point x="457" y="-230" type="curve" smooth="yes"/>
      <point x="517" y="-230"/>
      <point x="563" y="-205"/>
      <point x="601" y="-171" type="curve"/>
      <point x="587" y="-145" type="line"/>
      <point x="552" y="-163"/>
      <point x="520" y="-172"/>
      <point x="471" y="-172" type="curve" smooth="yes"/>
      <point x="369" y="-172"/>
      <point x="314" y="-101"/>
      <point x="314" y="18" type="curve"/>
      <point x="239" y="18" type="line"/>
      <point x="239" y="-126"/>
      <point x="319" y="-230"/>
    </contour>
    <contour>
      <point x="280" y="-12" type="curve" smooth="yes"/>
      <point x="472" y="-12"/>
      <point x="600" y="164"/>
      <point x="600" y="376" type="curve" smooth="yes"/>
      <point x="600" y="530"/>
      <point x="515" y="629"/>
      <point x="379" y="629" type="curve" smooth="yes"/>
      <point x="191" y="629"/>
      <point x="61" y="451"/>
      <point x="61" y="238" type="curve" smooth="yes"/>
      <point x="61" y="82"/>
      <point x="148" y="-12"/>
    </contour>
    <contour>
      <point x="293" y="33" type="curve" smooth="yes"/>
      <point x="188" y="33"/>
      <point x="141" y="115"/>
      <point x="141" y="237" type="curve" smooth="yes"/>
      <point x="141" y="434"/>
      <point x="232" y="583"/>
      <point x="368" y="583" type="curve" smooth="yes"/>
      <point x="474" y="583"/>
      <point x="520" y="503"/>
      <point x="520" y="377" type="curve" smooth="yes"/>
      <point x="520" y="181"/>
      <point x="429" y="33"/>
    </contour>
  </outline>
</glyph>
<glyph name="T" format="2">
  <advance width="522"/>
  <unicode hex="0054"/>
  <anchor x="350" y="635" name="aboveUC"/>
  <anchor x="236" y="0" name="baseLC"/>
  <anchor x="237" y="-20" name="belowLC"/>
  <outline>
    <contour>
      <point x="69" y="452" type="line"/>
      <point x="115" y="452" type="line"/>
      <point x="175" y="616" type="line"/>
      <point x="126" y="570" type="line"/>
      <point x="542" y="570" type="line"/>
      <point x="509" y="616" type="line"/>
      <point x="509" y="452" type="line"/>
      <point x="555" y="452" type="line"/>
      <point x="582" y="616" type="line"/>
      <point x="103" y="616" type="line"/>
    </contour>
    <contour>
      <point x="105" y="0" type="line"/>
      <point x="367" y="0" type="line"/>
      <point x="374" y="36" type="line"/>
      <point x="255" y="50" type="line"/>
      <point x="239" y="50" type="line"/>
      <point x="113" y="36" type="line"/>
    </contour>
    <contour>
      <point x="193" y="0" type="line"/>
      <point x="274" y="0" type="line"/>
      <point x="288" y="94"/>
      <point x="305" y="190"/>
      <point x="322" y="285" type="curve" smooth="yes"/>
      <point x="385" y="616" type="line"/>
      <point x="304" y="616" type="line"/>
      <point x="289" y="521"/>
      <point x="273" y="425"/>
      <point x="255" y="331" type="curve" smooth="yes"/>
    </contour>
  </outline>
</glyph>
<glyph name="X" format="2">
  <advance width="608"/>
  <unicode hex="0058"/>
  <anchor x="402" y="635" name="aboveUC"/>
  <anchor x="276" y="-20" name="belowLC"/>
  <outline>
    <contour>
      <point x="-1" y="0" type="line"/>
      <point x="223" y="0" type="line"/>
      <point x="230" y="36" type="line"/>
      <point x="130" y="50" type="line"/>
      <point x="114" y="50" type="line"/>
      <point x="4" y="36" type="line"/>
    </contour>
    <contour>
      <point x="48" y="0" type="line"/>
      <point x="103" y="0" type="line"/>
      <point x="339" y="298" type="line"/>
      <point x="315" y="322" type="line"/>
    </contour>
    <contour>
      <point x="107" y="579" type="line"/>
      <point x="218" y="565" type="line"/>
      <point x="236" y="565" type="line"/>
      <point x="350" y="579" type="line"/>
      <point x="357" y="616" type="line"/>
      <point x="115" y="616" type="line"/>
    </contour>
    <contour>
      <point x="429" y="0" type="line"/>
      <point x="513" y="0" type="line"/>
      <point x="243" y="616" type="line"/>
      <point x="161" y="616" type="line"/>
    </contour>
    <contour>
      <point x="326" y="0" type="line"/>
      <point x="574" y="0" type="line"/>
      <point x="581" y="36" type="line"/>
      <point x="471" y="50" type="line"/>
      <point x="455" y="50" type="line"/>
      <point x="333" y="36" type="line"/>
    </contour>
    <contour>
      <point x="317" y="318" type="line"/>
      <point x="341" y="294" type="line"/>
      <point x="611" y="616" type="line"/>
      <point x="558" y="616" type="line"/>
    </contour>
    <contour>
      <point x="433" y="579" type="line"/>
      <point x="531" y="565" type="line"/>
      <point x="549" y="565" type="line"/>
      <point x="655" y="579" type="line"/>
      <point x="662" y="616" type="line"/>
      <point x="439" y="616" type="line"/>
    </contour>
  </outline>
</glyph>
<glyph name="Y" format="2">
  <advance width="508"/>
  <unicode hex="0059"/>
  <anchor x="355" y="635" name="aboveUC"/>
  <anchor x="230" y="-20" name="belowLC"/>
  <outline>
    <contour>
      <point x="57" y="579" type="line"/>
      <point x="168" y="565" type="line"/>
      <point x="185" y="565" type="line"/>
      <point x="299" y="579" type="line"/>
      <point x="307" y="616" type="line"/>
      <point x="64" y="616" type="line"/>
    </contour>
    <contour>
      <point x="103" y="0" type="line"/>
      <point x="364" y="0" type="line"/>
      <point x="371" y="36" type="line"/>
      <point x="253" y="50" type="line"/>
      <point x="236" y="50" type="line"/>
      <point x="110" y="36" type="line"/>
    </contour>
    <contour>
      <point x="249" y="230" type="line"/>
      <point x="297" y="230" type="line"/>
      <point x="552" y="616" type="line"/>
      <point x="506" y="616" type="line"/>
      <point x="294" y="288" type="line"/>
      <point x="307" y="288" type="line"/>
      <point x="204" y="616" type="line"/>
      <point x="114" y="616" type="line"/>
    </contour>
    <contour>
      <point x="190" y="0" type="line"/>
      <point x="271" y="0" type="line"/>
      <point x="286" y="94"/>
      <point x="302" y="190"/>
      <point x="320" y="285" type="curve"/>
      <point x="244" y="285" type="line"/>
    </contour>
    <contour>
      <point x="396" y="579" type="line"/>
      <point x="489" y="565" type="line"/>
      <point x="506" y="565" type="line"/>
      <point x="602" y="579" type="line"/>
      <point x="609" y="616" type="line"/>
      <point x="403" y="616" type="line"/>
    </contour>
  </outline>
</glyph>
<glyph name="bracketleft" format="2">
  <advance width="297"/>
  <unicode hex="005B"/>
  <outline>
    <contour>
      <point x="137" y="647" type="line"/>
      <point x="-13" y="-129" type="line"/>
      <point x="179" y="-129" type="line"/>
      <point x="190" y="-69" type="line"/>
      <point x="71" y="-69" type="line"/>
      <point x="199" y="589" type="line"/>
      <point x="318" y="589" type="line"/>
      <point x="329" y="647" type="line"/>
    </contour>
  </outline>
</glyph>
<glyph name="bracketright" format="2">
  <advance width="325"/>
  <unicode hex="005D"/>
  <outline>
    <contour>
      <point x="345" y="667" type="line"/>
      <point x="153" y="667" type="line"/>
      <point x="142" y="609" type="line"/>
      <point x="261" y="609" type="line"/>
      <point x="130" y="-69" type="line"/>
      <point x="11" y="-69" type="line"/>
      <point x="0" y="-129" type="line"/>
      <point x="192" y="-129" type="line"/>
    </contour>
  </outline>
</glyph>
<glyph name="asciicircum" format="2">
  <advance width="487"/>
  <unicode hex="005E"/>
  <outline>
    <contour>
      <point x="103" y="223" type="line"/>
      <point x="144" y="194" type="line"/>
      <point x="282" y="412" type="line"/>
      <point x="252" y="412" type="line"/>
      <point x="390" y="194" type="line"/>
      <point x="430" y="223" type="line"/>
      <point x="296" y="441" type="line"/>
      <point x="238" y="441" type="line"/>
    </contour>
  </outline>
</glyph>
<glyph name="underscore" format="2">
  <advance width="469"/>
  <unicode hex="005F"/>
  <outline>
    <contour>
      <point x="11" y="-58" type="line"/>
      <point x="406" y="-58" type="line"/>
      <point x="406" y="0" type="line"/>
      <point x="11" y="0" type="line"/>
    </contour>
  </outline>
</glyph>
<glyph name="grave" format="2">
  <advance width="368"/>
  <unicode hex="0060"/>
  <anchor x="320" y="465" name="_aboveLC"/>
  <anchor x="366" y="681" name="aboveLC"/>
  <outline>
    <contour>
      <point x="338" y="505" type="line"/>
      <point x="315" y="556"/>
      <point x="292" y="608"/>
      <point x="269" y="659" type="curve" smooth="yes"/>
      <point x="258" y="683"/>
      <point x="243" y="700"/>
      <point x="223" y="700" type="curve" smooth="yes"/>
      <point x="205" y="700"/>
      <point x="188" y="688"/>
      <point x="188" y="668" type="curve" smooth="yes"/>
      <point x="188" y="653"/>
      <point x="193" y="640"/>
      <point x="207" y="622" type="curve" smooth="yes"/>
      <point x="244" y="578"/>
      <point x="280" y="535"/>
      <point x="317" y="491" type="curve"/>
    </contour>
  </outline>
</glyph>
<glyph name="b" format="2">
  <advance width="453"/>
  <unicode hex="0062"/>
  <anchor x="212" y="679" name="aboveLC"/>
  <anchor x="168" y="-20" name="belowLC"/>
  <outline>
    <contour>
      <point x="154" y="-11" type="curve" smooth="yes"/>
      <point x="303" y="-11"/>
      <point x="455" y="180"/>
      <point x="455" y="334" type="curve" smooth="yes"/>
      <point x="455" y="417"/>
      <point x="416" y="448"/>
      <point x="371" y="448" type="curve" smooth="yes"/>
      <point x="304" y="448"/>
      <point x="208" y="379"/>
      <point x="150" y="269" type="curve"/>
      <point x="161" y="264" type="line"/>
      <point x="229" y="343"/>
      <point x="287" y="387"/>
      <point x="331" y="387" type="curve" smooth="yes"/>
      <point x="365" y="387"/>
      <point x="387" y="357"/>
      <point x="387" y="298" type="curve" smooth="yes"/>
      <point x="387" y="222"/>
      <point x="354" y="143"/>
      <point x="304" y="95" type="curve" smooth="yes"/>
      <point x="270" y="63"/>
      <point x="232" y="46"/>
      <point x="195" y="46" type="curve" smooth="yes"/>
      <point x="165" y="46"/>
      <point x="149" y="64"/>
      <point x="149" y="95" type="curve" smooth="yes"/>
      <point x="149" y="130"/>
      <point x="152" y="153"/>
      <point x="167" y="223" type="curve" smooth="yes"/>
      <point x="184" y="301" type="line"/>
      <point x="186" y="315" type="line"/>
      <point x="260" y="674" type="line"/>
      <point x="250" y="681" type="line"/>
      <point x="92" y="635" type="line"/>
      <point x="87" y="609" type="line"/>
      <point x="195" y="601" type="line"/>
      <point x="182" y="617" type="line"/>
      <point x="100" y="207" type="line" smooth="yes"/>
      <point x="88" y="146"/>
      <point x="79" y="102"/>
      <point x="79" y="63" type="curve" smooth="yes"/>
      <point x="79" y="16"/>
      <point x="114" y="-11"/>
    </contour>
  </outline>
</glyph>
<glyph name="c" format="2">
  <advance width="372"/>
  <unicode hex="0063"/>
  <anchor x="287" y="464" name="aboveLC"/>
  <anchor x="168" y="0" name="baseLC"/>
  <anchor x="162" y="-20" name="belowLC"/>
  <outline>
    <contour>
      <point x="186" y="-11" type="curve" smooth="yes"/>
      <point x="249" y="-11"/>
      <point x="315" y="36"/>
      <point x="352" y="101" type="curve"/>
      <point x="331" y="117" type="line"/>
      <point x="306" y="86"/>
      <point x="268" y="50"/>
      <point x="218" y="50" type="curve" smooth="yes"/>
      <point x="158" y="50"/>
      <point x="116" y="89"/>
      <point x="116" y="169" type="curve" smooth="yes"/>
      <point x="116" y="295"/>
      <point x="199" y="405"/>
      <point x="288" y="419" type="curve"/>
      <point x="250" y="429" type="line"/>
      <point x="291" y="382" type="line" smooth="yes"/>
      <point x="308" y="364"/>
      <point x="325" y="349"/>
      <point x="345" y="349" type="curve" smooth="yes"/>
      <point x="362" y="349"/>
      <point x="379" y="358"/>
      <point x="383" y="380" type="curve"/>
      <point x="373" y="420"/>
      <point x="341" y="448"/>
      <point x="285" y="448" type="curve" smooth="yes"/>
      <point x="170" y="448"/>
      <point x="49" y="315"/>
      <point x="49" y="160" type="curve" smooth="yes"/>
      <point x="49" y="45"/>
      <point x="106" y="-11"/>
    </contour>
  </outline>
</glyph>
<glyph name="f" format="2">
  <advance width="269"/>
  <unicode hex="0066"/>
  <anchor x="340" y="690" name="aboveLC"/>
  <anchor x="-38" y="-230" name="belowLC"/>
  <outline>
    <contour>
      <point x="340" y="690" type="curve" smooth="yes"/>
      <point x="281" y="690"/>
      <point x="175" y="649"/>
      <point x="143" y="445" type="curve" smooth="yes"/>
      <point x="120" y="299"/>
      <point x="100" y="172"/>
      <point x="75" y="32" type="curve" smooth="yes"/>
      <point x="57" y="-64"/>
      <point x="42" y="-115"/>
      <point x="18" y="-149" type="curve" smooth="yes"/>
      <point x="-1" y="-178"/>
      <point x="-22" y="-193"/>
      <point x="-41" y="-202" type="curve"/>
      <point x="-8" y="-199" type="line"/>
      <point x="-30" y="-178" type="line" smooth="yes"/>
      <point x="-50" y="-158"/>
      <point x="-69" y="-140"/>
      <point x="-96" y="-140" type="curve" smooth="yes"/>
      <point x="-116" y="-140"/>
      <point x="-135" y="-154"/>
      <point x="-138" y="-173" type="curve"/>
      <point x="-130" y="-207"/>
      <point x="-95" y="-230"/>
      <point x="-54" y="-230" type="curve" smooth="yes"/>
      <point x="-24" y="-230"/>
      <point x="4" y="-219"/>
      <point x="42" y="-185" type="curve" smooth="yes"/>
      <point x="93" y="-139"/>
      <point x="117" y="-67"/>
      <point x="137" y="32" type="curve" smooth="yes"/>
      <point x="163" y="166"/>
      <point x="185" y="313"/>
      <point x="207" y="445" type="curve" smooth="yes"/>
      <point x="238" y="629"/>
      <point x="300" y="661"/>
      <point x="363" y="672" type="curve"/>
      <point x="310" y="674" type="line"/>
      <point x="335" y="643" type="line" smooth="yes"/>
      <point x="365" y="607"/>
      <point x="380" y="592"/>
      <point x="408" y="592" type="curve" smooth="yes"/>
      <point x="424" y="592"/>
      <point x="437" y="601"/>
      <point x="443" y="622" type="curve"/>
      <point x="436" y="656"/>
      <point x="393" y="690"/>
    </contour>
    <contour>
      <point x="39" y="392" type="line"/>
      <point x="160" y="392" type="line"/>
      <point x="318" y="387" type="line"/>
      <point x="325" y="436" type="line"/>
      <point x="168" y="436" type="line"/>
      <point x="168" y="438" type="line"/>
      <point x="46" y="427" type="line"/>
    </contour>
  </outline>
</glyph>
<glyph name="k" format="2">
  <advance width="433"/>
  <unicode hex="006B"/>
  <anchor x="222" y="679" name="aboveLC"/>
  <anchor x="212" y="-20" name="belowLC"/>
  <outline>
    <contour>
      <point x="57" y="0" type="line"/>
      <point x="66" y="-7" type="line"/>
      <point x="126" y="0" type="line"/>
      <point x="137" y="64"/>
      <point x="148" y="128"/>
      <point x="161" y="193" type="curve" smooth="yes"/>
      <point x="255" y="674" type="line"/>
      <point x="250" y="681" type="line"/>
      <point x="92" y="635" type="line"/>
      <point x="88" y="609" type="line"/>
      <point x="195" y="601" type="line"/>
      <point x="180" y="630" type="line"/>
      <point x="171" y="566"/>
      <point x="159" y="503"/>
      <point x="146" y="439" type="curve" smooth="yes"/>
    </contour>
    <contour>
      <point x="436" y="0" type="curve"/>
      <point x="440" y="27" type="line"/>
      <point x="392" y="31" type="line" smooth="yes"/>
      <point x="364" y="33"/>
      <point x="350" y="40"/>
      <point x="330" y="84" type="curve" smooth="yes"/>
      <point x="303" y="142" type="line" smooth="yes"/>
      <point x="282" y="188"/>
      <point x="253" y="218"/>
      <point x="200" y="230" type="curve" smooth="yes"/>
      <point x="173" y="235" type="line"/>
      <point x="171" y="229" type="line"/>
      <point x="404" y="358" type="line" smooth="yes"/>
      <point x="437" y="377"/>
      <point x="450" y="390"/>
      <point x="450" y="406" type="curve" smooth="yes"/>
      <point x="450" y="425"/>
      <point x="437" y="442"/>
      <point x="417" y="443" type="curve"/>
      <point x="151" y="236" type="line"/>
      <point x="154" y="216" type="line"/>
      <point x="172" y="210" type="line" smooth="yes"/>
      <point x="205" y="201"/>
      <point x="219" y="184"/>
      <point x="241" y="132" type="curve" smooth="yes"/>
      <point x="271" y="61" type="line" smooth="yes"/>
      <point x="298" y="-2"/>
      <point x="328" y="-11"/>
      <point x="370" y="-11" type="curve" smooth="yes"/>
      <point x="391" y="-11"/>
      <point x="408" y="-9"/>
    </contour>
  </outline>
</glyph>
<glyph name="m" format="2">
  <advance width="751"/>
  <unicode hex="006D"/>
  <anchor x="422" y="465" name="aboveLC"/>
  <anchor x="351" y="-20" name="belowLC"/>
  <outline>
    <contour>
      <point x="598" y="-11" type="curve" smooth="yes"/>
      <point x="664" y="-11"/>
      <point x="716" y="44"/>
      <point x="757" y="100" type="curve"/>
      <point x="735" y="117" type="line"/>
      <point x="698" y="73"/>
      <point x="668" y="50"/>
      <point x="644" y="50" type="curve" smooth="yes"/>
      <point x="633" y="50"/>
      <point x="625" y="57"/>
      <point x="625" y="69" type="curve" smooth="yes"/>
      <point x="625" y="79"/>
      <point x="631" y="98"/>
      <point x="637" y="124" type="curve" smooth="yes"/>
      <point x="678" y="294" type="line" smooth="yes"/>
      <point x="686" y="324"/>
      <point x="694" y="355"/>
      <point x="694" y="384" type="curve" smooth="yes"/>
      <point x="694" y="426"/>
      <point x="674" y="448"/>
      <point x="636" y="448" type="curve" smooth="yes"/>
      <point x="577" y="448"/>
      <point x="500" y="392"/>
      <point x="439" y="331" type="curve"/>
      <point x="435" y="296" type="line"/>
      <point x="506" y="356"/>
      <point x="556" y="387"/>
      <point x="589" y="387" type="curve" smooth="yes"/>
      <point x="610" y="387"/>
      <point x="621" y="377"/>
      <point x="621" y="344" type="curve" smooth="yes"/>
      <point x="621" y="325"/>
      <point x="614" y="295"/>
      <point x="607" y="264" type="curve" smooth="yes"/>
      <point x="567" y="101" type="line" smooth="yes"/>
      <point x="558" y="63"/>
      <point x="552" y="47"/>
      <point x="552" y="26" type="curve" smooth="yes"/>
      <point x="552" y="3"/>
      <point x="570" y="-11"/>
    </contour>
    <contour>
      <point x="139" y="0" type="line"/>
      <point x="151" y="65"/>
      <point x="162" y="128"/>
      <point x="176" y="193" type="curve" smooth="yes"/>
      <point x="205" y="323" type="line"/>
      <point x="228" y="438" type="line"/>
      <point x="216" y="448" type="line"/>
      <point x="60" y="401" type="line"/>
      <point x="57" y="374" type="line"/>
      <point x="167" y="368" type="line"/>
      <point x="151" y="380" type="line"/>
      <point x="70" y="0" type="line"/>
      <point x="80" y="-7" type="line"/>
    </contour>
    <contour>
      <point x="383" y="0" type="line"/>
      <point x="395" y="65"/>
      <point x="407" y="128"/>
      <point x="421" y="193" type="curve" smooth="yes"/>
      <point x="450" y="329" type="line" smooth="yes"/>
      <point x="455" y="347"/>
      <point x="459" y="367"/>
      <point x="459" y="384" type="curve" smooth="yes"/>
      <point x="459" y="426"/>
      <point x="438" y="448"/>
      <point x="401" y="448" type="curve" smooth="yes"/>
      <point x="339" y="448"/>
      <point x="256" y="392"/>
      <point x="195" y="330" type="curve"/>
      <point x="190" y="296" type="line"/>
      <point x="264" y="356"/>
      <point x="319" y="387"/>
      <point x="354" y="387" type="curve" smooth="yes"/>
      <point x="374" y="387"/>
      <point x="386" y="377"/>
      <point x="386" y="346" type="curve" smooth="yes"/>
      <point x="386" y="332"/>
      <point x="382" y="315"/>
      <point x="379" y="300" type="curve" smooth="yes"/>
      <point x="315" y="0" type="line"/>
      <point x="324" y="-7" type="line"/>
    </contour>
  </outline>
</glyph>
<glyph name="p" format="2">
  <advance width="470"/>
  <unicode hex="0070"/>
  <anchor x="297" y="465" name="aboveLC"/>
  <anchor x="62" y="-230" name="belowLC"/>
  <outline>
    <contour>
      <point x="23" y="-221" type="line"/>
      <point x="93" y="-221" type="line"/>
      <point x="103" y="-159"/>
      <point x="114" y="-98"/>
      <point x="138" y="20" type="curve"/>
      <point x="142" y="36" type="line"/>
      <point x="228" y="438" type="line"/>
      <point x="216" y="448" type="line"/>
      <point x="60" y="401" type="line"/>
      <point x="57" y="374" type="line"/>
      <point x="166" y="368" type="line"/>
      <point x="151" y="380" type="line"/>
    </contour>
    <contour>
      <point x="93" y="41" type="line"/>
      <point x="124" y="2"/>
      <point x="149" y="-11"/>
      <point x="187" y="-11" type="curve" smooth="yes"/>
      <point x="320" y="-11"/>
      <point x="471" y="180"/>
      <point x="471" y="334" type="curve" smooth="yes"/>
      <point x="471" y="417"/>
      <point x="433" y="448"/>
      <point x="388" y="448" type="curve" smooth="yes"/>
      <point x="321" y="448"/>
      <point x="220" y="379"/>
      <point x="162" y="269" type="curve"/>
      <point x="172" y="264" type="line"/>
      <point x="241" y="343"/>
      <point x="303" y="387"/>
      <point x="346" y="387" type="curve" smooth="yes"/>
      <point x="381" y="387"/>
      <point x="402" y="357"/>
      <point x="402" y="298" type="curve" smooth="yes"/>
      <point x="402" y="234"/>
      <point x="379" y="169"/>
      <point x="342" y="120" type="curve" smooth="yes"/>
      <point x="310" y="79"/>
      <point x="267" y="50"/>
      <point x="220" y="50" type="curve" smooth="yes"/>
      <point x="195" y="50"/>
      <point x="163" y="60"/>
      <point x="132" y="92" type="curve"/>
    </contour>
    <contour>
      <point x="-53" y="-221" type="line"/>
      <point x="178" y="-221" type="line"/>
      <point x="185" y="-190" type="line"/>
      <point x="76" y="-173" type="line"/>
      <point x="58" y="-173" type="line"/>
      <point x="-46" y="-190" type="line"/>
    </contour>
  </outline>
</glyph>
<glyph name="q" format="2">
  <advance width="447"/>
  <unicode hex="0071"/>
  <anchor x="337" y="465" name="aboveLC"/>
  <anchor x="265" y="-230" name="belowLC"/>
  <outline>
    <contour>
      <point x="126" y="-11" type="curve" smooth="yes"/>
      <point x="191" y="-11"/>
      <point x="292" y="61"/>
      <point x="352" y="157" type="curve"/>
      <point x="345" y="177" type="line"/>
      <point x="265" y="80"/>
      <point x="207" y="50"/>
      <point x="169" y="50" type="curve" smooth="yes"/>
      <point x="129" y="50"/>
      <point x="111" y="82"/>
      <point x="111" y="134" type="curve" smooth="yes"/>
      <point x="111" y="212"/>
      <point x="143" y="285"/>
      <point x="188" y="332" type="curve" smooth="yes"/>
      <point x="221" y="366"/>
      <point x="262" y="387"/>
      <point x="300" y="387" type="curve" smooth="yes"/>
      <point x="325" y="387"/>
      <point x="351" y="379"/>
      <point x="382" y="351" type="curve"/>
      <point x="418" y="393" type="line"/>
      <point x="388" y="432"/>
      <point x="367" y="448"/>
      <point x="330" y="448" type="curve" smooth="yes"/>
      <point x="201" y="448"/>
      <point x="43" y="255"/>
      <point x="43" y="103" type="curve" smooth="yes"/>
      <point x="43" y="20"/>
      <point x="80" y="-11"/>
    </contour>
    <contour>
      <point x="152" y="-221" type="line"/>
      <point x="384" y="-221" type="line"/>
      <point x="391" y="-190" type="line"/>
      <point x="284" y="-173" type="line"/>
      <point x="266" y="-173" type="line"/>
      <point x="159" y="-190" type="line"/>
    </contour>
    <contour>
      <point x="437" y="439" type="line"/>
      <point x="420" y="448" type="line"/>
      <point x="365" y="406" type="line"/>
      <point x="305" y="119" type="line"/>
      <point x="302" y="105" type="line"/>
      <point x="233" y="-221" type="line"/>
      <point x="302" y="-221" type="line"/>
      <point x="312" y="-159"/>
      <point x="323" y="-98"/>
      <point x="336" y="-36" type="curve" smooth="yes"/>
    </contour>
  </outline>
</glyph>
<glyph name="braceright" format="2">
  <advance width="349"/>
  <unicode hex="007D"/>
  <outline>
    <contour>
      <point x="327" y="274" type="line"/>
      <point x="263" y="282"/>
      <point x="235" y="305"/>
      <point x="235" y="342" type="curve" smooth="yes"/>
      <point x="235" y="402"/>
      <point x="296" y="493"/>
      <point x="296" y="574" type="curve" smooth="yes"/>
      <point x="296" y="629"/>
      <point x="255" y="657"/>
      <point x="181" y="657" type="curve" smooth="yes"/>
      <point x="133" y="657" type="line"/>
      <point x="126" y="621" type="line"/>
      <point x="156" y="619" type="line" smooth="yes"/>
      <point x="209" y="614"/>
      <point x="233" y="601"/>
      <point x="233" y="566" type="curve" smooth="yes"/>
      <point x="233" y="511"/>
      <point x="190" y="384"/>
      <point x="190" y="333" type="curve" smooth="yes"/>
      <point x="190" y="284"/>
      <point x="220" y="253"/>
      <point x="291" y="251" type="curve"/>
      <point x="293" y="260" type="line"/>
      <point x="209" y="258"/>
      <point x="148" y="210"/>
      <point x="148" y="133" type="curve" smooth="yes"/>
      <point x="148" y="104"/>
      <point x="150" y="45"/>
      <point x="150" y="8" type="curve" smooth="yes"/>
      <point x="150" y="-75"/>
      <point x="128" y="-104"/>
      <point x="27" y="-109" type="curve" smooth="yes"/>
      <point x="6" y="-110" type="line"/>
      <point x="0" y="-146" type="line"/>
      <point x="35" y="-146" type="line" smooth="yes"/>
      <point x="161" y="-146"/>
      <point x="212" y="-94"/>
      <point x="212" y="3" type="curve" smooth="yes"/>
      <point x="212" y="48"/>
      <point x="198" y="94"/>
      <point x="198" y="125" type="curve" smooth="yes"/>
      <point x="198" y="187"/>
      <point x="231" y="226"/>
      <point x="320" y="237" type="curve"/>
    </contour>
  </outline>
</glyph>
<glyph name="sterling" format="2">
  <advance width="469"/>
  <unicode hex="00A3"/>
  <outline>
    <contour>
      <point x="2" y="0" type="line"/>
      <point x="379" y="0" type="line"/>
      <point x="393" y="73" type="line"/>
      <point x="69" y="73" type="line"/>
      <point x="69" y="58" type="line"/>
      <point x="160" y="115"/>
      <point x="222" y="198"/>
      <point x="222" y="284" type="curve" smooth="yes"/>
      <point x="222" y="332"/>
      <point x="198" y="360"/>
      <point x="198" y="436" type="curve" smooth="yes"/>
      <point x="198" y="502"/>
      <point x="242" y="565"/>
      <point x="322" y="565" type="curve" smooth="yes"/>
      <point x="352" y="565"/>
      <point x="383" y="562"/>
      <point x="420" y="545" type="curve"/>
      <point x="365" y="574" type="line"/>
      <point x="367" y="547"/>
      <point x="369" y="519"/>
      <point x="371" y="493" type="curve" smooth="yes"/>
      <point x="375" y="447"/>
      <point x="389" y="432"/>
      <point x="417" y="432" type="curve" smooth="yes"/>
      <point x="433" y="432"/>
      <point x="447" y="440"/>
      <point x="458" y="460" type="curve"/>
      <point x="458" y="558"/>
      <point x="403" y="607"/>
      <point x="308" y="607" type="curve" smooth="yes"/>
      <point x="197" y="607"/>
      <point x="120" y="529"/>
      <point x="120" y="439" type="curve" smooth="yes"/>
      <point x="120" y="373"/>
      <point x="164" y="333"/>
      <point x="164" y="282" type="curve" smooth="yes"/>
      <point x="164" y="188"/>
      <point x="103" y="110"/>
      <point x="13" y="52" type="curve"/>
    </contour>
    <contour>
      <point x="61" y="262" type="line"/>
      <point x="343" y="262" type="line"/>
      <point x="352" y="308" type="line"/>
      <point x="70" y="308" type="line"/>
    </contour>
  </outline>
</glyph>
<glyph name="currency" format="2">
  <advance width="469"/>
  <unicode hex="00A4"/>
  <outline>
    <contour>
      <point x="372" y="393" type="line"/>
      <point x="415" y="419" type="line" smooth="yes"/>
      <point x="457" y="444"/>
      <point x="468" y="457"/>
      <point x="468" y="472" type="curve" smooth="yes"/>
      <point x="468" y="491"/>
      <point x="453" y="506"/>
      <point x="435" y="506" type="curve" smooth="yes"/>
      <point x="419" y="506"/>
      <point x="406" y="494"/>
      <point x="381" y="453" type="curve" smooth="yes"/>
      <point x="356" y="410" type="line"/>
    </contour>
    <contour>
      <point x="164" y="302" type="curve" smooth="yes"/>
      <point x="164" y="363"/>
      <point x="209" y="405"/>
      <point x="264" y="405" type="curve" smooth="yes"/>
      <point x="319" y="405"/>
      <point x="364" y="363"/>
      <point x="364" y="302" type="curve" smooth="yes"/>
      <point x="364" y="241"/>
      <point x="319" y="199"/>
      <point x="264" y="199" type="curve" smooth="yes"/>
      <point x="209" y="199"/>
      <point x="164" y="241"/>
    </contour>
    <contour>
      <point x="113" y="302" type="curve" smooth="yes"/>
      <point x="113" y="213"/>
      <point x="183" y="153"/>
      <point x="264" y="153" type="curve" smooth="yes"/>
      <point x="345" y="153"/>
      <point x="415" y="213"/>
      <point x="415" y="302" type="curve" smooth="yes"/>
      <point x="415" y="391"/>
      <point x="345" y="451"/>
      <point x="264" y="451" type="curve" smooth="yes"/>
      <point x="183" y="451"/>
      <point x="113" y="391"/>
    </contour>
    <contour>
      <point x="173" y="410" type="line"/>
      <point x="148" y="453" type="line" smooth="yes"/>
      <point x="123" y="494"/>
      <point x="110" y="506"/>
      <point x="94" y="506" type="curve" smooth="yes"/>
      <point x="76" y="506"/>
      <point x="61" y="491"/>
      <point x="61" y="472" type="curve" smooth="yes"/>
      <point x="61" y="457"/>
      <point x="72" y="444"/>
      <point x="114" y="419" type="curve" smooth="yes"/>
      <point x="157" y="393" type="line"/>
    </contour>
    <contour>
      <point x="157" y="211" type="line"/>
      <point x="114" y="185" type="line" smooth="yes"/>
      <point x="72" y="161"/>
      <point x="61" y="148"/>
      <point x="61" y="132" type="curve" smooth="yes"/>
      <point x="61" y="114"/>
      <point x="76" y="99"/>
      <point x="94" y="99" type="curve" smooth="yes"/>
      <point x="110" y="99"/>
      <point x="123" y="110"/>
      <point x="148" y="151" type="curve" smooth="yes"/>
      <point x="173" y="195" type="line"/>
    </contour>
    <contour>
      <point x="356" y="195" type="line"/>
      <point x="381" y="151" type="line" smooth="yes"/>
      <point x="406" y="110"/>
      <point x="419" y="99"/>
      <point x="435" y="99" type="curve" smooth="yes"/>
      <point x="453" y="99"/>
      <point x="468" y="114"/>
      <point x="468" y="132" type="curve" smooth="yes"/>
      <point x="468" y="148"/>
      <point x="457" y="161"/>
      <point x="415" y="185" type="curve" smooth="yes"/>
      <point x="372" y="211" type="line"/>
    </contour>
  </outline>
</glyph>
<glyph name="copyright" format="2">
  <advance width="713"/>
  <unicode hex="00A9"/>
  <outline>
    <contour>
      <point x="364" y="-13" type="curve" smooth="yes"/>
      <point x="545" y="-13"/>
      <point x="713" y="119"/>
      <point x="713" y="345" type="curve" smooth="yes"/>
      <point x="713" y="524"/>
      <point x="589" y="630"/>
      <point x="417" y="630" type="curve" smooth="yes"/>
      <point x="236" y="630"/>
      <point x="69" y="495"/>
      <point x="69" y="270" type="curve" smooth="yes"/>
      <point x="69" y="91"/>
      <point x="192" y="-13"/>
    </contour>
    <contour>
      <point x="360" y="22" type="curve" smooth="yes"/>
      <point x="218" y="22"/>
      <point x="115" y="115"/>
      <point x="115" y="275" type="curve" smooth="yes"/>
      <point x="115" y="473"/>
      <point x="260" y="594"/>
      <point x="421" y="594" type="curve" smooth="yes"/>
      <point x="563" y="594"/>
      <point x="667" y="500"/>
      <point x="667" y="341" type="curve" smooth="yes"/>
      <point x="667" y="140"/>
      <point x="522" y="22"/>
    </contour>
    <contour>
      <point x="386" y="124" type="curve" smooth="yes"/>
      <point x="424" y="124"/>
      <point x="453" y="135"/>
      <point x="482" y="148" type="curve"/>
      <point x="496" y="233" type="line"/>
      <point x="456" y="233" type="line"/>
      <point x="430" y="148" type="line"/>
      <point x="470" y="177" type="line"/>
      <point x="447" y="165"/>
      <point x="422" y="158"/>
      <point x="396" y="158" type="curve" smooth="yes"/>
      <point x="338" y="158"/>
      <point x="285" y="201"/>
      <point x="285" y="294" type="curve" smooth="yes"/>
      <point x="285" y="388"/>
      <point x="337" y="463"/>
      <point x="426" y="463" type="curve" smooth="yes"/>
      <point x="458" y="463"/>
      <point x="487" y="455"/>
      <point x="506" y="440" type="curve"/>
      <point x="475" y="469" type="line"/>
      <point x="475" y="386" type="line"/>
      <point x="514" y="386" type="line"/>
      <point x="526" y="469" type="line"/>
      <point x="493" y="491"/>
      <point x="465" y="497"/>
      <point x="431" y="497" type="curve" smooth="yes"/>
      <point x="315" y="497"/>
      <point x="230" y="407"/>
      <point x="230" y="288" type="curve" smooth="yes"/>
      <point x="230" y="189"/>
      <point x="295" y="124"/>
    </contour>
  </outline>
</glyph>
<glyph name="ordfeminine" format="2">
  <advance width="338"/>
  <unicode hex="00AA"/>
  <outline>
    <contour>
      <point x="163" y="382" type="curve" smooth="yes"/>
      <point x="207" y="382"/>
      <point x="262" y="425"/>
      <point x="304" y="482" type="curve"/>
      <point x="299" y="498" type="line"/>
      <point x="251" y="452"/>
      <point x="221" y="433"/>
      <point x="195" y="433" type="curve" smooth="yes"/>
      <point x="173" y="433"/>
      <point x="158" y="449"/>
      <point x="158" y="487" type="curve" smooth="yes"/>
      <point x="158" y="578"/>
      <point x="225" y="647"/>
      <point x="275" y="647" type="curve" smooth="yes"/>
      <point x="296" y="647"/>
      <point x="317" y="637"/>
      <point x="333" y="626" type="curve"/>
      <point x="360" y="648" type="line"/>
      <point x="343" y="672"/>
      <point x="325" y="690"/>
      <point x="298" y="690" type="curve" smooth="yes"/>
      <point x="215" y="690"/>
      <point x="102" y="566"/>
      <point x="102" y="460" type="curve" smooth="yes"/>
      <point x="102" y="403"/>
      <point x="132" y="382"/>
    </contour>
    <contour>
      <point x="308" y="382" type="curve" smooth="yes"/>
      <point x="351" y="382"/>
      <point x="391" y="423"/>
      <point x="415" y="460" type="curve"/>
      <point x="399" y="471" type="line"/>
      <point x="378" y="447"/>
      <point x="356" y="430"/>
      <point x="341" y="430" type="curve" smooth="yes"/>
      <point x="333" y="430"/>
      <point x="326" y="435"/>
      <point x="326" y="443" type="curve" smooth="yes"/>
      <point x="326" y="449"/>
      <point x="327" y="460"/>
      <point x="331" y="474" type="curve" smooth="yes"/>
      <point x="379" y="688" type="line"/>
      <point x="368" y="694" type="line"/>
      <point x="318" y="657" type="line"/>
      <point x="278" y="475" type="line" smooth="yes"/>
      <point x="274" y="457"/>
      <point x="273" y="443"/>
      <point x="273" y="426" type="curve" smooth="yes"/>
      <point x="273" y="396"/>
      <point x="287" y="382"/>
    </contour>
  </outline>
</glyph>
<glyph name="registered" format="2">
  <advance width="425"/>
  <unicode hex="00AE"/>
  <outline>
    <contour>
      <point x="264" y="291" type="curve" smooth="yes"/>
      <point x="367" y="291"/>
      <point x="461" y="367"/>
      <point x="461" y="494" type="curve" smooth="yes"/>
      <point x="461" y="595"/>
      <point x="391" y="655"/>
      <point x="295" y="655" type="curve" smooth="yes"/>
      <point x="193" y="655"/>
      <point x="98" y="578"/>
      <point x="98" y="452" type="curve" smooth="yes"/>
      <point x="98" y="350"/>
      <point x="168" y="291"/>
    </contour>
    <contour>
      <point x="263" y="319" type="curve" smooth="yes"/>
      <point x="187" y="319"/>
      <point x="133" y="368"/>
      <point x="133" y="454" type="curve" smooth="yes"/>
      <point x="133" y="562"/>
      <point x="210" y="627"/>
      <point x="298" y="627" type="curve" smooth="yes"/>
      <point x="371" y="627"/>
      <point x="426" y="576"/>
      <point x="426" y="492" type="curve" smooth="yes"/>
      <point x="426" y="383"/>
      <point x="349" y="319"/>
    </contour>
    <contour>
      <point x="366" y="385" type="curve"/>
      <point x="368" y="399" type="line"/>
      <point x="330" y="403" type="line"/>
      <point x="347" y="392" type="line"/>
      <point x="330" y="441" type="line" smooth="yes"/>
      <point x="322" y="464"/>
      <point x="310" y="475"/>
      <point x="288" y="475" type="curve"/>
      <point x="279" y="470" type="line"/>
      <point x="334" y="470"/>
      <point x="359" y="491"/>
      <point x="359" y="523" type="curve" smooth="yes"/>
      <point x="359" y="554"/>
      <point x="337" y="570"/>
      <point x="302" y="570" type="curve" smooth="yes"/>
      <point x="272" y="570" type="line"/>
      <point x="269" y="554" type="line"/>
      <point x="301" y="554" type="line" smooth="yes"/>
      <point x="317" y="554"/>
      <point x="324" y="546"/>
      <point x="324" y="525" type="curve" smooth="yes"/>
      <point x="324" y="499"/>
      <point x="310" y="483"/>
      <point x="282" y="483" type="curve" smooth="yes"/>
      <point x="254" y="483" type="line"/>
      <point x="253" y="467" type="line"/>
      <point x="271" y="467" type="line" smooth="yes"/>
      <point x="284" y="467"/>
      <point x="287" y="461"/>
      <point x="292" y="443" type="curve" smooth="yes"/>
      <point x="304" y="406" type="line" smooth="yes"/>
      <point x="310" y="387"/>
      <point x="317" y="382"/>
      <point x="337" y="382" type="curve" smooth="yes"/>
      <point x="346" y="382"/>
      <point x="354" y="382"/>
    </contour>
    <contour>
      <point x="208" y="385" type="line"/>
      <point x="246" y="385" type="line"/>
      <point x="284" y="570" type="line"/>
      <point x="246" y="570" type="line"/>
    </contour>
    <contour>
      <point x="219" y="556" type="line"/>
      <point x="257" y="552" type="line"/>
      <point x="261" y="552" type="line"/>
      <point x="264" y="570" type="line"/>
      <point x="222" y="570" type="line"/>
    </contour>
    <contour>
      <point x="184" y="385" type="line"/>
      <point x="269" y="385" type="line"/>
      <point x="272" y="399" type="line"/>
      <point x="234" y="403" type="line"/>
      <point x="227" y="403" type="line"/>
      <point x="187" y="399" type="line"/>
    </contour>
  </outline>
</glyph>
<glyph name="degree" format="2">
  <advance width="301"/>
  <unicode hex="00B0"/>
  <outline>
    <contour>
      <point x="225" y="426" type="curve" smooth="yes"/>
      <point x="181" y="426"/>
      <point x="147" y="463"/>
      <point x="147" y="511" type="curve" smooth="yes"/>
      <point x="147" y="559"/>
      <point x="181" y="598"/>
      <point x="225" y="598" type="curve" smooth="yes"/>
      <point x="269" y="598"/>
      <point x="303" y="559"/>
      <point x="303" y="511" type="curve" smooth="yes"/>
      <point x="303" y="463"/>
      <point x="269" y="426"/>
    </contour>
    <contour>
      <point x="225" y="394" type="curve" smooth="yes"/>
      <point x="288" y="394"/>
      <point x="342" y="439"/>
      <point x="342" y="511" type="curve" smooth="yes"/>
      <point x="342" y="583"/>
      <point x="288" y="630"/>
      <point x="225" y="630" type="curve" smooth="yes"/>
      <point x="161" y="630"/>
      <point x="108" y="583"/>
      <point x="108" y="511" type="curve" smooth="yes"/>
      <point x="108" y="439"/>
      <point x="161" y="394"/>
    </contour>
  </outline>
</glyph>
<glyph name="three.sups" format="2">
  <advance width="318"/>
  <unicode hex="00B3"/>
  <outline>
    <contour>
      <point x="205" y="383" type="curve" smooth="yes"/>
      <point x="283" y="383"/>
      <point x="345" y="424"/>
      <point x="345" y="490" type="curve" smooth="yes"/>
      <point x="345" y="543"/>
      <point x="313" y="573"/>
      <point x="243" y="580" type="curve"/>
      <point x="241" y="572" type="line"/>
      <point x="317" y="583"/>
      <point x="363" y="624"/>
      <point x="363" y="679" type="curve" smooth="yes"/>
      <point x="363" y="727"/>
      <point x="330" y="765"/>
      <point x="261" y="765" type="curve" smooth="yes"/>
      <point x="195" y="765"/>
      <point x="153" y="733"/>
      <point x="146" y="677" type="curve"/>
      <point x="149" y="666"/>
      <point x="161" y="657"/>
      <point x="173" y="657" type="curve" smooth="yes"/>
      <point x="191" y="657"/>
      <point x="203" y="670"/>
      <point x="206" y="694" type="curve" smooth="yes"/>
      <point x="213" y="747" type="line"/>
      <point x="191" y="724" type="line"/>
      <point x="208" y="733"/>
      <point x="228" y="737"/>
      <point x="246" y="737" type="curve" smooth="yes"/>
      <point x="279" y="737"/>
      <point x="303" y="719"/>
      <point x="303" y="677" type="curve" smooth="yes"/>
      <point x="303" y="618"/>
      <point x="260" y="589"/>
      <point x="195" y="589" type="curve"/>
      <point x="191" y="562" type="line"/>
      <point x="253" y="562"/>
      <point x="280" y="540"/>
      <point x="280" y="494" type="curve" smooth="yes"/>
      <point x="280" y="438"/>
      <point x="241" y="411"/>
      <point x="196" y="411" type="curve" smooth="yes"/>
      <point x="172" y="411"/>
      <point x="154" y="416"/>
      <point x="136" y="428" type="curve"/>
      <point x="159" y="404" type="line"/>
      <point x="158" y="460" type="line" smooth="yes"/>
      <point x="157" y="489"/>
      <point x="147" y="501"/>
      <point x="128" y="501" type="curve" smooth="yes"/>
      <point x="116" y="501"/>
      <point x="106" y="494"/>
      <point x="100" y="480" type="curve"/>
      <point x="100" y="412"/>
      <point x="141" y="383"/>
    </contour>
  </outline>
</glyph>
<glyph name="one.sups" format="2">
  <advance width="318"/>
  <unicode hex="00B9"/>
  <outline>
    <contour>
      <point x="317" y="391" type="line"/>
      <point x="322" y="415" type="line"/>
      <point x="233" y="425" type="line"/>
      <point x="195" y="425" type="line"/>
      <point x="107" y="415" type="line"/>
      <point x="102" y="391" type="line"/>
    </contour>
    <contour>
      <point x="236" y="391" type="line"/>
      <point x="296" y="678" type="line"/>
      <point x="315" y="759" type="line"/>
      <point x="309" y="765" type="line"/>
      <point x="173" y="733" type="line"/>
      <point x="168" y="709" type="line"/>
      <point x="257" y="714" type="line"/>
      <point x="243" y="730" type="line"/>
      <point x="175" y="391" type="line"/>
    </contour>
  </outline>
</glyph>
<glyph name="guillemotright" format="2">
  <advance width="506"/>
  <unicode hex="00BB"/>
  <outline>
    <contour>
      <point x="307" y="417" type="line"/>
      <point x="281" y="392" type="line"/>
      <point x="414" y="214" type="line"/>
      <point x="421" y="250" type="line"/>
      <point x="233" y="74" type="line"/>
      <point x="253" y="46" type="line"/>
      <point x="460" y="207" type="line"/>
      <point x="469" y="256" type="line"/>
    </contour>
    <contour>
      <point x="121" y="417" type="line"/>
      <point x="95" y="392" type="line"/>
      <point x="229" y="214" type="line"/>
      <point x="235" y="250" type="line"/>
      <point x="47" y="74" type="line"/>
      <point x="68" y="46" type="line"/>
      <point x="275" y="207" type="line"/>
      <point x="283" y="256" type="line"/>
    </contour>
  </outline>
</glyph>
<glyph name="threequarters" format="2">
  <advance width="800"/>
  <unicode hex="00BE"/>
  <outline>
    <contour>
      <point x="239" y="-13" type="line"/>
      <point x="696" y="589" type="line"/>
      <point x="666" y="612" type="line"/>
      <point x="208" y="9" type="line"/>
    </contour>
    <contour>
      <point x="171" y="225" type="curve" smooth="yes"/>
      <point x="249" y="225"/>
      <point x="311" y="265"/>
      <point x="311" y="332" type="curve" smooth="yes"/>
      <point x="311" y="385"/>
      <point x="279" y="414"/>
      <point x="209" y="422" type="curve"/>
      <point x="207" y="414" type="line"/>
      <point x="283" y="425"/>
      <point x="329" y="466"/>
      <point x="329" y="521" type="curve" smooth="yes"/>
      <point x="329" y="569"/>
      <point x="296" y="607"/>
      <point x="227" y="607" type="curve" smooth="yes"/>
      <point x="161" y="607"/>
      <point x="119" y="575"/>
      <point x="112" y="518" type="curve"/>
      <point x="115" y="507"/>
      <point x="127" y="499"/>
      <point x="139" y="499" type="curve" smooth="yes"/>
      <point x="157" y="499"/>
      <point x="169" y="512"/>
      <point x="172" y="536" type="curve" smooth="yes"/>
      <point x="179" y="589" type="line"/>
      <point x="157" y="565" type="line"/>
      <point x="174" y="575"/>
      <point x="194" y="579"/>
      <point x="212" y="579" type="curve" smooth="yes"/>
      <point x="245" y="579"/>
      <point x="269" y="561"/>
      <point x="269" y="518" type="curve" smooth="yes"/>
      <point x="269" y="460"/>
      <point x="226" y="431"/>
      <point x="161" y="431" type="curve"/>
      <point x="157" y="403" type="line"/>
      <point x="219" y="403"/>
      <point x="246" y="381"/>
      <point x="246" y="336" type="curve" smooth="yes"/>
      <point x="246" y="280"/>
      <point x="207" y="253"/>
      <point x="162" y="253" type="curve" smooth="yes"/>
      <point x="138" y="253"/>
      <point x="120" y="258"/>
      <point x="102" y="270" type="curve"/>
      <point x="125" y="246" type="line"/>
      <point x="124" y="301" type="line" smooth="yes"/>
      <point x="123" y="331"/>
      <point x="113" y="343"/>
      <point x="94" y="343" type="curve" smooth="yes"/>
      <point x="82" y="343"/>
      <point x="72" y="336"/>
      <point x="66" y="322" type="curve"/>
      <point x="66" y="253"/>
      <point x="107" y="225"/>
    </contour>
    <contour>
      <point x="749" y="91" type="line"/>
      <point x="758" y="134" type="line"/>
      <point x="507" y="134" type="line"/>
      <point x="508" y="125" type="line"/>
      <point x="692" y="325" type="line"/>
      <point x="680" y="325" type="line"/>
      <point x="611" y="-11" type="line"/>
      <point x="667" y="-11" type="line"/>
      <point x="745" y="369" type="line"/>
      <point x="700" y="369" type="line"/>
      <point x="481" y="132" type="line"/>
      <point x="472" y="91" type="line"/>
    </contour>
  </outline>
</glyph>
<glyph name="Agrave" format="2">
  <advance width="621"/>
  <unicode hex="00C0"/>
  <anchor x="441" y="806" name="aboveUC"/>
  <anchor x="259" y="-20" name="belowLC"/>
  <anchor x="483" y="0" name="ogonek"/>
  <outline>
    <contour>
      <point x="-26" y="0" type="line"/>
      <point x="179" y="0" type="line"/>
      <point x="186" y="36" type="line"/>
      <point x="95" y="50" type="line"/>
      <point x="79" y="50" type="line"/>
      <point x="-19" y="36" type="line"/>
    </contour>
    <contour>
      <point x="30" y="0" type="line"/>
      <point x="80" y="0" type="line"/>
      <point x="370" y="547" type="line"/>
      <point x="357" y="547" type="line"/>
      <point x="431" y="0" type="line"/>
      <point x="512" y="0" type="line"/>
      <point x="425" y="616" type="line"/>
      <point x="373" y="616" type="line"/>
    </contour>
    <contour>
      <point x="179" y="224" type="line"/>
      <point x="442" y="224" type="line"/>
      <point x="454" y="266" type="line"/>
      <point x="192" y="266" type="line"/>
    </contour>
    <contour>
      <point x="337" y="0" type="line"/>
      <point x="580" y="0" type="line"/>
      <point x="587" y="36" type="line"/>
      <point x="478" y="50" type="line"/>
      <point x="461" y="50" type="line"/>
      <point x="345" y="36" type="line"/>
    </contour>
    <contour>
      <point x="441" y="686" type="line"/>
      <point x="414" y="714"/>
      <point x="385" y="743"/>
      <point x="356" y="771" type="curve" smooth="yes"/>
      <point x="330" y="797"/>
      <point x="314" y="806"/>
      <point x="299" y="806" type="curve" smooth="yes"/>
      <point x="280" y="806"/>
      <point x="264" y="794"/>
      <point x="264" y="776" type="curve" smooth="yes"/>
      <point x="264" y="759"/>
      <point x="276" y="744"/>
      <point x="310" y="725" type="curve" smooth="yes"/>
      <point x="347" y="705"/>
      <point x="386" y="684"/>
      <point x="425" y="664" type="curve"/>
    </contour>
  </outline>
</glyph>
<glyph name="Acircumflex" format="2">
  <advance width="621"/>
  <unicode hex="00C2"/>
  <anchor x="424" y="796" name="aboveUC"/>
  <anchor x="259" y="-20" name="belowLC"/>
  <anchor x="483" y="0" name="ogonek"/>
  <outline>
    <contour>
      <point x="-26" y="0" type="line"/>
      <point x="179" y="0" type="line"/>
      <point x="186" y="36" type="line"/>
      <point x="95" y="50" type="line"/>
      <point x="79" y="50" type="line"/>
      <point x="-19" y="36" type="line"/>
    </contour>
    <contour>
      <point x="30" y="0" type="line"/>
      <point x="80" y="0" type="line"/>
      <point x="370" y="547" type="line"/>
      <point x="357" y="547" type="line"/>
      <point x="431" y="0" type="line"/>
      <point x="512" y="0" type="line"/>
      <point x="425" y="616" type="line"/>
      <point x="373" y="616" type="line"/>
    </contour>
    <contour>
      <point x="179" y="224" type="line"/>
      <point x="442" y="224" type="line"/>
      <point x="454" y="266" type="line"/>
      <point x="192" y="266" type="line"/>
    </contour>
    <contour>
      <point x="337" y="0" type="line"/>
      <point x="580" y="0" type="line"/>
      <point x="587" y="36" type="line"/>
      <point x="478" y="50" type="line"/>
      <point x="461" y="50" type="line"/>
      <point x="345" y="36" type="line"/>
    </contour>
    <contour>
      <point x="435" y="787" type="line"/>
      <point x="405" y="787" type="line"/>
      <point x="266" y="678" type="line"/>
      <point x="279" y="655" type="line"/>
      <point x="453" y="754" type="line"/>
      <point x="376" y="754" type="line"/>
      <point x="522" y="655" type="line"/>
      <point x="544" y="678" type="line"/>
    </contour>
  </outline>
</glyph>
<glyph name="Adieresis" format="2">
  <advance width="621"/>
  <unicode hex="00C4"/>
  <anchor x="416" y="792" name="aboveUC"/>
  <anchor x="259" y="-20" name="belowLC"/>
  <anchor x="483" y="0" name="ogonek"/>
  <outline>
    <contour>
      <point x="-26" y="0" type="line"/>
      <point x="179" y="0" type="line"/>
      <point x="186" y="36" type="line"/>
      <point x="95" y="50" type="line"/>
      <point x="79" y="50" type="line"/>
      <point x="-19" y="36" type="line"/>
    </contour>
    <contour>
      <point x="30" y="0" type="line"/>
      <point x="80" y="0" type="line"/>
      <point x="370" y="547" type="line"/>
      <point x="357" y="547" type="line"/>
      <point x="431" y="0" type="line"/>
      <point x="512" y="0" type="line"/>
      <point x="425" y="616" type="line"/>
      <point x="373" y="616" type="line"/>
    </contour>
    <contour>
      <point x="179" y="224" type="line"/>
      <point x="442" y="224" type="line"/>
      <point x="454" y="266" type="line"/>
      <point x="192" y="266" type="line"/>
    </contour>
    <contour>
      <point x="337" y="0" type="line"/>
      <point x="580" y="0" type="line"/>
      <point x="587" y="36" type="line"/>
      <point x="478" y="50" type="line"/>
      <point x="461" y="50" type="line"/>
      <point x="345" y="36" type="line"/>
    </contour>
    <contour>
      <point x="295" y="689" type="curve" smooth="yes"/>
      <point x="322" y="689"/>
      <point x="345" y="711"/>
      <point x="345" y="742" type="curve" smooth="yes"/>
      <point x="345" y="765"/>
      <point x="328" y="782"/>
      <point x="304" y="782" type="curve" smooth="yes"/>
      <point x="278" y="782"/>
      <point x="253" y="761"/>
      <point x="253" y="730" type="curve" smooth="yes"/>
      <point x="253" y="704"/>
      <point x="273" y="689"/>
    </contour>
    <contour>
      <point x="495" y="689" type="curve" smooth="yes"/>
      <point x="524" y="689"/>
      <point x="547" y="711"/>
      <point x="547" y="742" type="curve" smooth="yes"/>
      <point x="547" y="765"/>
      <point x="529" y="782"/>
      <point x="506" y="782" type="curve" smooth="yes"/>
      <point x="480" y="782"/>
      <point x="456" y="761"/>
      <point x="456" y="730" type="curve" smooth="yes"/>
      <point x="456" y="704"/>
      <point x="475" y="689"/>
    </contour>
  </outline>
</glyph>
<glyph name="Aring" format="2">
  <advance width="621"/>
  <unicode hex="00C5"/>
  <anchor x="435" y="835" name="aboveUC"/>
  <anchor x="259" y="-20" name="belowLC"/>
  <anchor x="483" y="0" name="ogonek"/>
  <outline>
    <contour>
      <point x="-26" y="0" type="line"/>
      <point x="179" y="0" type="line"/>
      <point x="186" y="36" type="line"/>
      <point x="95" y="50" type="line"/>
      <point x="79" y="50" type="line"/>
      <point x="-19" y="36" type="line"/>
    </contour>
    <contour>
      <point x="30" y="0" type="line"/>
      <point x="80" y="0" type="line"/>
      <point x="370" y="547" type="line"/>
      <point x="357" y="547" type="line"/>
      <point x="431" y="0" type="line"/>
      <point x="512" y="0" type="line"/>
      <point x="425" y="616" type="line"/>
      <point x="373" y="616" type="line"/>
    </contour>
    <contour>
      <point x="179" y="224" type="line"/>
      <point x="442" y="224" type="line"/>
      <point x="454" y="266" type="line"/>
      <point x="192" y="266" type="line"/>
    </contour>
    <contour>
      <point x="337" y="0" type="line"/>
      <point x="580" y="0" type="line"/>
      <point x="587" y="36" type="line"/>
      <point x="478" y="50" type="line"/>
      <point x="461" y="50" type="line"/>
      <point x="345" y="36" type="line"/>
    </contour>
    <contour>
      <point x="406" y="655" type="curve" smooth="yes"/>
      <point x="454" y="655"/>
      <point x="502" y="691"/>
      <point x="502" y="750" type="curve" smooth="yes"/>
      <point x="502" y="798"/>
      <point x="468" y="826"/>
      <point x="421" y="826" type="curve" smooth="yes"/>
      <point x="375" y="826"/>
      <point x="324" y="792"/>
      <point x="324" y="731" type="curve" smooth="yes"/>
      <point x="324" y="684"/>
      <point x="362" y="655"/>
    </contour>
    <contour>
      <point x="410" y="686" type="curve" smooth="yes"/>
      <point x="379" y="686"/>
      <point x="362" y="707"/>
      <point x="362" y="735" type="curve" smooth="yes"/>
      <point x="362" y="769"/>
      <point x="388" y="795"/>
      <point x="420" y="795" type="curve" smooth="yes"/>
      <point x="451" y="795"/>
      <point x="464" y="772"/>
      <point x="464" y="747" type="curve" smooth="yes"/>
      <point x="464" y="715"/>
      <point x="443" y="686"/>
    </contour>
  </outline>
</glyph>
<glyph name="AE" format="2">
  <advance width="809"/>
  <unicode hex="00C6"/>
  <anchor x="605" y="635" name="aboveUC"/>
  <outline>
    <contour>
      <point x="-34" y="0" type="line"/>
      <point x="171" y="0" type="line"/>
      <point x="178" y="36" type="line"/>
      <point x="87" y="50" type="line"/>
      <point x="70" y="50" type="line"/>
      <point x="-27" y="36" type="line"/>
    </contour>
    <contour>
      <point x="20" y="0" type="line"/>
      <point x="72" y="0" type="line"/>
      <point x="496" y="616" type="line"/>
      <point x="449" y="616" type="line"/>
    </contour>
    <contour>
      <point x="202" y="224" type="line"/>
      <point x="442" y="224" type="line"/>
      <point x="450" y="266" type="line"/>
      <point x="230" y="266" type="line"/>
    </contour>
    <contour>
      <point x="284" y="0" type="line"/>
      <point x="400" y="0" type="line"/>
      <point x="409" y="50" type="line"/>
      <point x="403" y="50" type="line"/>
      <point x="291" y="36" type="line"/>
    </contour>
    <contour>
      <point x="335" y="579" type="line"/>
      <point x="447" y="565" type="line"/>
      <point x="504" y="565" type="line"/>
      <point x="514" y="616" type="line"/>
      <point x="343" y="616" type="line"/>
    </contour>
    <contour>
      <point x="362" y="0" type="line"/>
      <point x="443" y="0" type="line"/>
      <point x="458" y="94"/>
      <point x="474" y="190"/>
      <point x="492" y="285" type="curve" smooth="yes"/>
      <point x="554" y="616" type="line"/>
      <point x="473" y="616" type="line"/>
      <point x="459" y="521"/>
      <point x="442" y="425"/>
      <point x="425" y="331" type="curve" smooth="yes"/>
    </contour>
    <contour>
      <point x="400" y="0" type="line"/>
      <point x="743" y="0" type="line"/>
      <point x="779" y="163" type="line"/>
      <point x="733" y="163" type="line"/>
      <point x="675" y="0" type="line"/>
      <point x="725" y="46" type="line"/>
      <point x="409" y="46" type="line"/>
    </contour>
    <contour>
      <point x="457" y="293" type="line"/>
      <point x="664" y="293" type="line"/>
      <point x="671" y="335" type="line"/>
      <point x="465" y="335" type="line"/>
    </contour>
    <contour>
      <point x="505" y="570" type="line"/>
      <point x="775" y="570" type="line"/>
      <point x="746" y="616" type="line"/>
      <point x="746" y="452" type="line"/>
      <point x="792" y="452" type="line"/>
      <point x="814" y="616" type="line"/>
      <point x="514" y="616" type="line"/>
    </contour>
    <contour>
      <point x="634" y="206" type="line"/>
      <point x="673" y="206" type="line"/>
      <point x="714" y="424" type="line"/>
      <point x="676" y="424" type="line"/>
      <point x="641" y="326" type="line"/>
      <point x="638" y="308" type="line"/>
    </contour>
  </outline>
</glyph>
<glyph name="Ccedilla" format="2">
  <advance width="545"/>
  <unicode hex="00C7"/>
  <anchor x="403" y="635" name="aboveUC"/>
  <anchor x="314" y="0" name="baseLC"/>
  <anchor x="293" y="-20" name="belowLC"/>
  <outline>
    <contour>
      <point x="303" y="-13" type="curve" smooth="yes"/>
      <point x="381" y="-13"/>
      <point x="433" y="6"/>
      <point x="482" y="27" type="curve"/>
      <point x="507" y="161" type="line"/>
      <point x="453" y="161" type="line"/>
      <point x="409" y="27" type="line"/>
      <point x="460" y="65" type="line"/>
      <point x="422" y="46"/>
      <point x="379" y="32"/>
      <point x="333" y="32" type="curve" smooth="yes"/>
      <point x="227" y="32"/>
      <point x="136" y="106"/>
      <point x="136" y="262" type="curve" smooth="yes"/>
      <point x="136" y="437"/>
      <point x="247" y="584"/>
      <point x="395" y="584" type="curve" smooth="yes"/>
      <point x="440" y="584"/>
      <point x="492" y="570"/>
      <point x="524" y="544" type="curve"/>
      <point x="486" y="581" type="line"/>
      <point x="486" y="453" type="line"/>
      <point x="538" y="453" type="line"/>
      <point x="559" y="581" type="line"/>
      <point x="502" y="618"/>
      <point x="453" y="630"/>
      <point x="404" y="630" type="curve" smooth="yes"/>
      <point x="213" y="630"/>
      <point x="53" y="461"/>
      <point x="53" y="258" type="curve" smooth="yes"/>
      <point x="53" y="95"/>
      <point x="149" y="-13"/>
    </contour>
    <contour>
      <point x="247" y="-80" type="line"/>
      <point x="290" y="-91"/>
      <point x="315" y="-105"/>
      <point x="315" y="-139" type="curve" smooth="yes"/>
      <point x="315" y="-167"/>
      <point x="294" y="-183"/>
      <point x="262" y="-183" type="curve" smooth="yes"/>
      <point x="239" y="-183"/>
      <point x="221" y="-177"/>
      <point x="201" y="-168" type="curve"/>
      <point x="191" y="-191" type="line"/>
      <point x="210" y="-203"/>
      <point x="241" y="-212"/>
      <point x="273" y="-212" type="curve" smooth="yes"/>
      <point x="332" y="-212"/>
      <point x="368" y="-181"/>
      <point x="368" y="-144" type="curve" smooth="yes"/>
      <point x="368" y="-101"/>
      <point x="336" y="-81"/>
      <point x="274" y="-59" type="curve"/>
      <point x="276" y="-79" type="line"/>
      <point x="312" y="0" type="line"/>
      <point x="287" y="0" type="line"/>
    </contour>
  </outline>
</glyph>
<glyph name="Egrave" format="2">
  <advance width="540"/>
  <unicode hex="00C8"/>
  <anchor x="402" y="806" name="aboveUC"/>
  <anchor x="283" y="-20" name="belowLC"/>
  <anchor x="391" y="0" name="ogonek"/>
  <outline>
    <contour>
      <point x="14" y="0" type="line"/>
      <point x="130" y="0" type="line"/>
      <point x="139" y="50" type="line"/>
      <point x="134" y="50" type="line"/>
      <point x="22" y="36" type="line"/>
    </contour>
    <contour>
      <point x="92" y="0" type="line"/>
      <point x="173" y="0" type="line"/>
      <point x="188" y="94"/>
      <point x="205" y="190"/>
      <point x="222" y="285" type="curve" smooth="yes"/>
      <point x="285" y="616" type="line"/>
      <point x="204" y="616" type="line"/>
      <point x="189" y="521"/>
      <point x="172" y="425"/>
      <point x="155" y="331" type="curve" smooth="yes"/>
    </contour>
    <contour>
      <point x="112" y="579" type="line"/>
      <point x="223" y="565" type="line"/>
      <point x="234" y="565" type="line"/>
      <point x="244" y="616" type="line"/>
      <point x="119" y="616" type="line"/>
    </contour>
    <contour>
      <point x="130" y="0" type="line"/>
      <point x="473" y="0" type="line"/>
      <point x="509" y="163" type="line"/>
      <point x="463" y="163" type="line"/>
      <point x="405" y="0" type="line"/>
      <point x="456" y="46" type="line"/>
      <point x="139" y="46" type="line"/>
    </contour>
    <contour>
      <point x="187" y="293" type="line"/>
      <point x="394" y="293" type="line"/>
      <point x="402" y="335" type="line"/>
      <point x="195" y="335" type="line"/>
    </contour>
    <contour>
      <point x="235" y="570" type="line"/>
      <point x="506" y="570" type="line"/>
      <point x="476" y="616" type="line"/>
      <point x="476" y="452" type="line"/>
      <point x="522" y="452" type="line"/>
      <point x="544" y="616" type="line"/>
      <point x="244" y="616" type="line"/>
    </contour>
    <contour>
      <point x="365" y="206" type="line"/>
      <point x="403" y="206" type="line"/>
      <point x="445" y="424" type="line"/>
      <point x="406" y="424" type="line"/>
      <point x="371" y="326" type="line"/>
      <point x="368" y="308" type="line"/>
    </contour>
    <contour>
      <point x="402" y="686" type="line"/>
      <point x="374" y="714"/>
      <point x="345" y="743"/>
      <point x="316" y="771" type="curve" smooth="yes"/>
      <point x="290" y="797"/>
      <point x="275" y="806"/>
      <point x="259" y="806" type="curve" smooth="yes"/>
      <point x="241" y="806"/>
      <point x="225" y="794"/>
      <point x="225" y="776" type="curve" smooth="yes"/>
      <point x="225" y="759"/>
      <point x="237" y="744"/>
      <point x="271" y="725" type="curve" smooth="yes"/>
      <point x="308" y="705"/>
      <point x="346" y="684"/>
      <point x="385" y="664" type="curve"/>
    </contour>
  </outline>
</glyph>
<glyph name="Thorn" format="2">
  <advance width="516"/>
  <unicode hex="00DE"/>
  <outline>
    <contour>
      <point x="157" y="142" type="line"/>
      <point x="251" y="142" type="line" smooth="yes"/>
      <point x="419" y="142"/>
      <point x="517" y="221"/>
      <point x="517" y="335" type="curve" smooth="yes"/>
      <point x="517" y="431"/>
      <point x="446" y="492"/>
      <point x="301" y="492" type="curve" smooth="yes"/>
      <point x="226" y="492" type="line"/>
      <point x="218" y="449" type="line"/>
      <point x="295" y="449" type="line" smooth="yes"/>
      <point x="391" y="449"/>
      <point x="435" y="411"/>
      <point x="435" y="333" type="curve" smooth="yes"/>
      <point x="435" y="246"/>
      <point x="377" y="184"/>
      <point x="258" y="184" type="curve" smooth="yes"/>
      <point x="165" y="184" type="line"/>
    </contour>
    <contour>
      <point x="14" y="0" type="line"/>
      <point x="257" y="0" type="line"/>
      <point x="264" y="36" type="line"/>
      <point x="155" y="50" type="line"/>
      <point x="138" y="50" type="line"/>
      <point x="22" y="36" type="line"/>
    </contour>
    <contour>
      <point x="92" y="0" type="line"/>
      <point x="173" y="0" type="line"/>
      <point x="188" y="94"/>
      <point x="205" y="190"/>
      <point x="222" y="285" type="curve" smooth="yes"/>
      <point x="285" y="616" type="line"/>
      <point x="204" y="616" type="line"/>
      <point x="189" y="521"/>
      <point x="172" y="425"/>
      <point x="155" y="331" type="curve" smooth="yes"/>
    </contour>
    <contour>
      <point x="112" y="579" type="line"/>
      <point x="223" y="565" type="line"/>
      <point x="241" y="565" type="line"/>
      <point x="355" y="579" type="line"/>
      <point x="362" y="616" type="line"/>
      <point x="119" y="616" type="line"/>
    </contour>
  </outline>
</glyph>
<glyph name="germandbls" format="2">
  <advance width="462"/>
  <unicode hex="00DF"/>
  <outline>
    <contour>
      <point x="75" y="32" type="curve" smooth="yes"/>
      <point x="57" y="-64"/>
      <point x="42" y="-115"/>
      <point x="18" y="-149" type="curve" smooth="yes"/>
      <point x="-1" y="-178"/>
      <point x="-22" y="-193"/>
      <point x="-41" y="-202" type="curve"/>
      <point x="-8" y="-199" type="line"/>
      <point x="-30" y="-178" type="line" smooth="yes"/>
      <point x="-50" y="-158"/>
      <point x="-69" y="-140"/>
      <point x="-96" y="-140" type="curve" smooth="yes"/>
      <point x="-116" y="-140"/>
      <point x="-135" y="-154"/>
      <point x="-138" y="-173" type="curve"/>
      <point x="-130" y="-207"/>
      <point x="-95" y="-230"/>
      <point x="-54" y="-230" type="curve" smooth="yes"/>
      <point x="-24" y="-230"/>
      <point x="4" y="-219"/>
      <point x="42" y="-185" type="curve" smooth="yes"/>
      <point x="93" y="-139"/>
      <point x="117" y="-67"/>
      <point x="137" y="32" type="curve" smooth="yes"/>
      <point x="163" y="166"/>
      <point x="184" y="313"/>
      <point x="207" y="445" type="curve" smooth="yes"/>
      <point x="232" y="587"/>
      <point x="273" y="659"/>
      <point x="357" y="659" type="curve" smooth="yes"/>
      <point x="396" y="659"/>
      <point x="429" y="632"/>
      <point x="429" y="579" type="curve" smooth="yes"/>
      <point x="429" y="545"/>
      <point x="414" y="510"/>
      <point x="367" y="469" type="curve" smooth="yes"/>
      <point x="304" y="416"/>
      <point x="264" y="374"/>
      <point x="264" y="312" type="curve" smooth="yes"/>
      <point x="264" y="264"/>
      <point x="291" y="224"/>
      <point x="336" y="192" type="curve" smooth="yes"/>
      <point x="386" y="156"/>
      <point x="395" y="134"/>
      <point x="395" y="104" type="curve" smooth="yes"/>
      <point x="395" y="54"/>
      <point x="355" y="20"/>
      <point x="289" y="20" type="curve" smooth="yes"/>
      <point x="274" y="20"/>
      <point x="266" y="22"/>
      <point x="247" y="28" type="curve"/>
      <point x="280" y="-3" type="line"/>
      <point x="265" y="59" type="line" smooth="yes"/>
      <point x="260" y="84"/>
      <point x="248" y="99"/>
      <point x="222" y="99" type="curve" smooth="yes"/>
      <point x="207" y="99"/>
      <point x="194" y="89"/>
      <point x="189" y="74" type="curve"/>
      <point x="195" y="19"/>
      <point x="231" y="-11"/>
      <point x="303" y="-11" type="curve" smooth="yes"/>
      <point x="394" y="-11"/>
      <point x="457" y="42"/>
      <point x="457" y="115" type="curve" smooth="yes"/>
      <point x="457" y="172"/>
      <point x="438" y="198"/>
      <point x="381" y="241" type="curve" smooth="yes"/>
      <point x="340" y="271"/>
      <point x="322" y="297"/>
      <point x="322" y="336" type="curve" smooth="yes"/>
      <point x="322" y="379"/>
      <point x="345" y="409"/>
      <point x="391" y="442" type="curve" smooth="yes"/>
      <point x="448" y="484"/>
      <point x="489" y="526"/>
      <point x="489" y="587" type="curve" smooth="yes"/>
      <point x="489" y="647"/>
      <point x="444" y="690"/>
      <point x="368" y="690" type="curve" smooth="yes"/>
      <point x="256" y="690"/>
      <point x="171" y="614"/>
      <point x="143" y="445" type="curve" smooth="yes"/>
      <point x="119" y="299"/>
      <point x="100" y="172"/>
    </contour>
  </outline>
</glyph>
<glyph name="ccedilla" format="2">
  <advance width="372"/>
  <unicode hex="00E7"/>
  <anchor x="287" y="464" name="aboveLC"/>
  <anchor x="168" y="0" name="baseLC"/>
  <anchor x="162" y="-20" name="belowLC"/>
  <outline>
    <contour>
      <point x="186" y="-11" type="curve" smooth="yes"/>
      <point x="249" y="-11"/>
      <point x="315" y="36"/>
      <point x="352" y="101" type="curve"/>
      <point x="331" y="117" type="line"/>
      <point x="306" y="86"/>
      <point x="268" y="50"/>
      <point x="218" y="50" type="curve" smooth="yes"/>
      <point x="158" y="50"/>
      <point x="116" y="89"/>
      <point x="116" y="169" type="curve" smooth="yes"/>
      <point x="116" y="295"/>
      <point x="199" y="405"/>
      <point x="288" y="419" type="curve"/>
      <point x="250" y="429" type="line"/>
      <point x="291" y="382" type="line" smooth="yes"/>
      <point x="308" y="364"/>
      <point x="325" y="349"/>
      <point x="345" y="349" type="curve" smooth="yes"/>
      <point x="362" y="349"/>
      <point x="379" y="358"/>
      <point x="383" y="380" type="curve"/>
      <point x="373" y="420"/>
      <point x="341" y="448"/>
      <point x="285" y="448" type="curve" smooth="yes"/>
      <point x="170" y="448"/>
      <point x="49" y="315"/>
      <point x="49" y="160" type="curve" smooth="yes"/>
      <point x="49" y="45"/>
      <point x="106" y="-11"/>
    </contour>
    <contour>
      <point x="136" y="-80" type="line"/>
      <point x="179" y="-91"/>
      <point x="204" y="-105"/>
      <point x="204" y="-139" type="curve" smooth="yes"/>
      <point x="204" y="-167"/>
      <point x="183" y="-183"/>
      <point x="150" y="-183" type="curve" smooth="yes"/>
      <point x="127" y="-183"/>
      <point x="110" y="-177"/>
      <point x="90" y="-168" type="curve"/>
      <point x="80" y="-191" type="line"/>
      <point x="99" y="-203"/>
      <point x="130" y="-212"/>
      <point x="161" y="-212" type="curve" smooth="yes"/>
      <point x="220" y="-212"/>
      <point x="256" y="-181"/>
      <point x="256" y="-144" type="curve" smooth="yes"/>
      <point x="256" y="-101"/>
      <point x="225" y="-81"/>
      <point x="162" y="-59" type="curve"/>
      <point x="164" y="-79" type="line"/>
      <point x="201" y="0" type="line"/>
      <point x="175" y="0" type="line"/>
    </contour>
  </outline>
</glyph>
<glyph name="edieresis" format="2">
  <advance width="372"/>
  <unicode hex="00EB"/>
  <anchor x="322" y="644" name="aboveLC"/>
  <anchor x="175" y="-20" name="belowLC"/>
  <anchor x="220" y="0" name="ogonek"/>
  <outline>
    <contour>
      <point x="187" y="-11" type="curve" smooth="yes"/>
      <point x="254" y="-11"/>
      <point x="313" y="38"/>
      <point x="352" y="101" type="curve"/>
      <point x="331" y="117" type="line"/>
      <point x="306" y="86"/>
      <point x="264" y="50"/>
      <point x="207" y="50" type="curve" smooth="yes"/>
      <point x="147" y="50"/>
      <point x="111" y="86"/>
      <point x="111" y="178" type="curve" smooth="yes"/>
      <point x="111" y="300"/>
      <point x="208" y="408"/>
      <point x="268" y="408" type="curve" smooth="yes"/>
      <point x="299" y="408"/>
      <point x="320" y="388"/>
      <point x="320" y="354" type="curve" smooth="yes"/>
      <point x="320" y="301"/>
      <point x="260" y="234"/>
      <point x="88" y="190" type="curve"/>
      <point x="92" y="155" type="line"/>
      <point x="319" y="216"/>
      <point x="379" y="303"/>
      <point x="379" y="363" type="curve" smooth="yes"/>
      <point x="379" y="417"/>
      <point x="347" y="448"/>
      <point x="288" y="448" type="curve" smooth="yes"/>
      <point x="161" y="448"/>
      <point x="49" y="307"/>
      <point x="49" y="159" type="curve" smooth="yes"/>
      <point x="49" y="41"/>
      <point x="107" y="-11"/>
    </contour>
    <contour>
      <point x="219" y="575" type="curve" smooth="yes"/>
      <point x="247" y="575"/>
      <point x="270" y="597"/>
      <point x="270" y="628" type="curve" smooth="yes"/>
      <point x="270" y="651"/>
      <point x="253" y="668"/>
      <point x="229" y="668" type="curve" smooth="yes"/>
      <point x="203" y="668"/>
      <point x="178" y="647"/>
      <point x="178" y="616" type="curve" smooth="yes"/>
      <point x="178" y="590"/>
      <point x="197" y="575"/>
    </contour>
    <contour>
      <point x="397" y="575" type="curve" smooth="yes"/>
      <point x="425" y="575"/>
      <point x="448" y="597"/>
      <point x="448" y="628" type="curve" smooth="yes"/>
      <point x="448" y="651"/>
      <point x="430" y="668"/>
      <point x="406" y="668" type="curve" smooth="yes"/>
      <point x="381" y="668"/>
      <point x="356" y="647"/>
      <point x="356" y="616" type="curve" smooth="yes"/>
      <point x="356" y="590"/>
      <point x="376" y="575"/>
    </contour>
  </outline>
</glyph>
<glyph name="eth" format="2">
  <advance width="448"/>
  <unicode hex="00F0"/>
  <outline>
    <contour>
      <point x="207" y="-11" type="curve" smooth="yes"/>
      <point x="322" y="-11"/>
      <point x="438" y="104"/>
      <point x="438" y="309" type="curve" smooth="yes"/>
      <point x="438" y="472"/>
      <point x="361" y="616"/>
      <point x="214" y="689" type="curve"/>
      <point x="189" y="659" type="line"/>
      <point x="321" y="578"/>
      <point x="371" y="482"/>
      <point x="376" y="309" type="curve"/>
      <point x="406" y="343" type="line"/>
      <point x="384" y="405"/>
      <point x="348" y="445"/>
      <point x="283" y="445" type="curve" smooth="yes"/>
      <point x="166" y="445"/>
      <point x="49" y="327"/>
      <point x="49" y="160" type="curve" smooth="yes"/>
      <point x="49" y="52"/>
      <point x="113" y="-11"/>
    </contour>
    <contour>
      <point x="213" y="24" type="curve" smooth="yes"/>
      <point x="158" y="24"/>
      <point x="123" y="70"/>
      <point x="123" y="172" type="curve" smooth="yes"/>
      <point x="123" y="303"/>
      <point x="194" y="405"/>
      <point x="283" y="405" type="curve" smooth="yes"/>
      <point x="333" y="405"/>
      <point x="368" y="374"/>
      <point x="368" y="283" type="curve" smooth="yes"/>
      <point x="368" y="130"/>
      <point x="298" y="24"/>
    </contour>
    <contour>
      <point x="176" y="501" type="line"/>
      <point x="436" y="643" type="line"/>
      <point x="420" y="674" type="line"/>
      <point x="161" y="532" type="line"/>
    </contour>
  </outline>
</glyph>
<glyph name="otilde" format="2">
  <advance width="448"/>
  <unicode hex="00F5"/>
  <anchor x="322" y="668" name="aboveLC"/>
  <anchor x="185" y="-20" name="belowLC"/>
  <anchor x="382" y="441" name="hornLC"/>
  <anchor x="253" y="0" name="ogonek"/>
  <outline>
    <contour>
      <point x="202" y="-11" type="curve" smooth="yes"/>
      <point x="331" y="-11"/>
      <point x="437" y="126"/>
      <point x="437" y="287" type="curve" smooth="yes"/>
      <point x="437" y="391"/>
      <point x="375" y="448"/>
      <point x="288" y="448" type="curve" smooth="yes"/>
      <point x="159" y="448"/>
      <point x="49" y="315"/>
      <point x="49" y="149" type="curve" smooth="yes"/>
      <point x="49" y="45"/>
      <point x="117" y="-11"/>
    </contour>
    <contour>
      <point x="212" y="24" type="curve" smooth="yes"/>
      <point x="161" y="24"/>
      <point x="123" y="64"/>
      <point x="123" y="161" type="curve" smooth="yes"/>
      <point x="123" y="299"/>
      <point x="191" y="411"/>
      <point x="278" y="411" type="curve" smooth="yes"/>
      <point x="329" y="411"/>
      <point x="364" y="372"/>
      <point x="364" y="272" type="curve" smooth="yes"/>
      <point x="364" y="149"/>
      <point x="303" y="24"/>
    </contour>
    <contour>
      <point x="147" y="541" type="curve"/>
      <point x="169" y="533" type="line"/>
      <point x="181" y="587"/>
      <point x="207" y="611"/>
      <point x="230" y="611" type="curve" smooth="yes"/>
      <point x="260" y="611"/>
      <point x="278" y="587"/>
      <point x="297" y="566" type="curve" smooth="yes"/>
      <point x="312" y="549"/>
      <point x="331" y="531"/>
      <point x="366" y="531" type="curve" smooth="yes"/>
      <point x="413" y="531"/>
      <point x="449" y="570"/>
      <point x="465" y="649" type="curve"/>
      <point x="442" y="657" type="line"/>
      <point x="430" y="603"/>
      <point x="404" y="579"/>
      <point x="380" y="579" type="curve" smooth="yes"/>
      <point x="352" y="579"/>
      <point x="334" y="603"/>
      <point x="314" y="624" type="curve" smooth="yes"/>
      <point x="299" y="642"/>
      <point x="281" y="659"/>
      <point x="246" y="659" type="curve" smooth="yes"/>
      <point x="200" y="659"/>
      <point x="161" y="621"/>
    </contour>
  </outline>
</glyph>
<glyph name="odieresis" format="2">
  <advance width="448"/>
  <unicode hex="00F6"/>
  <anchor x="323" y="644" name="aboveLC"/>
  <anchor x="185" y="-20" name="belowLC"/>
  <anchor x="382" y="441" name="hornLC"/>
  <anchor x="253" y="0" name="ogonek"/>
  <outline>
    <contour>
      <point x="202" y="-11" type="curve" smooth="yes"/>
      <point x="331" y="-11"/>
      <point x="437" y="126"/>
      <point x="437" y="287" type="curve" smooth="yes"/>
      <point x="437" y="391"/>
      <point x="375" y="448"/>
      <point x="288" y="448" type="curve" smooth="yes"/>
      <point x="159" y="448"/>
      <point x="49" y="315"/>
      <point x="49" y="149" type="curve" smooth="yes"/>
      <point x="49" y="45"/>
      <point x="117" y="-11"/>
    </contour>
    <contour>
      <point x="212" y="24" type="curve" smooth="yes"/>
      <point x="161" y="24"/>
      <point x="123" y="64"/>
      <point x="123" y="161" type="curve" smooth="yes"/>
      <point x="123" y="299"/>
      <point x="191" y="411"/>
      <point x="278" y="411" type="curve" smooth="yes"/>
      <point x="329" y="411"/>
      <point x="364" y="372"/>
      <point x="364" y="272" type="curve" smooth="yes"/>
      <point x="364" y="149"/>
      <point x="303" y="24"/>
    </contour>
    <contour>
      <point x="220" y="575" type="curve" smooth="yes"/>
      <point x="248" y="575"/>
      <point x="271" y="597"/>
      <point x="271" y="628" type="curve" smooth="yes"/>
      <point x="271" y="651"/>
      <point x="253" y="668"/>
      <point x="230" y="668" type="curve" smooth="yes"/>
      <point x="204" y="668"/>
      <point x="179" y="647"/>
      <point x="179" y="616" type="curve" smooth="yes"/>
      <point x="179" y="590"/>
      <point x="198" y="575"/>
    </contour>
    <contour>
      <point x="398" y="575" type="curve" smooth="yes"/>
      <point x="425" y="575"/>
      <point x="448" y="597"/>
      <point x="448" y="628" type="curve" smooth="yes"/>
      <point x="448" y="651"/>
      <point x="431" y="668"/>
      <point x="407" y="668" type="curve" smooth="yes"/>
      <point x="382" y="668"/>
      <point x="357" y="647"/>
      <point x="357" y="616" type="curve" smooth="yes"/>
      <point x="357" y="590"/>
      <point x="377" y="575"/>
    </contour>
  </outline>
</glyph>
<glyph name="scaron" format="2">
  <advance width="329"/>
  <unicode hex="0161"/>
  <anchor x="288" y="681" name="aboveLC"/>
  <anchor x="146" y="0" name="baseLC"/>
  <anchor x="142" y="-20" name="belowLC"/>
  <outline>
    <contour>
      <point x="126" y="0" type="line"/>
      <point x="110" y="64" type="line" smooth="yes"/>
      <point x="103" y="89"/>
      <point x="92" y="103"/>
      <point x="67" y="103" type="curve" smooth="yes"/>
      <point x="52" y="103"/>
      <point x="37" y="93"/>
      <point x="33" y="79" type="curve"/>
      <point x="39" y="23"/>
      <point x="75" y="-11"/>
      <point x="146" y="-11" type="curve" smooth="yes"/>
      <point x="238" y="-11"/>
      <point x="300" y="42"/>
      <point x="300" y="118" type="curve" smooth="yes"/>
      <point x="300" y="172"/>
      <point x="281" y="199"/>
      <point x="226" y="241" type="curve" smooth="yes"/>
      <point x="173" y="279"/>
      <point x="159" y="297"/>
      <point x="159" y="335" type="curve" smooth="yes"/>
      <point x="159" y="378"/>
      <point x="183" y="412"/>
      <point x="246" y="412" type="curve" smooth="yes"/>
      <point x="261" y="412"/>
      <point x="270" y="410"/>
      <point x="279" y="407" type="curve"/>
      <point x="252" y="436" type="line"/>
      <point x="268" y="384" type="line" smooth="yes"/>
      <point x="277" y="356"/>
      <point x="293" y="342"/>
      <point x="314" y="342" type="curve" smooth="yes"/>
      <point x="331" y="342"/>
      <point x="344" y="349"/>
      <point x="349" y="367" type="curve"/>
      <point x="335" y="426"/>
      <point x="294" y="448"/>
      <point x="240" y="448" type="curve" smooth="yes"/>
      <point x="152" y="448"/>
      <point x="94" y="391"/>
      <point x="94" y="319" type="curve" smooth="yes"/>
      <point x="94" y="261"/>
      <point x="129" y="228"/>
      <point x="175" y="194" type="curve" smooth="yes"/>
      <point x="228" y="156"/>
      <point x="235" y="132"/>
      <point x="235" y="102" type="curve" smooth="yes"/>
      <point x="235" y="54"/>
      <point x="197" y="23"/>
      <point x="133" y="23" type="curve" smooth="yes"/>
      <point x="117" y="23"/>
      <point x="110" y="25"/>
      <point x="91" y="32" type="curve"/>
    </contour>
    <contour>
      <point x="171" y="690" type="line"/>
      <point x="146" y="673" type="line"/>
      <point x="235" y="509" type="line"/>
      <point x="264" y="509" type="line"/>
      <point x="409" y="673" type="line"/>
      <point x="391" y="690" type="line"/>
      <point x="235" y="563" type="line"/>
      <point x="275" y="563" type="line"/>
    </contour>
  </outline>
</glyph>
<glyph name="Ydieresis" format="2">
  <advance width="508"/>
  <unicode hex="0178"/>
  <anchor x="387" y="792" name="aboveUC"/>
  <anchor x="230" y="-20" name="belowLC"/>
  <outline>
    <contour>
      <point x="57" y="579" type="line"/>
      <point x="168" y="565" type="line"/>
      <point x="185" y="565" type="line"/>
      <point x="299" y="579" type="line"/>
      <point x="307" y="616" type="line"/>
      <point x="64" y="616" type="line"/>
    </contour>
    <contour>
      <point x="103" y="0" type="line"/>
      <point x="364" y="0" type="line"/>
      <point x="371" y="36" type="line"/>
      <point x="253" y="50" type="line"/>
      <point x="236" y="50" type="line"/>
      <point x="110" y="36" type="line"/>
    </contour>
    <contour>
      <point x="249" y="230" type="line"/>
      <point x="297" y="230" type="line"/>
      <point x="552" y="616" type="line"/>
      <point x="506" y="616" type="line"/>
      <point x="294" y="288" type="line"/>
      <point x="307" y="288" type="line"/>
      <point x="204" y="616" type="line"/>
      <point x="114" y="616" type="line"/>
    </contour>
    <contour>
      <point x="190" y="0" type="line"/>
      <point x="271" y="0" type="line"/>
      <point x="286" y="94"/>
      <point x="302" y="190"/>
      <point x="320" y="285" type="curve"/>
      <point x="244" y="285" type="line"/>
    </contour>
    <contour>
      <point x="396" y="579" type="line"/>
      <point x="489" y="565" type="line"/>
      <point x="506" y="565" type="line"/>
      <point x="602" y="579" type="line"/>
      <point x="609" y="616" type="line"/>
      <point x="403" y="616" type="line"/>
    </contour>
    <contour>
      <point x="265" y="689" type="curve" smooth="yes"/>
      <point x="293" y="689"/>
      <point x="316" y="711"/>
      <point x="316" y="742" type="curve" smooth="yes"/>
      <point x="316" y="765"/>
      <point x="299" y="782"/>
      <point x="275" y="782" type="curve" smooth="yes"/>
      <point x="249" y="782"/>
      <point x="224" y="761"/>
      <point x="224" y="730" type="curve" smooth="yes"/>
      <point x="224" y="704"/>
      <point x="243" y="689"/>
    </contour>
    <contour>
      <point x="466" y="689" type="curve" smooth="yes"/>
      <point x="494" y="689"/>
      <point x="517" y="711"/>
      <point x="517" y="742" type="curve" smooth="yes"/>
      <point x="517" y="765"/>
      <point x="500" y="782"/>
      <point x="476" y="782" type="curve" smooth="yes"/>
      <point x="450" y="782"/>
      <point x="426" y="761"/>
      <point x="426" y="730" type="curve" smooth="yes"/>
      <point x="426" y="704"/>
      <point x="446" y="689"/>
    </contour>
  </outline>
</glyph>
<glyph name="Zcaron" format="2">
  <advance width="494"/>
  <unicode hex="017D"/>
  <anchor x="369" y="788" name="aboveUC"/>
  <anchor x="238" y="-20" name="belowLC"/>
  <outline>
    <contour>
      <point x="0" y="0" type="line"/>
      <point x="67" y="0" type="line"/>
      <point x="535" y="584" type="line"/>
      <point x="541" y="616" type="line"/>
      <point x="474" y="616" type="line"/>
      <point x="7" y="32" type="line"/>
    </contour>
    <contour>
      <point x="81" y="452" type="line"/>
      <point x="135" y="452" type="line"/>
      <point x="193" y="616" type="line"/>
      <point x="136" y="570" type="line"/>
      <point x="499" y="570" type="line"/>
      <point x="508" y="616" type="line"/>
      <point x="113" y="616" type="line"/>
    </contour>
    <contour>
      <point x="44" y="0" type="line"/>
      <point x="445" y="0" type="line"/>
      <point x="477" y="163" type="line"/>
      <point x="423" y="163" type="line"/>
      <point x="366" y="0" type="line"/>
      <point x="422" y="46" type="line"/>
      <point x="52" y="46" type="line"/>
    </contour>
    <contour>
      <point x="258" y="797" type="line"/>
      <point x="233" y="779" type="line"/>
      <point x="323" y="671" type="line"/>
      <point x="373" y="671" type="line"/>
      <point x="494" y="779" type="line"/>
      <point x="477" y="797" type="line"/>
      <point x="320" y="697" type="line"/>
      <point x="379" y="697" type="line"/>
    </contour>
  </outline>
</glyph>
<glyph name="uni02BC" format="2">
  <advance width="162"/>
  <unicode hex="02BC"/>
  <outline>
    <contour>
      <point x="68" y="285" type="line"/>
      <point x="156" y="322"/>
      <point x="229" y="404"/>
      <point x="229" y="490" type="curve" smooth="yes"/>
      <point x="229" y="506"/>
      <point x="225" y="517"/>
      <point x="219" y="527" type="curve"/>
      <point x="206" y="534"/>
      <point x="190" y="538"/>
      <point x="177" y="538" type="curve" smooth="yes"/>
      <point x="137" y="538"/>
      <point x="121" y="512"/>
      <point x="121" y="486" type="curve" smooth="yes"/>
      <point x="121" y="467"/>
      <point x="128" y="450"/>
      <point x="137" y="439" type="curve" smooth="yes"/>
      <point x="173" y="397" type="line"/>
      <point x="171" y="423" type="line"/>
      <point x="140" y="370"/>
      <point x="102" y="335"/>
      <point x="54" y="311" type="curve"/>
    </contour>
  </outline>
</glyph>
<glyph name="circumflex" format="2">
  <advance width="282"/>
  <unicode hex="02C6"/>
  <anchor x="196" y="465" name="_aboveLC"/>
  <anchor x="241" y="674" name="aboveLC"/>
  <outline>
    <contour>
      <point x="322" y="502" type="line"/>
      <point x="347" y="521" type="line"/>
      <point x="255" y="683" type="line"/>
      <point x="226" y="683" type="line"/>
      <point x="83" y="521" type="line"/>
      <point x="101" y="502" type="line"/>
      <point x="253" y="634" type="line"/>
      <point x="210" y="634" type="line"/>
    </contour>
  </outline>
</glyph>
<glyph name="uni02CD" format="2">
  <advance width="563"/>
  <unicode hex="02CD"/>
  <outline>
    <contour>
      <point x="3" y="48" type="curve" smooth="yes"/>
      <point x="-1" y="39"/>
      <point x="-2" y="32"/>
      <point x="-2" y="26" type="curve" smooth="yes"/>
      <point x="-2" y="14"/>
      <point x="4" y="8"/>
      <point x="9" y="7" type="curve" smooth="yes"/>
      <point x="17" y="5"/>
      <point x="25" y="5"/>
      <point x="28" y="5" type="curve" smooth="yes"/>
      <point x="69" y="5"/>
      <point x="127" y="7"/>
      <point x="209" y="7" type="curve" smooth="yes"/>
      <point x="244" y="7"/>
      <point x="328" y="5"/>
      <point x="365" y="5" type="curve" smooth="yes"/>
      <point x="369" y="5"/>
      <point x="387" y="5"/>
      <point x="393" y="8" type="curve" smooth="yes"/>
      <point x="409" y="16"/>
      <point x="416" y="43"/>
      <point x="416" y="56" type="curve" smooth="yes"/>
      <point x="416" y="68"/>
      <point x="412" y="76"/>
      <point x="405" y="78" type="curve" smooth="yes"/>
      <point x="402" y="79"/>
      <point x="389" y="79"/>
      <point x="383" y="79" type="curve" smooth="yes"/>
      <point x="338" y="79"/>
      <point x="240" y="76"/>
      <point x="194" y="76" type="curve" smooth="yes"/>
      <point x="135" y="76"/>
      <point x="96" y="78"/>
      <point x="41" y="78" type="curve" smooth="yes"/>
      <point x="23" y="78"/>
      <point x="13" y="74"/>
    </contour>
  </outline>
</glyph>
<glyph name="dotaccent" format="2">
  <advance width="368"/>
  <unicode hex="02D9"/>
  <anchor x="249" y="465" name="_aboveLC"/>
  <anchor x="287" y="649" name="aboveLC"/>
  <outline>
    <contour>
      <point x="281" y="576" type="curve" smooth="yes"/>
      <point x="308" y="576"/>
      <point x="332" y="603"/>
      <point x="332" y="632" type="curve" smooth="yes"/>
      <point x="332" y="662"/>
      <point x="312" y="681"/>
      <point x="285" y="681" type="curve" smooth="yes"/>
      <point x="258" y="681"/>
      <point x="234" y="655"/>
      <point x="234" y="625" type="curve" smooth="yes"/>
      <point x="234" y="596"/>
      <point x="253" y="576"/>
    </contour>
  </outline>
</glyph>
<glyph name="hungarumlaut" format="2">
  <advance width="368"/>
  <unicode hex="02DD"/>
  <anchor x="205" y="465" name="_aboveLC"/>
  <anchor x="253" y="691" name="aboveLC"/>
  <outline>
    <contour>
      <point x="127" y="528" type="line"/>
      <point x="149" y="511" type="line"/>
      <point x="253" y="609" type="line" smooth="yes"/>
      <point x="276" y="630"/>
      <point x="282" y="649"/>
      <point x="282" y="663" type="curve" smooth="yes"/>
      <point x="282" y="680"/>
      <point x="268" y="691"/>
      <point x="251" y="691" type="curve" smooth="yes"/>
      <point x="237" y="691"/>
      <point x="218" y="681"/>
      <point x="202" y="653" type="curve" smooth="yes"/>
    </contour>
    <contour>
      <point x="254" y="528" type="line"/>
      <point x="276" y="511" type="line"/>
      <point x="380" y="609" type="line" smooth="yes"/>
      <point x="402" y="630"/>
      <point x="409" y="649"/>
      <point x="409" y="663" type="curve" smooth="yes"/>
      <point x="409" y="680"/>
      <point x="395" y="691"/>
      <point x="378" y="691" type="curve" smooth="yes"/>
      <point x="364" y="691"/>
      <point x="345" y="681"/>
      <point x="329" y="653" type="curve" smooth="yes"/>
    </contour>
  </outline>
</glyph>
<glyph name="pi" format="2">
  <advance width="535"/>
  <unicode hex="03C0"/>
  <outline>
    <contour>
      <point x="71" y="-11" type="curve" smooth="yes"/>
      <point x="121" y="-11"/>
      <point x="156" y="24"/>
      <point x="176" y="96" type="curve" smooth="yes"/>
      <point x="196" y="168"/>
      <point x="208" y="218"/>
      <point x="248" y="406" type="curve"/>
      <point x="211" y="407" type="line"/>
      <point x="187" y="287"/>
      <point x="155" y="168"/>
      <point x="118" y="49" type="curve"/>
      <point x="144" y="64" type="line"/>
      <point x="154" y="86" type="line"/>
      <point x="119" y="85"/>
      <point x="83" y="80"/>
      <point x="54" y="74" type="curve"/>
      <point x="40" y="65"/>
      <point x="23" y="49"/>
      <point x="23" y="26" type="curve" smooth="yes"/>
      <point x="23" y="0"/>
      <point x="42" y="-11"/>
    </contour>
    <contour>
      <point x="388" y="-11" type="curve" smooth="yes"/>
      <point x="424" y="-11"/>
      <point x="460" y="10"/>
      <point x="496" y="55" type="curve"/>
      <point x="482" y="76" type="line"/>
      <point x="461" y="59"/>
      <point x="442" y="49"/>
      <point x="425" y="49" type="curve" smooth="yes"/>
      <point x="405" y="49"/>
      <point x="397" y="61"/>
      <point x="397" y="89" type="curve" smooth="yes"/>
      <point x="397" y="119"/>
      <point x="400" y="139"/>
      <point x="448" y="406" type="curve"/>
      <point x="402" y="406" type="line"/>
      <point x="330" y="144"/>
      <point x="322" y="86"/>
      <point x="322" y="56" type="curve" smooth="yes"/>
      <point x="322" y="13"/>
      <point x="347" y="-11"/>
    </contour>
    <contour>
      <point x="73" y="356" type="line"/>
      <point x="216" y="377" type="line"/>
      <point x="419" y="377" type="line"/>
      <point x="552" y="372" type="line"/>
      <point x="561" y="436" type="line"/>
      <point x="247" y="436" type="line" smooth="yes"/>
      <point x="158" y="436"/>
      <point x="125" y="423"/>
      <point x="73" y="388" type="curve"/>
    </contour>
  </outline>
</glyph>
<glyph name="ellipsis" format="2">
  <advance width="828"/>
  <unicode hex="2026"/>
  <outline>
    <contour>
      <point x="112" y="-9" type="curve" smooth="yes"/>
      <point x="147" y="-9"/>
      <point x="175" y="17"/>
      <point x="175" y="53" type="curve" smooth="yes"/>
      <point x="175" y="81"/>
      <point x="154" y="105"/>
      <point x="123" y="105" type="curve" smooth="yes"/>
      <point x="88" y="105"/>
      <point x="57" y="79"/>
      <point x="57" y="43" type="curve" smooth="yes"/>
      <point x="57" y="12"/>
      <point x="80" y="-9"/>
    </contour>
    <contour>
      <point x="388" y="-9" type="curve" smooth="yes"/>
      <point x="423" y="-9"/>
      <point x="451" y="17"/>
      <point x="451" y="53" type="curve" smooth="yes"/>
      <point x="451" y="81"/>
      <point x="430" y="105"/>
      <point x="399" y="105" type="curve" smooth="yes"/>
      <point x="364" y="105"/>
      <point x="333" y="79"/>
      <point x="333" y="43" type="curve" smooth="yes"/>
      <point x="333" y="12"/>
      <point x="356" y="-9"/>
    </contour>
    <contour>
      <point x="664" y="-9" type="curve" smooth="yes"/>
      <point x="699" y="-9"/>
      <point x="727" y="17"/>
      <point x="727" y="53" type="curve" smooth="yes"/>
      <point x="727" y="81"/>
      <point x="706" y="105"/>
      <point x="675" y="105" type="curve" smooth="yes"/>
      <point x="640" y="105"/>
      <point x="609" y="79"/>
      <point x="609" y="43" type="curve" smooth="yes"/>
      <point x="609" y="12"/>
      <point x="632" y="-9"/>
    </contour>
  </outline>
</glyph>
<glyph name="product" format="2">
  <advance width="722"/>
  <unicode hex="220F"/>
  <outline>
    <contour>
      <point x="592" y="569" type="line"/>
      <point x="592" y="616" type="line"/>
      <point x="201" y="616" type="line"/>
      <point x="201" y="569" type="line"/>
    </contour>
    <contour>
      <point x="192" y="-69" type="line"/>
      <point x="72" y="-82" type="line"/>
      <point x="72" y="-119" type="line"/>
      <point x="330" y="-119" type="line"/>
      <point x="330" y="-82" type="line"/>
      <point x="210" y="-69" type="line"/>
    </contour>
    <contour>
      <point x="163" y="165" type="line" smooth="yes"/>
      <point x="163" y="69"/>
      <point x="163" y="-26"/>
      <point x="161" y="-119" type="curve"/>
      <point x="241" y="-119" type="line"/>
      <point x="239" y="-24"/>
      <point x="239" y="70"/>
      <point x="239" y="165" type="curve" smooth="yes"/>
      <point x="239" y="331" type="line" smooth="yes"/>
      <point x="239" y="427"/>
      <point x="239" y="523"/>
      <point x="241" y="616" type="curve"/>
      <point x="161" y="616" type="line"/>
      <point x="163" y="521"/>
      <point x="163" y="425"/>
      <point x="163" y="331" type="curve" smooth="yes"/>
    </contour>
    <contour>
      <point x="583" y="565" type="line"/>
      <point x="592" y="565" type="line"/>
      <point x="712" y="579" type="line"/>
      <point x="712" y="616" type="line"/>
      <point x="583" y="616" type="line"/>
    </contour>
    <contour>
      <point x="545" y="165" type="line" smooth="yes"/>
      <point x="545" y="69"/>
      <point x="545" y="-26"/>
      <point x="542" y="-119" type="curve"/>
      <point x="623" y="-119" type="line"/>
      <point x="621" y="-24"/>
      <point x="621" y="70"/>
      <point x="621" y="165" type="curve" smooth="yes"/>
      <point x="621" y="331" type="line" smooth="yes"/>
      <point x="621" y="427"/>
      <point x="621" y="523"/>
      <point x="623" y="616" type="curve"/>
      <point x="542" y="616" type="line"/>
      <point x="545" y="521"/>
      <point x="545" y="425"/>
      <point x="545" y="331" type="curve" smooth="yes"/>
    </contour>
    <contour>
      <point x="574" y="-69" type="line"/>
      <point x="454" y="-82" type="line"/>
      <point x="454" y="-119" type="line"/>
      <point x="712" y="-119" type="line"/>
      <point x="712" y="-82" type="line"/>
      <point x="592" y="-69" type="line"/>
    </contour>
    <contour>
      <point x="192" y="565" type="line"/>
      <point x="201" y="565" type="line"/>
      <point x="201" y="616" type="line"/>
      <point x="72" y="616" type="line"/>
      <point x="72" y="579" type="line"/>
    </contour>
  </outline>
</glyph>
<glyph name="uniA4D0" format="2">
  <advance width="496"/>
  <unicode hex="A4D0"/>
  <outline>
    <contour>
      <point x="232" y="247" type="curve" smooth="yes"/>
      <point x="398" y="247"/>
      <point x="482" y="312"/>
      <point x="482" y="401" type="curve" smooth="yes"/>
      <point x="482" y="473"/>
      <point x="417" y="538"/>
      <point x="277" y="538" type="curve" smooth="yes"/>
      <point x="205" y="538"/>
      <point x="149" y="518"/>
      <point x="116" y="500" type="curve" smooth="yes"/>
      <point x="104" y="493"/>
      <point x="97" y="487"/>
      <point x="97" y="476" type="curve" smooth="yes"/>
      <point x="97" y="466"/>
      <point x="100" y="459"/>
      <point x="104" y="452" type="curve" smooth="yes"/>
      <point x="108" y="445"/>
      <point x="117" y="442"/>
      <point x="123" y="442" type="curve" smooth="yes"/>
      <point x="128" y="442"/>
      <point x="134" y="443"/>
      <point x="140" y="446" type="curve" smooth="yes"/>
      <point x="161" y="457"/>
      <point x="216" y="485"/>
      <point x="261" y="485" type="curve" smooth="yes"/>
      <point x="377" y="485"/>
      <point x="421" y="450"/>
      <point x="421" y="395" type="curve" smooth="yes"/>
      <point x="421" y="334"/>
      <point x="361" y="295"/>
      <point x="255" y="295" type="curve" smooth="yes"/>
      <point x="227" y="295"/>
      <point x="196" y="296"/>
      <point x="170" y="299" type="curve"/>
      <point x="149" y="251" type="line"/>
      <point x="169" y="248"/>
      <point x="194" y="247"/>
    </contour>
    <contour>
      <point x="88" y="22" type="curve" smooth="yes"/>
      <point x="102" y="22"/>
      <point x="112" y="30"/>
      <point x="118" y="47" type="curve" smooth="yes"/>
      <point x="124" y="63"/>
      <point x="130" y="79"/>
      <point x="138" y="104" type="curve" smooth="yes"/>
      <point x="161" y="177"/>
      <point x="191" y="270"/>
      <point x="227" y="366" type="curve" smooth="yes"/>
      <point x="243" y="409"/>
      <point x="247" y="421"/>
      <point x="259" y="453" type="curve" smooth="yes"/>
      <point x="263" y="463"/>
      <point x="265" y="471"/>
      <point x="265" y="477" type="curve" smooth="yes"/>
      <point x="265" y="486"/>
      <point x="248" y="497"/>
      <point x="235" y="497" type="curve" smooth="yes"/>
      <point x="219" y="497"/>
      <point x="215" y="494"/>
      <point x="209" y="487" type="curve" smooth="yes"/>
      <point x="205" y="483"/>
      <point x="202" y="475"/>
      <point x="196" y="459" type="curve" smooth="yes"/>
      <point x="191" y="445"/>
      <point x="185" y="427"/>
      <point x="177" y="403" type="curve" smooth="yes"/>
      <point x="147" y="313"/>
      <point x="117" y="229"/>
      <point x="85" y="140" type="curve" smooth="yes"/>
      <point x="72" y="104"/>
      <point x="68" y="89"/>
      <point x="58" y="61" type="curve" smooth="yes"/>
      <point x="56" y="56"/>
      <point x="55" y="49"/>
      <point x="55" y="42" type="curve" smooth="yes"/>
      <point x="55" y="35"/>
      <point x="60" y="22"/>
    </contour>
    <contour>
      <point x="177" y="245" type="curve" smooth="yes"/>
      <point x="312" y="245"/>
      <point x="375" y="208"/>
      <point x="375" y="149" type="curve" smooth="yes"/>
      <point x="375" y="72"/>
      <point x="277" y="43"/>
      <point x="188" y="43" type="curve" smooth="yes"/>
      <point x="139" y="43"/>
      <point x="81" y="53"/>
      <point x="31" y="70" type="curve" smooth="yes"/>
      <point x="22" y="73"/>
      <point x="15" y="74"/>
      <point x="9" y="74" type="curve" smooth="yes"/>
      <point x="3" y="74"/>
      <point x="-6" y="70"/>
      <point x="-10" y="64" type="curve" smooth="yes"/>
      <point x="-16" y="56"/>
      <point x="-19" y="48"/>
      <point x="-19" y="38" type="curve" smooth="yes"/>
      <point x="-19" y="28"/>
      <point x="-15" y="22"/>
      <point x="-1" y="17" type="curve" smooth="yes"/>
      <point x="52" y="-1"/>
      <point x="109" y="-10"/>
      <point x="179" y="-10" type="curve" smooth="yes"/>
      <point x="322" y="-10"/>
      <point x="436" y="38"/>
      <point x="436" y="153" type="curve" smooth="yes"/>
      <point x="436" y="220"/>
      <point x="349" y="290"/>
      <point x="203" y="290" type="curve" smooth="yes"/>
      <point x="184" y="290"/>
      <point x="170" y="290"/>
      <point x="156" y="290" type="curve"/>
      <point x="134" y="244" type="line"/>
      <point x="148" y="245"/>
      <point x="165" y="245"/>
    </contour>
  </outline>
</glyph>
<glyph name="uniA4D1" format="2">
  <advance width="489"/>
  <unicode hex="A4D1"/>
  <outline>
    <contour>
      <point x="256" y="208" type="curve" smooth="yes"/>
      <point x="398" y="208"/>
      <point x="510" y="266"/>
      <point x="510" y="389" type="curve" smooth="yes"/>
      <point x="510" y="474"/>
      <point x="436" y="538"/>
      <point x="292" y="538" type="curve" smooth="yes"/>
      <point x="226" y="538"/>
      <point x="168" y="520"/>
      <point x="131" y="500" type="curve" smooth="yes"/>
      <point x="119" y="493"/>
      <point x="112" y="488"/>
      <point x="112" y="477" type="curve" smooth="yes"/>
      <point x="112" y="466"/>
      <point x="115" y="454"/>
      <point x="121" y="445" type="curve" smooth="yes"/>
      <point x="125" y="439"/>
      <point x="132" y="437"/>
      <point x="138" y="437" type="curve" smooth="yes"/>
      <point x="143" y="437"/>
      <point x="149" y="438"/>
      <point x="155" y="441" type="curve" smooth="yes"/>
      <point x="173" y="450"/>
      <point x="227" y="476"/>
      <point x="276" y="476" type="curve" smooth="yes"/>
      <point x="386" y="476"/>
      <point x="440" y="441"/>
      <point x="440" y="381" type="curve" smooth="yes"/>
      <point x="440" y="310"/>
      <point x="360" y="270"/>
      <point x="263" y="270" type="curve" smooth="yes"/>
      <point x="237" y="270"/>
      <point x="193" y="274"/>
      <point x="169" y="281" type="curve"/>
      <point x="147" y="222" type="line"/>
      <point x="175" y="214"/>
      <point x="232" y="208"/>
    </contour>
    <contour>
      <point x="250" y="366" type="curve" smooth="yes"/>
      <point x="266" y="409"/>
      <point x="265" y="405"/>
      <point x="278" y="440" type="curve" smooth="yes"/>
      <point x="283" y="453"/>
      <point x="284" y="459"/>
      <point x="284" y="465" type="curve" smooth="yes"/>
      <point x="284" y="474"/>
      <point x="268" y="485"/>
      <point x="247" y="485" type="curve" smooth="yes"/>
      <point x="229" y="485"/>
      <point x="222" y="482"/>
      <point x="216" y="475" type="curve" smooth="yes"/>
      <point x="212" y="471"/>
      <point x="209" y="463"/>
      <point x="207" y="456" type="curve" smooth="yes"/>
      <point x="199" y="433"/>
      <point x="197" y="427"/>
      <point x="189" y="403" type="curve" smooth="yes"/>
      <point x="159" y="313"/>
      <point x="130" y="229"/>
      <point x="98" y="140" type="curve" smooth="yes"/>
      <point x="85" y="104"/>
      <point x="71" y="68"/>
      <point x="58" y="30" type="curve" smooth="yes"/>
      <point x="56" y="24"/>
      <point x="54" y="18"/>
      <point x="54" y="11" type="curve" smooth="yes"/>
      <point x="54" y="3"/>
      <point x="61" y="-9"/>
      <point x="90" y="-9" type="curve" smooth="yes"/>
      <point x="119" y="-9"/>
      <point x="130" y="0"/>
      <point x="135" y="17" type="curve" smooth="yes"/>
      <point x="140" y="33"/>
      <point x="149" y="66"/>
      <point x="161" y="104" type="curve" smooth="yes"/>
      <point x="184" y="177"/>
      <point x="214" y="270"/>
    </contour>
  </outline>
</glyph>
<glyph name="uniA4D3" format="2">
  <advance width="534"/>
  <unicode hex="A4D3"/>
  <outline>
    <contour>
      <point x="183" y="-10" type="curve" smooth="yes"/>
      <point x="391" y="-10"/>
      <point x="517" y="140"/>
      <point x="517" y="331" type="curve" smooth="yes"/>
      <point x="517" y="460"/>
      <point x="412" y="538"/>
      <point x="281" y="538" type="curve" smooth="yes"/>
      <point x="215" y="538"/>
      <point x="153" y="520"/>
      <point x="116" y="500" type="curve" smooth="yes"/>
      <point x="104" y="493"/>
      <point x="97" y="487"/>
      <point x="97" y="476" type="curve" smooth="yes"/>
      <point x="97" y="466"/>
      <point x="100" y="459"/>
      <point x="104" y="452" type="curve" smooth="yes"/>
      <point x="108" y="445"/>
      <point x="117" y="442"/>
      <point x="123" y="442" type="curve" smooth="yes"/>
      <point x="128" y="442"/>
      <point x="134" y="443"/>
      <point x="140" y="446" type="curve" smooth="yes"/>
      <point x="161" y="457"/>
      <point x="216" y="485"/>
      <point x="265" y="485" type="curve" smooth="yes"/>
      <point x="373" y="485"/>
      <point x="456" y="432"/>
      <point x="456" y="322" type="curve" smooth="yes"/>
      <point x="456" y="173"/>
      <point x="348" y="43"/>
      <point x="192" y="43" type="curve" smooth="yes"/>
      <point x="139" y="43"/>
      <point x="81" y="53"/>
      <point x="31" y="70" type="curve" smooth="yes"/>
      <point x="22" y="73"/>
      <point x="15" y="74"/>
      <point x="9" y="74" type="curve" smooth="yes"/>
      <point x="3" y="74"/>
      <point x="-6" y="70"/>
      <point x="-10" y="64" type="curve" smooth="yes"/>
      <point x="-16" y="56"/>
      <point x="-19" y="49"/>
      <point x="-19" y="36" type="curve" smooth="yes"/>
      <point x="-19" y="28"/>
      <point x="-15" y="22"/>
      <point x="-1" y="17" type="curve" smooth="yes"/>
      <point x="52" y="-1"/>
      <point x="109" y="-10"/>
    </contour>
    <contour>
      <point x="88" y="22" type="curve" smooth="yes"/>
      <point x="102" y="22"/>
      <point x="113" y="30"/>
      <point x="119" y="47" type="curve" smooth="yes"/>
      <point x="125" y="63"/>
      <point x="130" y="79"/>
      <point x="139" y="104" type="curve" smooth="yes"/>
      <point x="164" y="177"/>
      <point x="192" y="270"/>
      <point x="228" y="366" type="curve" smooth="yes"/>
      <point x="244" y="409"/>
      <point x="248" y="421"/>
      <point x="260" y="453" type="curve" smooth="yes"/>
      <point x="264" y="463"/>
      <point x="267" y="471"/>
      <point x="267" y="477" type="curve" smooth="yes"/>
      <point x="267" y="486"/>
      <point x="252" y="497"/>
      <point x="240" y="497" type="curve" smooth="yes"/>
      <point x="224" y="497"/>
      <point x="215" y="494"/>
      <point x="209" y="487" type="curve" smooth="yes"/>
      <point x="205" y="483"/>
      <point x="197" y="463"/>
      <point x="195" y="456" type="curve" smooth="yes"/>
      <point x="187" y="433"/>
      <point x="185" y="427"/>
      <point x="177" y="403" type="curve" smooth="yes"/>
      <point x="146" y="313"/>
      <point x="117" y="229"/>
      <point x="85" y="140" type="curve" smooth="yes"/>
      <point x="72" y="104"/>
      <point x="67" y="89"/>
      <point x="57" y="61" type="curve" smooth="yes"/>
      <point x="55" y="56"/>
      <point x="54" y="49"/>
      <point x="54" y="42" type="curve" smooth="yes"/>
      <point x="54" y="35"/>
      <point x="59" y="22"/>
    </contour>
  </outline>
</glyph>
<glyph name="uniA4D4" format="2">
  <advance width="521"/>
  <unicode hex="A4D4"/>
  <outline>
    <contour>
      <point x="100" y="489" type="curve" smooth="yes"/>
      <point x="107" y="478"/>
      <point x="118" y="474"/>
      <point x="146" y="474" type="curve" smooth="yes"/>
      <point x="186" y="474"/>
      <point x="291" y="476"/>
      <point x="350" y="476" type="curve" smooth="yes"/>
      <point x="420" y="476"/>
      <point x="533" y="475"/>
      <point x="554" y="475" type="curve" smooth="yes"/>
      <point x="570" y="475"/>
      <point x="589" y="476"/>
      <point x="593" y="478" type="curve" smooth="yes"/>
      <point x="597" y="480"/>
      <point x="601" y="485"/>
      <point x="601" y="496" type="curve" smooth="yes"/>
      <point x="601" y="505"/>
      <point x="599" y="511"/>
      <point x="594" y="518" type="curve" smooth="yes"/>
      <point x="590" y="523"/>
      <point x="586" y="527"/>
      <point x="580" y="529" type="curve" smooth="yes"/>
      <point x="572" y="532"/>
      <point x="554" y="533"/>
      <point x="540" y="533" type="curve" smooth="yes"/>
      <point x="513" y="533"/>
      <point x="399" y="532"/>
      <point x="365" y="532" type="curve" smooth="yes"/>
      <point x="285" y="532"/>
      <point x="144" y="532"/>
      <point x="127" y="532" type="curve" smooth="yes"/>
      <point x="113" y="532"/>
      <point x="105" y="531"/>
      <point x="101" y="528" type="curve" smooth="yes"/>
      <point x="97" y="525"/>
      <point x="93" y="521"/>
      <point x="93" y="512" type="curve" smooth="yes"/>
      <point x="93" y="503"/>
      <point x="96" y="495"/>
    </contour>
    <contour>
      <point x="180" y="-9" type="curve" smooth="yes"/>
      <point x="205" y="-9"/>
      <point x="216" y="0"/>
      <point x="221" y="17" type="curve" smooth="yes"/>
      <point x="226" y="33"/>
      <point x="235" y="66"/>
      <point x="247" y="104" type="curve" smooth="yes"/>
      <point x="270" y="177"/>
      <point x="300" y="270"/>
      <point x="336" y="366" type="curve" smooth="yes"/>
      <point x="352" y="409"/>
      <point x="372" y="453"/>
      <point x="383" y="487" type="curve" smooth="yes"/>
      <point x="388" y="502"/>
      <point x="389" y="506"/>
      <point x="389" y="508" type="curve" smooth="yes"/>
      <point x="389" y="519"/>
      <point x="373" y="530"/>
      <point x="354" y="530" type="curve" smooth="yes"/>
      <point x="340" y="530"/>
      <point x="331" y="527"/>
      <point x="326" y="520" type="curve" smooth="yes"/>
      <point x="322" y="515"/>
      <point x="318" y="507"/>
      <point x="313" y="494" type="curve" smooth="yes"/>
      <point x="303" y="470"/>
      <point x="294" y="436"/>
      <point x="283" y="403" type="curve" smooth="yes"/>
      <point x="253" y="313"/>
      <point x="224" y="229"/>
      <point x="192" y="140" type="curve" smooth="yes"/>
      <point x="179" y="104"/>
      <point x="165" y="68"/>
      <point x="155" y="39" type="curve" smooth="yes"/>
      <point x="150" y="24"/>
      <point x="148" y="18"/>
      <point x="148" y="11" type="curve" smooth="yes"/>
      <point x="148" y="3"/>
      <point x="155" y="-9"/>
    </contour>
  </outline>
</glyph>
<glyph name="uniA4D5" format="2">
  <advance width="520"/>
  <unicode hex="A4D5"/>
  <outline>
    <contour>
      <point x="344" y="-4" type="curve" smooth="yes"/>
      <point x="381" y="-4"/>
      <point x="394" y="-6"/>
      <point x="432" y="-6" type="curve" smooth="yes"/>
      <point x="442" y="-6"/>
      <point x="452" y="0"/>
      <point x="452" y="14" type="curve" smooth="yes"/>
      <point x="452" y="22"/>
      <point x="448" y="33"/>
      <point x="442" y="38" type="curve" smooth="yes"/>
      <point x="434" y="45"/>
      <point x="423" y="48"/>
      <point x="408" y="50" type="curve" smooth="yes"/>
      <point x="382" y="53"/>
      <point x="368" y="54"/>
      <point x="318" y="54" type="curve" smooth="yes"/>
      <point x="275" y="54"/>
      <point x="61" y="50"/>
      <point x="34" y="50" type="curve" smooth="yes"/>
      <point x="18" y="50"/>
      <point x="1" y="51"/>
      <point x="-14" y="51" type="curve" smooth="yes"/>
      <point x="-26" y="51"/>
      <point x="-36" y="50"/>
      <point x="-42" y="46" type="curve" smooth="yes"/>
      <point x="-48" y="42"/>
      <point x="-52" y="34"/>
      <point x="-52" y="28" type="curve" smooth="yes"/>
      <point x="-52" y="6"/>
      <point x="-25" y="-8"/>
      <point x="17" y="-8" type="curve" smooth="yes"/>
      <point x="79" y="-8"/>
      <point x="280" y="-4"/>
    </contour>
    <contour>
      <point x="195" y="-2" type="curve" smooth="yes"/>
      <point x="220" y="-2"/>
      <point x="231" y="7"/>
      <point x="236" y="24" type="curve" smooth="yes"/>
      <point x="241" y="40"/>
      <point x="250" y="68"/>
      <point x="262" y="106" type="curve" smooth="yes"/>
      <point x="285" y="179"/>
      <point x="315" y="272"/>
      <point x="351" y="368" type="curve" smooth="yes"/>
      <point x="367" y="411"/>
      <point x="387" y="455"/>
      <point x="401" y="498" type="curve" smooth="yes"/>
      <point x="403" y="504"/>
      <point x="404" y="508"/>
      <point x="404" y="510" type="curve" smooth="yes"/>
      <point x="404" y="521"/>
      <point x="388" y="532"/>
      <point x="369" y="532" type="curve" smooth="yes"/>
      <point x="355" y="532"/>
      <point x="346" y="529"/>
      <point x="341" y="522" type="curve" smooth="yes"/>
      <point x="337" y="517"/>
      <point x="333" y="510"/>
      <point x="331" y="505" type="curve" smooth="yes"/>
      <point x="318" y="472"/>
      <point x="309" y="438"/>
      <point x="298" y="405" type="curve" smooth="yes"/>
      <point x="268" y="315"/>
      <point x="239" y="231"/>
      <point x="207" y="142" type="curve" smooth="yes"/>
      <point x="194" y="106"/>
      <point x="180" y="70"/>
      <point x="167" y="32" type="curve" smooth="yes"/>
      <point x="166" y="29"/>
      <point x="163" y="20"/>
      <point x="163" y="15" type="curve" smooth="yes"/>
      <point x="163" y="10"/>
      <point x="170" y="-2"/>
    </contour>
  </outline>
</glyph>
<glyph name="uniA4D6" format="2">
  <advance width="511"/>
  <unicode hex="A4D6"/>
  <outline>
    <contour>
      <point x="344" y="538" type="curve" smooth="yes"/>
      <point x="167" y="538"/>
      <point x="54" y="340"/>
      <point x="54" y="171" type="curve" smooth="yes"/>
      <point x="54" y="68"/>
      <point x="113" y="-10"/>
      <point x="218" y="-10" type="curve" smooth="yes"/>
      <point x="328" y="-10"/>
      <point x="407" y="94"/>
      <point x="426" y="152" type="curve" smooth="yes"/>
      <point x="433" y="172"/>
      <point x="434" y="180"/>
      <point x="434" y="191" type="curve" smooth="yes"/>
      <point x="434" y="208"/>
      <point x="421" y="212"/>
      <point x="400" y="212" type="curve" smooth="yes"/>
      <point x="385" y="212"/>
      <point x="379" y="211"/>
      <point x="374" y="200" type="curve" smooth="yes"/>
      <point x="371" y="193"/>
      <point x="367" y="177"/>
      <point x="361" y="160" type="curve" smooth="yes"/>
      <point x="346" y="118"/>
      <point x="286" y="50"/>
      <point x="226" y="50" type="curve" smooth="yes"/>
      <point x="152" y="50"/>
      <point x="115" y="104"/>
      <point x="115" y="182" type="curve" smooth="yes"/>
      <point x="115" y="317"/>
      <point x="220" y="478"/>
      <point x="331" y="478" type="curve" smooth="yes"/>
      <point x="389" y="478"/>
      <point x="412" y="435"/>
      <point x="420" y="417" type="curve" smooth="yes"/>
      <point x="428" y="400"/>
      <point x="434" y="396"/>
      <point x="442" y="396" type="curve" smooth="yes"/>
      <point x="457" y="396"/>
      <point x="487" y="414"/>
      <point x="487" y="430" type="curve" smooth="yes"/>
      <point x="487" y="441"/>
      <point x="472" y="472"/>
      <point x="453" y="492" type="curve" smooth="yes"/>
      <point x="432" y="514"/>
      <point x="394" y="538"/>
    </contour>
    <contour>
      <point x="489" y="201" type="curve" smooth="yes"/>
      <point x="495" y="210"/>
      <point x="497" y="216"/>
      <point x="497" y="227" type="curve" smooth="yes"/>
      <point x="497" y="239"/>
      <point x="490" y="243"/>
      <point x="472" y="243" type="curve" smooth="yes"/>
      <point x="441" y="243"/>
      <point x="427" y="242"/>
      <point x="387" y="242" type="curve" smooth="yes"/>
      <point x="368" y="242"/>
      <point x="363" y="243"/>
      <point x="337" y="243" type="curve" smooth="yes"/>
      <point x="322" y="243"/>
      <point x="311" y="241"/>
      <point x="306" y="238" type="curve" smooth="yes"/>
      <point x="300" y="235"/>
      <point x="295" y="230"/>
      <point x="291" y="223" type="curve" smooth="yes"/>
      <point x="288" y="218"/>
      <point x="284" y="209"/>
      <point x="284" y="204" type="curve" smooth="yes"/>
      <point x="284" y="191"/>
      <point x="294" y="184"/>
      <point x="318" y="184" type="curve" smooth="yes"/>
      <point x="354" y="184"/>
      <point x="372" y="186"/>
      <point x="403" y="186" type="curve" smooth="yes"/>
      <point x="420" y="186"/>
      <point x="424" y="184"/>
      <point x="454" y="184" type="curve" smooth="yes"/>
      <point x="473" y="184"/>
      <point x="482" y="191"/>
    </contour>
  </outline>
</glyph>
<glyph name="uniA4D7" format="2">
  <advance width="513"/>
  <unicode hex="A4D7"/>
  <outline>
    <contour>
      <point x="59" y="-9" type="curve" smooth="yes"/>
      <point x="88" y="-9"/>
      <point x="99" y="0"/>
      <point x="104" y="17" type="curve" smooth="yes"/>
      <point x="109" y="33"/>
      <point x="118" y="66"/>
      <point x="130" y="104" type="curve" smooth="yes"/>
      <point x="153" y="177"/>
      <point x="183" y="270"/>
      <point x="219" y="366" type="curve" smooth="yes"/>
      <point x="235" y="409"/>
      <point x="255" y="453"/>
      <point x="269" y="496" type="curve" smooth="yes"/>
      <point x="271" y="502"/>
      <point x="272" y="506"/>
      <point x="272" y="510" type="curve" smooth="yes"/>
      <point x="272" y="521"/>
      <point x="256" y="532"/>
      <point x="233" y="532" type="curve" smooth="yes"/>
      <point x="215" y="532"/>
      <point x="206" y="529"/>
      <point x="201" y="522" type="curve" smooth="yes"/>
      <point x="197" y="517"/>
      <point x="193" y="508"/>
      <point x="191" y="503" type="curve" smooth="yes"/>
      <point x="178" y="470"/>
      <point x="169" y="436"/>
      <point x="158" y="403" type="curve" smooth="yes"/>
      <point x="128" y="313"/>
      <point x="99" y="229"/>
      <point x="67" y="140" type="curve" smooth="yes"/>
      <point x="54" y="104"/>
      <point x="40" y="68"/>
      <point x="27" y="30" type="curve" smooth="yes"/>
      <point x="25" y="24"/>
      <point x="23" y="18"/>
      <point x="23" y="11" type="curve" smooth="yes"/>
      <point x="23" y="3"/>
      <point x="30" y="-9"/>
    </contour>
    <contour>
      <point x="166" y="306" type="curve" smooth="yes"/>
      <point x="126" y="299"/>
      <point x="101" y="293"/>
      <point x="90" y="286" type="curve" smooth="yes"/>
      <point x="81" y="280"/>
      <point x="76" y="268"/>
      <point x="76" y="256" type="curve" smooth="yes"/>
      <point x="76" y="237"/>
      <point x="84" y="224"/>
      <point x="103" y="224" type="curve" smooth="yes"/>
      <point x="113" y="224"/>
      <point x="126" y="226"/>
      <point x="145" y="230" type="curve" smooth="yes"/>
      <point x="337" y="272"/>
      <point x="458" y="360"/>
      <point x="526" y="496" type="curve" smooth="yes"/>
      <point x="529" y="502"/>
      <point x="532" y="508"/>
      <point x="532" y="515" type="curve" smooth="yes"/>
      <point x="532" y="524"/>
      <point x="525" y="528"/>
      <point x="519" y="530" type="curve" smooth="yes"/>
      <point x="516" y="531"/>
      <point x="509" y="532"/>
      <point x="504" y="532" type="curve" smooth="yes"/>
      <point x="494" y="532"/>
      <point x="484" y="531"/>
      <point x="477" y="528" type="curve" smooth="yes"/>
      <point x="467" y="524"/>
      <point x="458" y="518"/>
      <point x="447" y="500" type="curve" smooth="yes"/>
      <point x="390" y="406"/>
      <point x="301" y="330"/>
    </contour>
    <contour>
      <point x="273" y="284" type="curve"/>
      <point x="214" y="248" type="line"/>
      <point x="266" y="188"/>
      <point x="310" y="121"/>
      <point x="328" y="51" type="curve" smooth="yes"/>
      <point x="334" y="27"/>
      <point x="339" y="9"/>
      <point x="344" y="2" type="curve" smooth="yes"/>
      <point x="351" y="-8"/>
      <point x="363" y="-9"/>
      <point x="377" y="-9" type="curve" smooth="yes"/>
      <point x="399" y="-9"/>
      <point x="415" y="-1"/>
      <point x="415" y="9" type="curve" smooth="yes"/>
      <point x="415" y="20"/>
      <point x="412" y="32"/>
      <point x="403" y="59" type="curve" smooth="yes"/>
      <point x="378" y="131"/>
      <point x="324" y="228"/>
    </contour>
  </outline>
</glyph>
<glyph name="uniA4D8" format="2">
  <advance width="502"/>
  <unicode hex="A4D8"/>
  <outline>
    <contour>
      <point x="292" y="270" type="curve" smooth="yes"/>
      <point x="309" y="257"/>
      <point x="328" y="243"/>
      <point x="342" y="236" type="curve" smooth="yes"/>
      <point x="352" y="231"/>
      <point x="393" y="216"/>
      <point x="406" y="216" type="curve" smooth="yes"/>
      <point x="423" y="216"/>
      <point x="436" y="231"/>
      <point x="436" y="247" type="curve" smooth="yes"/>
      <point x="436" y="260"/>
      <point x="430" y="269"/>
      <point x="413" y="276" type="curve" smooth="yes"/>
      <point x="403" y="280"/>
      <point x="382" y="289"/>
      <point x="368" y="297" type="curve" smooth="yes"/>
      <point x="285" y="344"/>
      <point x="232" y="414"/>
      <point x="212" y="477" type="curve" smooth="yes"/>
      <point x="203" y="506"/>
      <point x="200" y="515"/>
      <point x="196" y="520" type="curve" smooth="yes"/>
      <point x="191" y="527"/>
      <point x="180" y="532"/>
      <point x="168" y="532" type="curve" smooth="yes"/>
      <point x="150" y="532"/>
      <point x="136" y="527"/>
      <point x="136" y="504" type="curve" smooth="yes"/>
      <point x="136" y="454"/>
      <point x="202" y="341"/>
    </contour>
    <contour>
      <point x="311" y="257" type="curve"/>
      <point x="267" y="295" type="line"/>
      <point x="161" y="239"/>
      <point x="70" y="148"/>
      <point x="4" y="63" type="curve" smooth="yes"/>
      <point x="-15" y="39"/>
      <point x="-27" y="22"/>
      <point x="-27" y="11" type="curve" smooth="yes"/>
      <point x="-27" y="-3"/>
      <point x="-12" y="-9"/>
      <point x="7" y="-9" type="curve" smooth="yes"/>
      <point x="17" y="-9"/>
      <point x="23" y="-6"/>
      <point x="31" y="-1" type="curve" smooth="yes"/>
      <point x="43" y="6"/>
      <point x="55" y="19"/>
      <point x="71" y="41" type="curve" smooth="yes"/>
      <point x="129" y="121"/>
      <point x="204" y="192"/>
    </contour>
    <contour>
      <point x="294" y="-9" type="curve" smooth="yes"/>
      <point x="319" y="-9"/>
      <point x="330" y="0"/>
      <point x="335" y="17" type="curve" smooth="yes"/>
      <point x="340" y="33"/>
      <point x="349" y="66"/>
      <point x="361" y="104" type="curve" smooth="yes"/>
      <point x="384" y="177"/>
      <point x="414" y="270"/>
      <point x="450" y="366" type="curve" smooth="yes"/>
      <point x="466" y="409"/>
      <point x="486" y="453"/>
      <point x="500" y="496" type="curve" smooth="yes"/>
      <point x="502" y="502"/>
      <point x="503" y="506"/>
      <point x="503" y="510" type="curve" smooth="yes"/>
      <point x="503" y="521"/>
      <point x="487" y="532"/>
      <point x="468" y="532" type="curve" smooth="yes"/>
      <point x="454" y="532"/>
      <point x="445" y="529"/>
      <point x="440" y="522" type="curve" smooth="yes"/>
      <point x="436" y="517"/>
      <point x="432" y="508"/>
      <point x="430" y="503" type="curve" smooth="yes"/>
      <point x="417" y="470"/>
      <point x="408" y="436"/>
      <point x="397" y="403" type="curve" smooth="yes"/>
      <point x="367" y="313"/>
      <point x="338" y="229"/>
      <point x="306" y="140" type="curve" smooth="yes"/>
      <point x="293" y="104"/>
      <point x="279" y="68"/>
      <point x="266" y="30" type="curve" smooth="yes"/>
      <point x="264" y="24"/>
      <point x="262" y="18"/>
      <point x="262" y="11" type="curve" smooth="yes"/>
      <point x="262" y="3"/>
      <point x="269" y="-9"/>
    </contour>
  </outline>
</glyph>
<glyph name="uniA4D9" format="2">
  <advance width="474"/>
  <unicode hex="A4D9"/>
  <outline>
    <contour>
      <point x="440" y="376" type="curve" smooth="yes"/>
      <point x="453" y="412"/>
      <point x="472" y="454"/>
      <point x="485" y="492" type="curve" smooth="yes"/>
      <point x="487" y="498"/>
      <point x="489" y="504"/>
      <point x="489" y="511" type="curve" smooth="yes"/>
      <point x="489" y="519"/>
      <point x="479" y="532"/>
      <point x="450" y="532" type="curve" smooth="yes"/>
      <point x="421" y="532"/>
      <point x="414" y="523"/>
      <point x="409" y="506" type="curve" smooth="yes"/>
      <point x="404" y="490"/>
      <point x="392" y="453"/>
      <point x="379" y="415" type="curve" smooth="yes"/>
      <point x="359" y="357"/>
      <point x="336" y="292"/>
      <point x="316" y="236" type="curve" smooth="yes"/>
      <point x="282" y="140"/>
      <point x="249" y="60"/>
      <point x="169" y="60" type="curve" smooth="yes"/>
      <point x="114" y="60"/>
      <point x="91" y="89"/>
      <point x="82" y="119" type="curve" smooth="yes"/>
      <point x="77" y="137"/>
      <point x="78" y="155"/>
      <point x="73" y="165" type="curve" smooth="yes"/>
      <point x="70" y="171"/>
      <point x="64" y="174"/>
      <point x="54" y="174" type="curve" smooth="yes"/>
      <point x="34" y="174"/>
      <point x="6" y="159"/>
      <point x="6" y="144" type="curve" smooth="yes"/>
      <point x="6" y="134"/>
      <point x="8" y="110"/>
      <point x="17" y="85" type="curve" smooth="yes"/>
      <point x="36" y="34"/>
      <point x="82" y="-10"/>
      <point x="159" y="-10" type="curve" smooth="yes"/>
      <point x="269" y="-10"/>
      <point x="324" y="66"/>
      <point x="365" y="174" type="curve" smooth="yes"/>
      <point x="387" y="232"/>
      <point x="415" y="308"/>
    </contour>
  </outline>
</glyph>
<glyph name="uniA4DA" format="2">
  <advance width="471"/>
  <unicode hex="A4DA"/>
  <outline>
    <contour>
      <point x="52" y="171" type="curve" smooth="yes"/>
      <point x="52" y="71"/>
      <point x="114" y="-10"/>
      <point x="214" y="-10" type="curve" smooth="yes"/>
      <point x="291" y="-10"/>
      <point x="354" y="31"/>
      <point x="380" y="62" type="curve" smooth="yes"/>
      <point x="391" y="75"/>
      <point x="395" y="82"/>
      <point x="395" y="92" type="curve" smooth="yes"/>
      <point x="395" y="112"/>
      <point x="370" y="127"/>
      <point x="359" y="127" type="curve" smooth="yes"/>
      <point x="350" y="127"/>
      <point x="345" y="124"/>
      <point x="339" y="117" type="curve" smooth="yes"/>
      <point x="334" y="111"/>
      <point x="327" y="103"/>
      <point x="313" y="90" type="curve" smooth="yes"/>
      <point x="301" y="79"/>
      <point x="262" y="50"/>
      <point x="222" y="50" type="curve" smooth="yes"/>
      <point x="157" y="50"/>
      <point x="113" y="101"/>
      <point x="113" y="182" type="curve" smooth="yes"/>
      <point x="113" y="318"/>
      <point x="215" y="478"/>
      <point x="330" y="478" type="curve" smooth="yes"/>
      <point x="383" y="478"/>
      <point x="405" y="431"/>
      <point x="414" y="404" type="curve" smooth="yes"/>
      <point x="419" y="390"/>
      <point x="424" y="386"/>
      <point x="432" y="386" type="curve" smooth="yes"/>
      <point x="447" y="386"/>
      <point x="479" y="406"/>
      <point x="479" y="422" type="curve" smooth="yes"/>
      <point x="479" y="439"/>
      <point x="464" y="464"/>
      <point x="454" y="479" type="curve" smooth="yes"/>
      <point x="427" y="517"/>
      <point x="385" y="538"/>
      <point x="337" y="538" type="curve" smooth="yes"/>
      <point x="163" y="538"/>
      <point x="52" y="340"/>
    </contour>
  </outline>
</glyph>
<glyph name="uniA4DB" format="2">
  <advance width="453"/>
  <unicode hex="A4DB"/>
  <outline>
    <contour>
      <point x="438" y="368" type="curve" smooth="yes"/>
      <point x="438" y="482"/>
      <point x="361" y="538"/>
      <point x="279" y="538" type="curve" smooth="yes"/>
      <point x="221" y="538"/>
      <point x="173" y="512"/>
      <point x="148" y="490" type="curve" smooth="yes"/>
      <point x="126" y="470"/>
      <point x="113" y="457"/>
      <point x="113" y="448" type="curve" smooth="yes"/>
      <point x="113" y="431"/>
      <point x="133" y="407"/>
      <point x="146" y="407" type="curve" smooth="yes"/>
      <point x="156" y="407"/>
      <point x="170" y="420"/>
      <point x="186" y="435" type="curve" smooth="yes"/>
      <point x="200" y="449"/>
      <point x="237" y="478"/>
      <point x="273" y="478" type="curve" smooth="yes"/>
      <point x="327" y="478"/>
      <point x="377" y="443"/>
      <point x="377" y="357" type="curve" smooth="yes"/>
      <point x="377" y="225"/>
      <point x="267" y="50"/>
      <point x="160" y="50" type="curve" smooth="yes"/>
      <point x="109" y="50"/>
      <point x="86" y="95"/>
      <point x="75" y="127" type="curve" smooth="yes"/>
      <point x="69" y="144"/>
      <point x="63" y="150"/>
      <point x="52" y="150" type="curve" smooth="yes"/>
      <point x="33" y="150"/>
      <point x="11" y="133"/>
      <point x="11" y="113" type="curve" smooth="yes"/>
      <point x="11" y="89"/>
      <point x="25" y="62"/>
      <point x="46" y="37" type="curve" smooth="yes"/>
      <point x="66" y="13"/>
      <point x="108" y="-10"/>
      <point x="151" y="-10" type="curve" smooth="yes"/>
      <point x="325" y="-10"/>
      <point x="438" y="200"/>
    </contour>
  </outline>
</glyph>
<glyph name="uniA4DC" format="2">
  <advance width="511"/>
  <unicode hex="A4DC"/>
  <outline>
    <contour>
      <point x="128" y="491" type="curve" smooth="yes"/>
      <point x="136" y="479"/>
      <point x="149" y="473"/>
      <point x="167" y="473" type="curve" smooth="yes"/>
      <point x="184" y="473"/>
      <point x="215" y="473"/>
      <point x="254" y="473" type="curve" smooth="yes"/>
      <point x="283" y="473"/>
      <point x="322" y="474"/>
      <point x="355" y="474" type="curve" smooth="yes"/>
      <point x="400" y="474"/>
      <point x="448" y="472"/>
      <point x="493" y="472" type="curve" smooth="yes"/>
      <point x="499" y="472"/>
      <point x="515" y="472"/>
      <point x="518" y="473" type="curve" smooth="yes"/>
      <point x="525" y="475"/>
      <point x="530" y="481"/>
      <point x="530" y="491" type="curve" smooth="yes"/>
      <point x="530" y="497"/>
      <point x="529" y="504"/>
      <point x="525" y="511" type="curve" smooth="yes"/>
      <point x="519" y="522"/>
      <point x="512" y="527"/>
      <point x="504" y="530" type="curve" smooth="yes"/>
      <point x="497" y="533"/>
      <point x="479" y="533"/>
      <point x="474" y="533" type="curve" smooth="yes"/>
      <point x="455" y="533"/>
      <point x="367" y="532"/>
      <point x="319" y="532" type="curve" smooth="yes"/>
      <point x="261" y="532"/>
      <point x="191" y="533"/>
      <point x="151" y="533" type="curve" smooth="yes"/>
      <point x="145" y="533"/>
      <point x="138" y="533"/>
      <point x="132" y="531" type="curve" smooth="yes"/>
      <point x="127" y="529"/>
      <point x="121" y="523"/>
      <point x="121" y="511" type="curve" smooth="yes"/>
      <point x="121" y="506"/>
      <point x="124" y="497"/>
    </contour>
    <contour>
      <point x="7" y="11" type="curve" smooth="yes"/>
      <point x="15" y="-3"/>
      <point x="29" y="-7"/>
      <point x="47" y="-7" type="curve" smooth="yes"/>
      <point x="65" y="-7"/>
      <point x="98" y="-6"/>
      <point x="138" y="-6" type="curve" smooth="yes"/>
      <point x="167" y="-6"/>
      <point x="215" y="-5"/>
      <point x="248" y="-5" type="curve" smooth="yes"/>
      <point x="294" y="-5"/>
      <point x="351" y="-7"/>
      <point x="397" y="-7" type="curve" smooth="yes"/>
      <point x="403" y="-7"/>
      <point x="415" y="-6"/>
      <point x="418" y="-5" type="curve" smooth="yes"/>
      <point x="425" y="-3"/>
      <point x="430" y="4"/>
      <point x="430" y="14" type="curve" smooth="yes"/>
      <point x="430" y="19"/>
      <point x="428" y="25"/>
      <point x="424" y="33" type="curve" smooth="yes"/>
      <point x="420" y="41"/>
      <point x="414" y="47"/>
      <point x="407" y="50" type="curve" smooth="yes"/>
      <point x="400" y="53"/>
      <point x="383" y="53"/>
      <point x="378" y="53" type="curve" smooth="yes"/>
      <point x="342" y="53"/>
      <point x="298" y="53"/>
      <point x="264" y="53" type="curve" smooth="yes"/>
      <point x="218" y="53"/>
      <point x="187" y="52"/>
      <point x="151" y="52" type="curve" smooth="yes"/>
      <point x="113" y="52"/>
      <point x="74" y="52"/>
      <point x="34" y="52" type="curve" smooth="yes"/>
      <point x="28" y="52"/>
      <point x="18" y="51"/>
      <point x="15" y="50" type="curve" smooth="yes"/>
      <point x="9" y="48"/>
      <point x="1" y="44"/>
      <point x="1" y="32" type="curve" smooth="yes"/>
      <point x="1" y="27"/>
      <point x="3" y="18"/>
    </contour>
    <contour>
      <point x="33" y="5" type="curve" smooth="yes"/>
      <point x="39" y="5"/>
      <point x="58" y="19"/>
      <point x="66" y="25" type="curve" smooth="yes"/>
      <point x="149" y="87"/>
      <point x="459" y="411"/>
      <point x="493" y="443" type="curve" smooth="yes"/>
      <point x="521" y="469"/>
      <point x="530" y="481"/>
      <point x="530" y="491" type="curve" smooth="yes"/>
      <point x="530" y="497"/>
      <point x="529" y="504"/>
      <point x="525" y="511" type="curve" smooth="yes"/>
      <point x="520" y="520"/>
      <point x="506" y="526"/>
      <point x="497" y="526" type="curve" smooth="yes"/>
      <point x="488" y="526"/>
      <point x="474" y="511"/>
      <point x="462" y="498" type="curve" smooth="yes"/>
      <point x="439" y="473"/>
      <point x="90" y="116"/>
      <point x="16" y="60" type="curve" smooth="yes"/>
      <point x="7" y="53"/>
      <point x="1" y="44"/>
      <point x="1" y="32" type="curve" smooth="yes"/>
      <point x="1" y="28"/>
      <point x="4" y="23"/>
      <point x="6" y="20" type="curve" smooth="yes"/>
      <point x="8" y="17"/>
      <point x="11" y="14"/>
      <point x="17" y="9" type="curve" smooth="yes"/>
      <point x="21" y="6"/>
      <point x="26" y="5"/>
    </contour>
  </outline>
</glyph>
<glyph name="uniA4DD" format="2">
  <advance width="458"/>
  <unicode hex="A4DD"/>
  <outline>
    <contour>
      <point x="66" y="-9" type="curve" smooth="yes"/>
      <point x="87" y="-9"/>
      <point x="99" y="0"/>
      <point x="104" y="17" type="curve" smooth="yes"/>
      <point x="109" y="33"/>
      <point x="119" y="66"/>
      <point x="131" y="104" type="curve" smooth="yes"/>
      <point x="154" y="177"/>
      <point x="183" y="266"/>
      <point x="218" y="362" type="curve" smooth="yes"/>
      <point x="234" y="405"/>
      <point x="251" y="450"/>
      <point x="267" y="493" type="curve" smooth="yes"/>
      <point x="269" y="499"/>
      <point x="269" y="502"/>
      <point x="269" y="506" type="curve" smooth="yes"/>
      <point x="269" y="517"/>
      <point x="265" y="528"/>
      <point x="239" y="528" type="curve" smooth="yes"/>
      <point x="218" y="528"/>
      <point x="212" y="525"/>
      <point x="207" y="518" type="curve" smooth="yes"/>
      <point x="203" y="513"/>
      <point x="199" y="505"/>
      <point x="197" y="500" type="curve" smooth="yes"/>
      <point x="185" y="467"/>
      <point x="177" y="432"/>
      <point x="166" y="399" type="curve" smooth="yes"/>
      <point x="136" y="309"/>
      <point x="109" y="228"/>
      <point x="77" y="140" type="curve" smooth="yes"/>
      <point x="64" y="104"/>
      <point x="49" y="68"/>
      <point x="36" y="30" type="curve" smooth="yes"/>
      <point x="34" y="24"/>
      <point x="32" y="18"/>
      <point x="32" y="11" type="curve" smooth="yes"/>
      <point x="32" y="3"/>
      <point x="38" y="-9"/>
    </contour>
    <contour>
      <point x="398" y="270" type="curve" smooth="yes"/>
      <point x="390" y="278"/>
      <point x="381" y="280"/>
      <point x="351" y="280" type="curve" smooth="yes"/>
      <point x="314" y="280"/>
      <point x="276" y="279"/>
      <point x="242" y="279" type="curve" smooth="yes"/>
      <point x="197" y="279"/>
      <point x="165" y="281"/>
      <point x="122" y="281" type="curve" smooth="yes"/>
      <point x="93" y="281"/>
      <point x="76" y="280"/>
      <point x="76" y="260" type="curve" smooth="yes"/>
      <point x="76" y="238"/>
      <point x="88" y="231"/>
      <point x="95" y="228" type="curve" smooth="yes"/>
      <point x="101" y="225"/>
      <point x="122" y="224"/>
      <point x="127" y="224" type="curve" smooth="yes"/>
      <point x="163" y="224"/>
      <point x="192" y="225"/>
      <point x="227" y="225" type="curve" smooth="yes"/>
      <point x="284" y="225"/>
      <point x="325" y="224"/>
      <point x="345" y="224" type="curve" smooth="yes"/>
      <point x="377" y="224"/>
      <point x="391" y="228"/>
      <point x="398" y="235" type="curve" smooth="yes"/>
      <point x="402" y="239"/>
      <point x="404" y="247"/>
      <point x="404" y="253" type="curve" smooth="yes"/>
      <point x="404" y="261"/>
      <point x="403" y="265"/>
    </contour>
    <contour>
      <point x="216" y="529" type="curve" smooth="yes"/>
      <point x="189" y="529"/>
      <point x="177" y="531"/>
      <point x="140" y="531" type="curve" smooth="yes"/>
      <point x="128" y="531"/>
      <point x="118" y="526"/>
      <point x="118" y="513" type="curve" smooth="yes"/>
      <point x="118" y="500"/>
      <point x="120" y="494"/>
      <point x="128" y="486" type="curve" smooth="yes"/>
      <point x="135" y="479"/>
      <point x="142" y="477"/>
      <point x="157" y="475" type="curve" smooth="yes"/>
      <point x="183" y="472"/>
      <point x="192" y="471"/>
      <point x="232" y="471" type="curve" smooth="yes"/>
      <point x="275" y="471"/>
      <point x="409" y="472"/>
      <point x="436" y="472" type="curve" smooth="yes"/>
      <point x="452" y="472"/>
      <point x="469" y="471"/>
      <point x="484" y="471" type="curve" smooth="yes"/>
      <point x="496" y="471"/>
      <point x="506" y="472"/>
      <point x="512" y="476" type="curve" smooth="yes"/>
      <point x="518" y="480"/>
      <point x="522" y="489"/>
      <point x="522" y="498" type="curve" smooth="yes"/>
      <point x="522" y="518"/>
      <point x="494" y="532"/>
      <point x="453" y="532" type="curve" smooth="yes"/>
      <point x="391" y="532"/>
      <point x="280" y="529"/>
    </contour>
  </outline>
</glyph>
<glyph name="uniA4DE" format="2">
  <advance width="475"/>
  <unicode hex="A4DE"/>
  <outline>
    <contour>
      <point x="262" y="-5" type="curve" smooth="yes"/>
      <point x="288" y="-5"/>
      <point x="299" y="5"/>
      <point x="304" y="22" type="curve" smooth="yes"/>
      <point x="309" y="38"/>
      <point x="317" y="66"/>
      <point x="329" y="104" type="curve" smooth="yes"/>
      <point x="352" y="177"/>
      <point x="382" y="270"/>
      <point x="418" y="366" type="curve" smooth="yes"/>
      <point x="434" y="409"/>
      <point x="454" y="453"/>
      <point x="468" y="496" type="curve" smooth="yes"/>
      <point x="470" y="502"/>
      <point x="471" y="506"/>
      <point x="471" y="510" type="curve" smooth="yes"/>
      <point x="471" y="521"/>
      <point x="455" y="532"/>
      <point x="435" y="532" type="curve" smooth="yes"/>
      <point x="423" y="532"/>
      <point x="414" y="529"/>
      <point x="409" y="522" type="curve" smooth="yes"/>
      <point x="405" y="517"/>
      <point x="401" y="508"/>
      <point x="399" y="503" type="curve" smooth="yes"/>
      <point x="386" y="470"/>
      <point x="377" y="436"/>
      <point x="366" y="403" type="curve" smooth="yes"/>
      <point x="336" y="313"/>
      <point x="307" y="229"/>
      <point x="275" y="140" type="curve" smooth="yes"/>
      <point x="262" y="104"/>
      <point x="249" y="73"/>
      <point x="236" y="35" type="curve" smooth="yes"/>
      <point x="234" y="29"/>
      <point x="232" y="23"/>
      <point x="232" y="16" type="curve" smooth="yes"/>
      <point x="232" y="8"/>
      <point x="239" y="-5"/>
    </contour>
    <contour>
      <point x="99" y="262" type="curve" smooth="yes"/>
      <point x="105" y="256"/>
      <point x="118" y="249"/>
      <point x="150" y="249" type="curve" smooth="yes"/>
      <point x="172" y="249"/>
      <point x="219" y="248"/>
      <point x="253" y="248" type="curve" smooth="yes"/>
      <point x="298" y="248"/>
      <point x="330" y="246"/>
      <point x="373" y="246" type="curve" smooth="yes"/>
      <point x="407" y="246"/>
      <point x="424" y="257"/>
      <point x="424" y="275" type="curve" smooth="yes"/>
      <point x="424" y="288"/>
      <point x="413" y="295"/>
      <point x="409" y="297" type="curve" smooth="yes"/>
      <point x="399" y="303"/>
      <point x="373" y="303"/>
      <point x="368" y="303" type="curve" smooth="yes"/>
      <point x="332" y="303"/>
      <point x="303" y="302"/>
      <point x="268" y="302" type="curve" smooth="yes"/>
      <point x="211" y="302"/>
      <point x="170" y="303"/>
      <point x="150" y="303" type="curve" smooth="yes"/>
      <point x="118" y="303"/>
      <point x="105" y="300"/>
      <point x="98" y="294" type="curve" smooth="yes"/>
      <point x="93" y="290"/>
      <point x="91" y="286"/>
      <point x="91" y="279" type="curve" smooth="yes"/>
      <point x="91" y="271"/>
      <point x="96" y="265"/>
    </contour>
    <contour>
      <point x="69" y="50" type="curve" smooth="yes"/>
      <point x="32" y="50"/>
      <point x="26" y="52"/>
      <point x="-9" y="52" type="curve" smooth="yes"/>
      <point x="-19" y="52"/>
      <point x="-29" y="48"/>
      <point x="-29" y="31" type="curve" smooth="yes"/>
      <point x="-29" y="18"/>
      <point x="-15" y="7"/>
      <point x="-5" y="2" type="curve" smooth="yes"/>
      <point x="11" y="-7"/>
      <point x="47" y="-9"/>
      <point x="87" y="-9" type="curve" smooth="yes"/>
      <point x="130" y="-9"/>
      <point x="257" y="-6"/>
      <point x="284" y="-6" type="curve" smooth="yes"/>
      <point x="300" y="-6"/>
      <point x="317" y="-7"/>
      <point x="332" y="-7" type="curve" smooth="yes"/>
      <point x="344" y="-7"/>
      <point x="354" y="-6"/>
      <point x="360" y="-2" type="curve" smooth="yes"/>
      <point x="366" y="2"/>
      <point x="370" y="11"/>
      <point x="370" y="17" type="curve" smooth="yes"/>
      <point x="370" y="40"/>
      <point x="338" y="51"/>
      <point x="301" y="51" type="curve" smooth="yes"/>
      <point x="239" y="51"/>
      <point x="133" y="50"/>
    </contour>
  </outline>
</glyph>
<glyph name="uniA4DF" format="2">
  <advance width="650"/>
  <unicode hex="A4DF"/>
  <outline>
    <contour>
      <point x="329" y="183" type="curve" smooth="yes"/>
      <point x="329" y="193"/>
      <point x="328" y="202"/>
      <point x="326" y="212" type="curve" smooth="yes"/>
      <point x="305" y="317"/>
      <point x="274" y="416"/>
      <point x="265" y="473" type="curve" smooth="yes"/>
      <point x="262" y="492"/>
      <point x="260" y="505"/>
      <point x="259" y="512" type="curve" smooth="yes"/>
      <point x="257" y="525"/>
      <point x="241" y="529"/>
      <point x="229" y="529" type="curve" smooth="yes"/>
      <point x="219" y="529"/>
      <point x="216" y="528"/>
      <point x="213" y="526" type="curve" smooth="yes"/>
      <point x="208" y="522"/>
      <point x="207" y="513"/>
      <point x="207" y="500" type="curve" smooth="yes"/>
      <point x="207" y="488"/>
      <point x="210" y="473"/>
      <point x="213" y="458" type="curve" smooth="yes"/>
      <point x="222" y="413"/>
      <point x="258" y="278"/>
      <point x="277" y="179" type="curve" smooth="yes"/>
      <point x="280" y="163"/>
      <point x="289" y="160"/>
      <point x="297" y="160" type="curve" smooth="yes"/>
      <point x="304" y="160"/>
      <point x="312" y="163"/>
      <point x="318" y="167" type="curve" smooth="yes"/>
      <point x="322" y="170"/>
      <point x="329" y="176"/>
    </contour>
    <contour>
      <point x="581" y="506" type="curve" smooth="yes"/>
      <point x="534" y="452"/>
      <point x="390" y="322"/>
      <point x="313" y="228" type="curve" smooth="yes"/>
      <point x="297" y="209"/>
      <point x="290" y="198"/>
      <point x="288" y="194" type="curve" smooth="yes"/>
      <point x="285" y="188"/>
      <point x="284" y="184"/>
      <point x="284" y="179" type="curve" smooth="yes"/>
      <point x="284" y="175"/>
      <point x="285" y="170"/>
      <point x="287" y="168" type="curve" smooth="yes"/>
      <point x="292" y="163"/>
      <point x="296" y="160"/>
      <point x="306" y="160" type="curve" smooth="yes"/>
      <point x="316" y="160"/>
      <point x="325" y="164"/>
      <point x="331" y="169" type="curve" smooth="yes"/>
      <point x="340" y="177"/>
      <point x="347" y="184"/>
      <point x="357" y="196" type="curve" smooth="yes"/>
      <point x="418" y="271"/>
      <point x="572" y="408"/>
      <point x="607" y="471" type="curve" smooth="yes"/>
      <point x="625" y="504"/>
      <point x="625" y="511"/>
      <point x="625" y="517" type="curve" smooth="yes"/>
      <point x="625" y="523"/>
      <point x="620" y="531"/>
      <point x="611" y="531" type="curve" smooth="yes"/>
      <point x="607" y="531"/>
      <point x="604" y="529"/>
      <point x="601" y="527" type="curve" smooth="yes"/>
      <point x="596" y="523"/>
      <point x="588" y="514"/>
    </contour>
    <contour>
      <point x="43" y="-9" type="curve" smooth="yes"/>
      <point x="66" y="-9"/>
      <point x="76" y="0"/>
      <point x="82" y="17" type="curve" smooth="yes"/>
      <point x="88" y="33"/>
      <point x="97" y="66"/>
      <point x="110" y="104" type="curve" smooth="yes"/>
      <point x="135" y="177"/>
      <point x="167" y="270"/>
      <point x="207" y="366" type="curve" smooth="yes"/>
      <point x="225" y="409"/>
      <point x="243" y="455"/>
      <point x="257" y="498" type="curve" smooth="yes"/>
      <point x="258" y="501"/>
      <point x="259" y="509"/>
      <point x="259" y="512" type="curve" smooth="yes"/>
      <point x="259" y="523"/>
      <point x="245" y="534"/>
      <point x="228" y="534" type="curve" smooth="yes"/>
      <point x="213" y="534"/>
      <point x="205" y="531"/>
      <point x="200" y="524" type="curve" smooth="yes"/>
      <point x="196" y="519"/>
      <point x="192" y="510"/>
      <point x="190" y="505" type="curve" smooth="yes"/>
      <point x="177" y="472"/>
      <point x="167" y="436"/>
      <point x="155" y="403" type="curve" smooth="yes"/>
      <point x="121" y="313"/>
      <point x="89" y="229"/>
      <point x="55" y="140" type="curve" smooth="yes"/>
      <point x="41" y="104"/>
      <point x="28" y="68"/>
      <point x="15" y="30" type="curve" smooth="yes"/>
      <point x="13" y="24"/>
      <point x="11" y="18"/>
      <point x="11" y="11" type="curve" smooth="yes"/>
      <point x="11" y="3"/>
      <point x="17" y="-9"/>
    </contour>
    <contour>
      <point x="460" y="-9" type="curve" smooth="yes"/>
      <point x="489" y="-9"/>
      <point x="500" y="0"/>
      <point x="505" y="17" type="curve" smooth="yes"/>
      <point x="510" y="33"/>
      <point x="520" y="66"/>
      <point x="532" y="104" type="curve" smooth="yes"/>
      <point x="555" y="177"/>
      <point x="583" y="271"/>
      <point x="613" y="366" type="curve" smooth="yes"/>
      <point x="627" y="409"/>
      <point x="646" y="455"/>
      <point x="660" y="498" type="curve" smooth="yes"/>
      <point x="662" y="504"/>
      <point x="663" y="509"/>
      <point x="663" y="512" type="curve" smooth="yes"/>
      <point x="663" y="523"/>
      <point x="647" y="534"/>
      <point x="625" y="534" type="curve" smooth="yes"/>
      <point x="610" y="534"/>
      <point x="603" y="529"/>
      <point x="601" y="527" type="curve" smooth="yes"/>
      <point x="598" y="524"/>
      <point x="592" y="503"/>
      <point x="591" y="498" type="curve" smooth="yes"/>
      <point x="582" y="465"/>
      <point x="573" y="435"/>
      <point x="563" y="403" type="curve" smooth="yes"/>
      <point x="534" y="313"/>
      <point x="506" y="227"/>
      <point x="475" y="140" type="curve" smooth="yes"/>
      <point x="462" y="104"/>
      <point x="449" y="68"/>
      <point x="436" y="30" type="curve" smooth="yes"/>
      <point x="434" y="24"/>
      <point x="432" y="18"/>
      <point x="432" y="11" type="curve" smooth="yes"/>
      <point x="432" y="3"/>
      <point x="438" y="-9"/>
    </contour>
  </outline>
</glyph>
